<svg xmlns="http://www.w3.org/2000/svg" xmlns:xlink="http://www.w3.org/1999/xlink" width="1920" zoomAndPan="magnify" viewBox="0 0 1440 225" height="300" preserveAspectRatio="xMidYMid meet" version="1.0"><defs><g/></defs><rect x="-144" width="1728" fill="#ffffff" y="-22.5" height="270" fill-opacity="1"/><rect x="-144" width="1728" fill="#ff7f63" y="-22.5" height="270" fill-opacity="1"/><path fill="#ffb763" d="M 673.6875 2961.296875 C -656.019531 647.515625 -815.984375 -1554.859375 233.785156 -3078.8125 C 257.320312 -3113.15625 281.449219 -3147.078125 306.171875 -3180.578125 C 330.894531 -3214.082031 356.195312 -3247.136719 382.074219 -3279.753906 C 407.949219 -3312.371094 434.390625 -3344.523438 461.394531 -3376.214844 C 488.398438 -3407.902344 515.949219 -3439.113281 544.042969 -3469.839844 C 572.136719 -3500.566406 600.761719 -3530.792969 629.914062 -3560.519531 C 659.066406 -3590.242188 688.730469 -3619.449219 718.902344 -3648.136719 C 749.078125 -3676.824219 779.742188 -3704.976562 810.902344 -3732.59375 C 842.0625 -3760.207031 873.691406 -3787.269531 905.796875 -3813.777344 C 937.902344 -3840.285156 970.460938 -3866.226562 1003.476562 -3891.597656 C 1036.488281 -3916.964844 1069.933594 -3941.75 1103.8125 -3965.949219 C 1137.695312 -3990.148438 1171.988281 -4013.75 1206.691406 -4036.75 C 1241.398438 -4059.75 1276.496094 -4082.136719 1311.984375 -4103.910156 C 1347.472656 -4125.679688 1383.328125 -4146.828125 1419.558594 -4167.34375 C 1455.785156 -4187.863281 1492.363281 -4207.742188 1529.285156 -4226.980469 C 1566.207031 -4246.21875 1603.457031 -4264.804688 1641.03125 -4282.742188 C 1678.605469 -4300.675781 1716.480469 -4317.949219 1754.65625 -4334.558594 C 1792.835938 -4351.171875 1831.292969 -4367.109375 1870.027344 -4382.375 C 1908.761719 -4397.640625 1947.753906 -4412.222656 1987 -4426.125 C 2026.246094 -4440.027344 2065.722656 -4453.238281 2105.429688 -4465.757812 C 2145.136719 -4478.277344 2185.050781 -4490.101562 2225.171875 -4501.226562 C 2265.292969 -4512.347656 2305.597656 -4522.769531 2346.082031 -4532.484375 C 2386.570312 -4542.199219 2427.210938 -4551.203125 2468.011719 -4559.492188 C 2508.8125 -4567.785156 2549.746094 -4575.363281 2590.8125 -4582.222656 C 2631.878906 -4589.085938 2673.050781 -4595.226562 2714.332031 -4600.648438 C 2755.613281 -4606.066406 2796.976562 -4610.765625 2838.421875 -4614.738281 C 2879.867188 -4618.710938 2921.367188 -4621.960938 2962.925781 -4624.480469 C 3004.484375 -4627.003906 3046.074219 -4628.796875 3087.695312 -4629.863281 C 3129.316406 -4630.929688 3170.945312 -4631.269531 3212.578125 -4630.882812 C 3254.210938 -4630.492188 3295.824219 -4629.375 3337.417969 -4627.53125 C 3379.011719 -4625.6875 3420.558594 -4623.113281 3462.0625 -4619.816406 C 3503.570312 -4616.519531 3545.003906 -4612.496094 3586.367188 -4607.746094 C 3627.730469 -4603 3668.996094 -4597.53125 3710.167969 -4591.339844 C 4852.777344 -4412.804688 5662.601562 -3534.425781 5784 -2354.683594 C 5792.414062 -2274.507812 5797.453125 -2194.117188 5799.125 -2113.519531 C 5800.792969 -2032.917969 5799.085938 -1952.390625 5794 -1871.933594 C 5818.898438 -1849.328125 5843.328125 -1826.226562 5867.289062 -1802.625 C 5891.246094 -1779.027344 5914.714844 -1754.949219 5937.695312 -1730.394531 C 5960.675781 -1705.839844 5983.144531 -1680.828125 6005.101562 -1655.359375 C 6027.0625 -1629.886719 6048.496094 -1603.980469 6069.402344 -1577.640625 C 6090.308594 -1551.296875 6110.667969 -1524.539062 6130.484375 -1497.367188 C 6150.300781 -1470.195312 6169.554688 -1442.632812 6188.246094 -1414.675781 C 6206.941406 -1386.722656 6225.058594 -1358.394531 6242.597656 -1329.703125 C 6260.136719 -1301.011719 6277.085938 -1271.972656 6293.445312 -1242.589844 C 6309.800781 -1213.203125 6325.554688 -1183.5 6340.703125 -1153.476562 C 6355.851562 -1123.449219 6370.382812 -1093.128906 6384.296875 -1062.511719 C 6398.210938 -1031.898438 6411.496094 -1001.007812 6424.152344 -969.851562 C 6436.808594 -938.695312 6448.824219 -907.292969 6460.203125 -875.644531 C 6471.578125 -844 6482.308594 -812.132812 6492.386719 -780.050781 C 6502.46875 -747.964844 6511.890625 -715.691406 6520.65625 -683.222656 C 6529.421875 -650.753906 6537.523438 -618.125 6544.960938 -585.324219 C 6552.398438 -552.527344 6559.164062 -519.59375 6565.261719 -486.519531 C 6666.667969 104.777344 6700.945312 2100.058594 2913.199219 2941.300781 L 2617.550781 1618.734375 C 4360.027344 1228.820312 5361.238281 506.121094 5229.835938 -266.570312 C 5230.214844 -270.75 5230.289062 -274.9375 5230.050781 -279.128906 C 5229.816406 -283.324219 5229.273438 -287.476562 5228.425781 -291.589844 C 5227.578125 -295.699219 5226.4375 -299.730469 5225 -303.675781 C 5223.558594 -307.621094 5221.839844 -311.4375 5219.839844 -315.128906 C 5199.773438 -288.285156 5179.234375 -261.804688 5158.226562 -235.691406 C 5137.21875 -209.574219 5115.753906 -183.839844 5093.832031 -158.488281 C 5071.910156 -133.132812 5049.546875 -108.175781 5026.742188 -83.617188 C 5003.933594 -59.058594 4980.699219 -34.910156 4957.035156 -11.175781 C 4933.371094 12.558594 4909.292969 35.867188 4884.800781 58.746094 C 4860.308594 81.628906 4835.421875 104.066406 4810.132812 126.0625 C 4784.84375 148.058594 4759.175781 169.601562 4733.125 190.6875 C 4707.070312 211.773438 4680.652344 232.390625 4653.867188 252.539062 C 4627.085938 272.6875 4599.953125 292.355469 4572.46875 311.539062 C 4544.988281 330.726562 4517.175781 349.414062 4489.027344 367.613281 C 4460.882812 385.8125 4432.421875 403.503906 4403.648438 420.691406 C 4374.878906 437.882812 4345.808594 454.554688 4316.441406 470.710938 C 4287.078125 486.867188 4257.433594 502.496094 4227.515625 517.601562 C 4197.59375 532.703125 4167.417969 547.273438 4136.980469 561.308594 C 4106.542969 575.339844 4075.867188 588.828125 4044.953125 601.773438 C 4014.035156 614.71875 3982.902344 627.109375 3951.546875 638.949219 C 3210.277344 924.601562 2510.429688 817.480469 2033.390625 353.296875 C 2019.488281 339.296875 2005.832031 325.058594 1992.425781 310.578125 C 1979.019531 296.101562 1965.871094 281.394531 1952.980469 266.457031 C 1940.089844 251.519531 1927.460938 236.359375 1915.101562 220.980469 C 1902.738281 205.601562 1890.652344 190.007812 1878.835938 174.207031 C 1867.023438 158.402344 1855.488281 142.398438 1844.230469 126.191406 C 1832.976562 109.988281 1822.007812 93.589844 1811.328125 76.996094 C 1800.648438 60.40625 1790.257812 43.636719 1780.164062 26.679688 C 1770.070312 9.726562 1760.277344 -7.398438 1750.78125 -24.695312 C 1741.289062 -41.992188 1732.097656 -59.449219 1723.214844 -77.070312 C 1714.332031 -94.6875 1705.757812 -112.457031 1697.5 -130.375 C 1689.238281 -148.292969 1681.289062 -166.351562 1673.660156 -184.546875 C 1666.03125 -202.742188 1658.722656 -221.066406 1651.734375 -239.519531 C 1644.746094 -257.972656 1638.082031 -276.542969 1631.746094 -295.226562 C 1625.40625 -313.914062 1619.398438 -332.703125 1613.71875 -351.597656 C 1608.035156 -370.496094 1602.6875 -389.484375 1597.671875 -408.570312 C 1592.65625 -427.652344 1587.976562 -446.816406 1583.628906 -466.0625 C 1579.285156 -485.3125 1575.277344 -504.628906 1571.609375 -524.015625 C 1567.941406 -543.402344 1564.613281 -562.847656 1561.625 -582.351562 C 1558.636719 -601.855469 1555.988281 -621.40625 1553.683594 -641.003906 C 1551.378906 -660.597656 1549.421875 -680.230469 1547.804688 -699.894531 C 1546.1875 -719.558594 1544.914062 -739.246094 1543.984375 -758.957031 C 1543.058594 -778.664062 1542.476562 -798.386719 1542.238281 -818.113281 C 1542 -837.84375 1542.105469 -857.574219 1542.558594 -877.296875 C 1543.011719 -897.023438 1543.8125 -916.738281 1544.953125 -936.433594 C 1546.097656 -956.132812 1547.582031 -975.804688 1549.414062 -995.453125 C 1551.246094 -1015.097656 1553.421875 -1034.707031 1555.9375 -1054.277344 C 1558.457031 -1073.847656 1561.316406 -1093.367188 1564.515625 -1112.835938 C 1567.71875 -1132.304688 1571.257812 -1151.714844 1575.136719 -1171.058594 C 1579.019531 -1190.40625 1583.234375 -1209.679688 1587.789062 -1228.878906 C 1592.34375 -1248.074219 1597.234375 -1267.1875 1602.457031 -1286.214844 C 1607.679688 -1305.242188 1613.234375 -1324.171875 1619.121094 -1343.007812 C 1625.007812 -1361.839844 1631.222656 -1380.5625 1637.765625 -1399.179688 C 1874.855469 -2104.738281 2513.289062 -2584.632812 3343.105469 -2684.613281 C 3384.238281 -2689.441406 3425.453125 -2693.429688 3466.746094 -2696.578125 C 3508.042969 -2699.726562 3549.382812 -2702.03125 3590.773438 -2703.496094 C 3632.160156 -2704.957031 3673.5625 -2705.574219 3714.976562 -2705.351562 C 3756.390625 -2705.125 3797.78125 -2704.054688 3839.152344 -2702.140625 C 3880.523438 -2700.230469 3921.835938 -2697.472656 3963.09375 -2693.875 C 4004.351562 -2690.277344 4045.519531 -2685.84375 4086.597656 -2680.566406 C 4127.671875 -2675.289062 4168.625 -2669.179688 4209.453125 -2662.234375 C 4250.28125 -2655.289062 4290.949219 -2647.511719 4331.460938 -2638.90625 C 4327.101562 -2649.414062 4322.570312 -2659.84375 4317.867188 -2670.203125 C 4313.164062 -2680.558594 4308.285156 -2690.832031 4303.238281 -2701.027344 C 4298.195312 -2711.21875 4292.980469 -2721.328125 4287.597656 -2731.347656 C 4282.21875 -2741.371094 4276.671875 -2751.296875 4270.957031 -2761.136719 C 4265.246094 -2770.972656 4259.375 -2780.710938 4253.339844 -2790.351562 C 4247.304688 -2799.992188 4241.109375 -2809.53125 4234.757812 -2818.96875 C 4228.40625 -2828.40625 4221.902344 -2837.730469 4215.238281 -2846.953125 C 4208.578125 -2856.171875 4201.765625 -2865.277344 4194.800781 -2874.273438 C 4187.835938 -2883.265625 4180.726562 -2892.140625 4173.46875 -2900.898438 C 4166.207031 -2909.65625 4158.804688 -2918.289062 4151.261719 -2926.800781 C 4143.714844 -2935.3125 4136.03125 -2943.699219 4128.207031 -2951.953125 C 4120.382812 -2960.210938 4112.421875 -2968.335938 4104.328125 -2976.324219 C 4096.234375 -2984.316406 4088.011719 -2992.171875 4079.65625 -2999.890625 C 4071.300781 -3007.609375 4062.820312 -3015.1875 4054.214844 -3022.625 C 4045.609375 -3030.0625 4036.882812 -3037.355469 4028.035156 -3044.503906 C 4019.183594 -3051.652344 4010.222656 -3058.648438 4001.140625 -3065.5 C 3992.058594 -3072.347656 3982.867188 -3079.046875 3973.5625 -3085.589844 C 3964.261719 -3092.132812 3954.851562 -3098.523438 3945.335938 -3104.753906 C 3935.820312 -3110.988281 3926.203125 -3117.058594 3916.488281 -3122.972656 C 3906.769531 -3128.882812 3896.957031 -3134.632812 3887.050781 -3140.21875 C 3877.140625 -3145.808594 3867.144531 -3151.226562 3857.054688 -3156.480469 C 3846.964844 -3161.738281 3836.792969 -3166.824219 3826.535156 -3171.738281 C 3816.28125 -3176.65625 3805.945312 -3181.402344 3795.53125 -3185.976562 C 3785.113281 -3190.546875 3774.628906 -3194.949219 3764.066406 -3199.171875 C 3753.503906 -3203.398438 3742.878906 -3207.445312 3732.183594 -3211.320312 C 3721.488281 -3215.191406 3710.730469 -3218.886719 3699.914062 -3222.398438 C 3689.09375 -3225.914062 3678.222656 -3229.25 3667.292969 -3232.402344 C 3656.363281 -3235.558594 3645.386719 -3238.527344 3634.359375 -3241.316406 C 3623.332031 -3244.109375 3612.261719 -3246.714844 3601.148438 -3249.132812 C 3590.035156 -3251.554688 3578.882812 -3253.792969 3567.695312 -3255.84375 C 3556.507812 -3257.894531 3545.289062 -3259.761719 3534.039062 -3261.4375 C 3522.789062 -3263.117188 3511.515625 -3264.609375 3500.214844 -3265.914062 C 3474.710938 -3269.695312 3449.144531 -3273.03125 3423.523438 -3275.917969 C 3397.898438 -3278.808594 3372.234375 -3281.246094 3346.527344 -3283.238281 C 3320.820312 -3285.226562 3295.082031 -3286.765625 3269.320312 -3287.855469 C 3243.558594 -3288.945312 3217.785156 -3289.585938 3192.003906 -3289.773438 C 3166.21875 -3289.960938 3140.4375 -3289.699219 3114.664062 -3288.984375 C 3088.890625 -3288.269531 3063.136719 -3287.105469 3037.402344 -3285.492188 C 3011.667969 -3283.875 2985.96875 -3281.8125 2960.304688 -3279.296875 C 2934.644531 -3276.785156 2909.035156 -3273.824219 2883.476562 -3270.414062 C 2857.917969 -3267.003906 2832.425781 -3263.148438 2807.003906 -3258.847656 C 2781.578125 -3254.542969 2756.238281 -3249.800781 2730.980469 -3244.609375 C 2705.722656 -3239.421875 2680.5625 -3233.792969 2655.503906 -3227.726562 C 2630.441406 -3221.65625 2605.496094 -3215.152344 2580.664062 -3208.210938 C 2555.832031 -3201.269531 2531.125 -3193.898438 2506.550781 -3186.09375 C 2481.976562 -3178.285156 2457.546875 -3170.054688 2433.257812 -3161.394531 C 2408.96875 -3152.734375 2384.84375 -3143.652344 2360.875 -3134.148438 C 2336.902344 -3124.644531 2313.109375 -3114.722656 2289.484375 -3104.386719 C 2265.863281 -3094.050781 2242.429688 -3083.304688 2219.183594 -3072.148438 C 2195.9375 -3060.988281 2172.890625 -3049.429688 2150.050781 -3037.46875 C 2127.207031 -3025.503906 2104.582031 -3013.144531 2082.171875 -3000.390625 C 2059.765625 -2987.636719 2037.585938 -2974.496094 2015.632812 -2960.964844 C 1993.683594 -2947.433594 1971.976562 -2933.523438 1950.515625 -2919.234375 C 1929.050781 -2904.945312 1907.84375 -2890.285156 1886.894531 -2875.253906 C 1865.945312 -2860.222656 1845.265625 -2844.828125 1824.851562 -2829.074219 C 1804.441406 -2813.320312 1784.3125 -2797.210938 1764.460938 -2780.753906 C 1744.613281 -2764.292969 1725.058594 -2747.492188 1705.800781 -2730.347656 C 1686.539062 -2713.203125 1667.585938 -2695.730469 1648.9375 -2677.921875 C 1630.285156 -2660.117188 1611.953125 -2641.988281 1593.941406 -2623.542969 C 1575.925781 -2605.09375 1558.238281 -2586.335938 1540.878906 -2567.269531 C 1523.519531 -2548.203125 1506.5 -2528.839844 1489.820312 -2509.175781 C 1473.140625 -2489.515625 1456.808594 -2469.566406 1440.824219 -2449.332031 C 1424.839844 -2429.101562 1409.214844 -2408.59375 1393.949219 -2387.8125 C 1378.683594 -2367.03125 1363.785156 -2345.992188 1349.257812 -2324.691406 C 607.988281 -1246.355469 789.378906 428.992188 1847.71875 2272.875 Z M 3703.027344 -1337.765625 C 3635.699219 -1337.457031 3568.574219 -1333.648438 3501.644531 -1326.335938 C 3195.996094 -1290.632812 2990.324219 -1157.804688 2921.769531 -956.417969 C 2918.976562 -949.3125 2916.417969 -942.125 2914.097656 -934.851562 C 2911.773438 -927.578125 2909.695312 -920.234375 2907.855469 -912.824219 C 2906.019531 -905.414062 2904.425781 -897.953125 2903.078125 -890.4375 C 2901.730469 -882.921875 2900.632812 -875.371094 2899.785156 -867.78125 C 2898.933594 -860.195312 2898.335938 -852.585938 2897.988281 -844.960938 C 2897.636719 -837.332031 2897.539062 -829.703125 2897.691406 -822.070312 C 2897.847656 -814.4375 2898.25 -806.816406 2898.90625 -799.210938 C 2899.5625 -791.601562 2900.464844 -784.027344 2901.621094 -776.476562 C 2902.773438 -768.929688 2904.175781 -761.429688 2905.820312 -753.976562 C 2907.46875 -746.519531 2909.359375 -739.125 2911.496094 -731.796875 C 2913.628906 -724.464844 2916.003906 -717.214844 2918.617188 -710.039062 C 2921.226562 -702.863281 2924.070312 -695.785156 2927.148438 -688.796875 C 2930.226562 -681.808594 2933.53125 -674.929688 2937.0625 -668.160156 C 2940.59375 -661.390625 2944.34375 -654.746094 2948.3125 -648.222656 C 2952.28125 -641.703125 2956.457031 -635.316406 2960.847656 -629.070312 C 2965.234375 -622.820312 2969.824219 -616.726562 2974.617188 -610.78125 C 3057.453125 -530.796875 3243.128906 -535.082031 3473.078125 -620.777344 C 3492.824219 -627.972656 3512.410156 -635.59375 3531.824219 -643.640625 C 3551.242188 -651.6875 3570.476562 -660.148438 3589.527344 -669.027344 C 3608.578125 -677.910156 3627.425781 -687.195312 3646.074219 -696.894531 C 3664.71875 -706.59375 3683.148438 -716.6875 3701.359375 -727.1875 C 3719.566406 -737.683594 3737.539062 -748.570312 3755.277344 -759.847656 C 3773.015625 -771.121094 3790.5 -782.777344 3807.730469 -794.8125 C 3824.960938 -806.847656 3841.925781 -819.25 3858.617188 -832.019531 C 3875.3125 -844.792969 3891.71875 -857.917969 3907.84375 -871.402344 C 3923.96875 -884.882812 3939.792969 -898.707031 3955.316406 -912.878906 C 3970.839844 -927.046875 3986.050781 -941.542969 4000.945312 -956.371094 C 4015.84375 -971.203125 4030.410156 -986.34375 4044.648438 -1001.804688 C 4058.886719 -1017.265625 4072.785156 -1033.027344 4086.339844 -1049.089844 C 4099.894531 -1065.15625 4113.09375 -1081.503906 4125.941406 -1098.140625 C 4138.785156 -1114.773438 4151.265625 -1131.679688 4163.378906 -1148.859375 C 4175.492188 -1166.035156 4187.226562 -1183.46875 4198.582031 -1201.152344 C 4209.9375 -1218.839844 4220.90625 -1236.761719 4231.484375 -1254.925781 C 4188.882812 -1268.59375 4145.8125 -1280.59375 4102.28125 -1290.925781 C 4058.75 -1301.257812 4014.882812 -1309.890625 3970.683594 -1316.824219 C 3926.480469 -1323.757812 3882.078125 -1328.972656 3837.476562 -1332.46875 C 3792.871094 -1335.964844 3748.199219 -1337.730469 3703.457031 -1337.765625 Z M 3703.027344 -1337.765625 " fill-opacity="1" fill-rule="nonzero"/><g fill="#191919" fill-opacity="1"><g transform="translate(1119.46648, 110.359675)"><g><path d="M 18.046875 1.859375 C 16.898438 2.066406 15.785156 2.171875 14.703125 2.171875 C 10.359375 2.171875 7.019531 0.644531 4.6875 -2.40625 C 2.75 -4.914062 1.78125 -8.109375 1.78125 -11.984375 C 1.78125 -16.566406 3.382812 -20.28125 6.59375 -23.125 C 9.125 -25.375 12.140625 -26.5 15.640625 -26.5 C 20.035156 -26.5 23.515625 -25.15625 26.078125 -22.46875 C 28.347656 -20.0625 29.484375 -16.957031 29.484375 -13.15625 C 29.484375 -10.539062 28.914062 -8.367188 27.78125 -6.640625 C 26.59375 -4.828125 24.945312 -3.921875 22.84375 -3.921875 C 21.394531 -3.921875 20.296875 -4.359375 19.546875 -5.234375 C 18.441406 -4.378906 17.113281 -3.953125 15.5625 -3.953125 C 13.207031 -3.953125 11.410156 -4.742188 10.171875 -6.328125 C 9.128906 -7.640625 8.609375 -9.34375 8.609375 -11.4375 C 8.609375 -14.050781 9.375 -16.082031 10.90625 -17.53125 C 12.144531 -18.675781 13.734375 -19.285156 15.671875 -19.359375 C 16.859375 -19.359375 18.007812 -19.046875 19.125 -18.421875 L 20.90625 -19.859375 L 21.875 -19.859375 L 21.875 -7.5625 C 21.875 -7 22.367188 -6.71875 23.359375 -6.71875 C 24.367188 -6.71875 25.179688 -7.257812 25.796875 -8.34375 C 26.421875 -9.425781 26.734375 -10.859375 26.734375 -12.640625 C 26.734375 -16.316406 25.609375 -19.164062 23.359375 -21.1875 C 21.421875 -22.945312 18.847656 -23.828125 15.640625 -23.828125 C 12.660156 -23.828125 10.109375 -22.773438 7.984375 -20.671875 C 5.691406 -18.398438 4.546875 -15.53125 4.546875 -12.0625 C 4.546875 -8.132812 5.679688 -5.109375 7.953125 -2.984375 C 9.972656 -1.097656 12.675781 -0.15625 16.0625 -0.15625 C 17.019531 -0.15625 18.015625 -0.234375 19.046875 -0.390625 L 19.046875 0.625 Z M 19.09375 -16.375 C 18.101562 -16.738281 17.179688 -16.921875 16.328125 -16.921875 C 14.859375 -16.921875 13.671875 -16.425781 12.765625 -15.4375 C 11.859375 -14.457031 11.40625 -13.164062 11.40625 -11.5625 C 11.40625 -9.9375 11.816406 -8.65625 12.640625 -7.71875 C 13.472656 -6.789062 14.613281 -6.328125 16.0625 -6.328125 C 17.226562 -6.328125 18.238281 -6.660156 19.09375 -7.328125 Z M 19.09375 -16.375 "/></g></g></g><g fill="#191919" fill-opacity="1"><g transform="translate(1149.450062, 110.359675)"><g><path d="M 2.671875 -27.78125 L 5.8125 -27.78125 L 5.8125 -17.140625 C 6.769531 -18.335938 7.726562 -19.175781 8.6875 -19.65625 C 9.644531 -20.132812 10.835938 -20.375 12.265625 -20.375 C 14.203125 -20.375 15.722656 -19.882812 16.828125 -18.90625 C 17.941406 -17.9375 18.5 -16.613281 18.5 -14.9375 L 18.5 0 L 15.359375 0 L 15.359375 -13.65625 C 15.359375 -15.050781 14.929688 -16.070312 14.078125 -16.71875 C 13.273438 -17.3125 12.332031 -17.609375 11.25 -17.609375 C 9.625 -17.609375 8.3125 -17 7.3125 -15.78125 C 6.3125 -14.570312 5.8125 -12.957031 5.8125 -10.9375 L 5.8125 0 L 2.671875 0 Z M 2.671875 -27.78125 "/></g></g></g><g fill="#191919" fill-opacity="1"><g transform="translate(1169.464898, 110.359675)"><g><path d="M 18.34375 0 L 15.203125 0 L 15.203125 -3.140625 C 13.785156 -0.765625 11.664062 0.421875 8.84375 0.421875 C 6.90625 0.421875 5.359375 -0.0625 4.203125 -1.03125 C 3.054688 -2 2.484375 -3.296875 2.484375 -4.921875 L 2.484375 -19.9375 L 5.625 -19.9375 L 5.625 -6.203125 C 5.625 -5.046875 6 -4.113281 6.75 -3.40625 C 7.5 -2.707031 8.507812 -2.359375 9.78125 -2.359375 C 11.4375 -2.359375 12.753906 -2.957031 13.734375 -4.15625 C 14.710938 -5.363281 15.203125 -6.992188 15.203125 -9.046875 L 15.203125 -19.9375 L 18.34375 -19.9375 Z M 18.34375 0 "/></g></g></g><g fill="#191919" fill-opacity="1"><g transform="translate(1189.479735, 110.359675)"><g><path d="M 15.671875 -19.9375 L 18.625 -19.9375 L 18.625 -3.265625 C 18.625 1.054688 17.925781 4.054688 16.53125 5.734375 C 15.132812 7.441406 12.84375 8.296875 9.65625 8.296875 C 7.175781 8.296875 5.238281 7.703125 3.84375 6.515625 C 2.601562 5.453125 1.90625 4.039062 1.75 2.28125 L 5 2.28125 C 5.15625 3.320312 5.546875 4.085938 6.171875 4.578125 C 7.078125 5.273438 8.289062 5.625 9.8125 5.625 C 11.882812 5.625 13.359375 5.003906 14.234375 3.765625 C 14.984375 2.703125 15.359375 0.890625 15.359375 -1.671875 L 15.359375 -2.953125 C 13.703125 -0.703125 11.710938 0.421875 9.390625 0.421875 C 7.109375 0.421875 5.179688 -0.429688 3.609375 -2.140625 C 1.929688 -3.972656 1.09375 -6.476562 1.09375 -9.65625 C 1.09375 -13.070312 1.96875 -15.789062 3.71875 -17.8125 C 5.269531 -19.519531 7.222656 -20.375 9.578125 -20.375 C 12.117188 -20.375 14.148438 -19.234375 15.671875 -16.953125 Z M 9.9375 -17.453125 C 8.226562 -17.453125 6.875 -16.773438 5.875 -15.421875 C 4.882812 -14.066406 4.390625 -12.210938 4.390625 -9.859375 C 4.390625 -7.398438 4.957031 -5.523438 6.09375 -4.234375 C 7.050781 -3.085938 8.34375 -2.515625 9.96875 -2.515625 C 11.675781 -2.515625 13 -3.160156 13.9375 -4.453125 C 14.882812 -5.753906 15.359375 -7.554688 15.359375 -9.859375 C 15.359375 -12.390625 14.816406 -14.328125 13.734375 -15.671875 C 12.773438 -16.859375 11.507812 -17.453125 9.9375 -17.453125 Z M 9.9375 -17.453125 "/></g></g></g><g fill="#191919" fill-opacity="1"><g transform="translate(1209.494572, 110.359675)"><g><path d="M 10.46875 -20.375 C 13.46875 -20.375 15.757812 -19.320312 17.34375 -17.21875 C 18.738281 -15.414062 19.4375 -12.960938 19.4375 -9.859375 C 19.4375 -6.390625 18.53125 -3.75 16.71875 -1.9375 C 15.164062 -0.363281 13.070312 0.421875 10.4375 0.421875 C 7.382812 0.421875 5.054688 -0.597656 3.453125 -2.640625 C 2.054688 -4.421875 1.359375 -6.828125 1.359375 -9.859375 C 1.359375 -13.367188 2.273438 -16.070312 4.109375 -17.96875 C 5.691406 -19.570312 7.8125 -20.375 10.46875 -20.375 Z M 10.46875 -17.453125 C 8.664062 -17.453125 7.242188 -16.773438 6.203125 -15.421875 C 5.171875 -14.066406 4.65625 -12.210938 4.65625 -9.859375 C 4.65625 -7.398438 5.238281 -5.523438 6.40625 -4.234375 C 7.414062 -3.085938 8.757812 -2.515625 10.4375 -2.515625 C 12.21875 -2.515625 13.601562 -3.160156 14.59375 -4.453125 C 15.59375 -5.753906 16.09375 -7.554688 16.09375 -9.859375 C 16.09375 -12.390625 15.523438 -14.328125 14.390625 -15.671875 C 13.410156 -16.859375 12.101562 -17.453125 10.46875 -17.453125 Z M 10.46875 -17.453125 "/></g></g></g><g fill="#191919" fill-opacity="1"><g transform="translate(1229.509404, 110.359675)"><g><path d="M 15.015625 3.296875 L 15.015625 5.78125 L -0.15625 5.78125 L -0.15625 3.296875 Z M 15.015625 3.296875 "/></g></g></g><g fill="#191919" fill-opacity="1"><g transform="translate(1243.240434, 110.359675)"><g><path d="M 2.671875 -27.78125 L 5.8125 -27.78125 L 5.8125 -17.140625 C 6.769531 -18.335938 7.726562 -19.175781 8.6875 -19.65625 C 9.644531 -20.132812 10.835938 -20.375 12.265625 -20.375 C 14.203125 -20.375 15.722656 -19.882812 16.828125 -18.90625 C 17.941406 -17.9375 18.5 -16.613281 18.5 -14.9375 L 18.5 0 L 15.359375 0 L 15.359375 -13.65625 C 15.359375 -15.050781 14.929688 -16.070312 14.078125 -16.71875 C 13.273438 -17.3125 12.332031 -17.609375 11.25 -17.609375 C 9.625 -17.609375 8.3125 -17 7.3125 -15.78125 C 6.3125 -14.570312 5.8125 -12.957031 5.8125 -10.9375 L 5.8125 0 L 2.671875 0 Z M 2.671875 -27.78125 "/></g></g></g><g fill="#191919" fill-opacity="1"><g transform="translate(1263.255274, 110.359675)"><g><path d="M 19.515625 -9.046875 L 4.8125 -9.046875 C 4.832031 -7.335938 5.191406 -5.976562 5.890625 -4.96875 C 7.003906 -3.332031 8.609375 -2.515625 10.703125 -2.515625 C 13.296875 -2.515625 15.046875 -3.742188 15.953125 -6.203125 L 19.125 -6.203125 C 18.707031 -4.109375 17.75 -2.476562 16.25 -1.3125 C 14.75 -0.15625 12.863281 0.421875 10.59375 0.421875 C 7.5625 0.421875 5.242188 -0.609375 3.640625 -2.671875 C 2.222656 -4.484375 1.515625 -6.878906 1.515625 -9.859375 C 1.515625 -13.296875 2.445312 -15.972656 4.3125 -17.890625 C 5.9375 -19.546875 8.039062 -20.375 10.625 -20.375 C 12.519531 -20.375 14.179688 -19.921875 15.609375 -19.015625 C 17.046875 -18.109375 18.078125 -16.863281 18.703125 -15.28125 C 19.242188 -13.9375 19.515625 -11.894531 19.515625 -9.15625 Z M 16.09375 -11.640625 C 16.09375 -13.367188 15.582031 -14.769531 14.5625 -15.84375 C 13.539062 -16.914062 12.226562 -17.453125 10.625 -17.453125 C 9 -17.453125 7.675781 -16.925781 6.65625 -15.875 C 5.632812 -14.832031 5.054688 -13.421875 4.921875 -11.640625 Z M 16.09375 -11.640625 "/></g></g></g><g fill="#191919" fill-opacity="1"><g transform="translate(1283.270106, 110.359675)"><g><path d="M 2.671875 -19.9375 L 5.625 -19.9375 L 5.625 -16.5625 C 7.226562 -19.101562 9.425781 -20.375 12.21875 -20.375 C 14.15625 -20.375 15.691406 -19.882812 16.828125 -18.90625 C 17.972656 -17.9375 18.546875 -16.640625 18.546875 -15.015625 L 18.546875 0 L 15.40625 0 L 15.40625 -13.734375 C 15.40625 -14.921875 15.035156 -15.863281 14.296875 -16.5625 C 13.554688 -17.257812 12.554688 -17.609375 11.296875 -17.609375 C 9.640625 -17.609375 8.316406 -17 7.328125 -15.78125 C 6.347656 -14.570312 5.859375 -12.957031 5.859375 -10.9375 L 5.859375 0 L 2.671875 0 Z M 2.671875 -19.9375 "/></g></g></g><g fill="#191919" fill-opacity="1"><g transform="translate(1303.284938, 110.359675)"><g><path d="M 18.890625 -27.78125 L 18.890625 0 L 15.71875 0 L 15.71875 -2.75 C 14.445312 -0.601562 12.476562 0.46875 9.8125 0.46875 C 6.894531 0.46875 4.644531 -0.59375 3.0625 -2.71875 C 1.695312 -4.582031 1.015625 -7.039062 1.015625 -10.09375 C 1.015625 -13.425781 1.90625 -16.035156 3.6875 -17.921875 C 5.207031 -19.554688 7.1875 -20.375 9.625 -20.375 C 12.3125 -20.375 14.34375 -19.363281 15.71875 -17.34375 L 15.71875 -27.78125 Z M 10.171875 -17.421875 C 8.410156 -17.421875 6.992188 -16.726562 5.921875 -15.34375 C 4.847656 -13.957031 4.3125 -12.128906 4.3125 -9.859375 C 4.3125 -7.503906 4.929688 -5.65625 6.171875 -4.3125 C 7.234375 -3.113281 8.578125 -2.515625 10.203125 -2.515625 C 11.878906 -2.515625 13.21875 -3.175781 14.21875 -4.5 C 15.21875 -5.820312 15.71875 -7.609375 15.71875 -9.859375 C 15.71875 -12.316406 15.144531 -14.226562 14 -15.59375 C 13 -16.8125 11.722656 -17.421875 10.171875 -17.421875 Z M 10.171875 -17.421875 "/></g></g></g><g fill="#191919" fill-opacity="1"><g transform="translate(1323.29977, 110.359675)"><g><path d="M 2.640625 -19.9375 L 5.59375 -19.9375 L 5.59375 -16.296875 C 6.75 -19.035156 8.582031 -20.40625 11.09375 -20.40625 C 11.40625 -20.40625 11.78125 -20.367188 12.21875 -20.296875 L 12.21875 -17.03125 C 10.15625 -17.007812 8.734375 -16.710938 7.953125 -16.140625 C 6.523438 -15.109375 5.8125 -13.179688 5.8125 -10.359375 L 5.8125 0 L 2.640625 0 Z M 2.640625 -19.9375 "/></g></g></g><g fill="#191919" fill-opacity="1"><g transform="translate(1334.81983, 110.359675)"><g><path d="M 5.671875 -19.9375 L 5.671875 0 L 2.515625 0 L 2.515625 -19.9375 Z M 4.15625 -27.734375 C 4.695312 -27.734375 5.15625 -27.546875 5.53125 -27.171875 C 5.90625 -26.796875 6.09375 -26.351562 6.09375 -25.84375 C 6.09375 -25.300781 5.90625 -24.84375 5.53125 -24.46875 C 5.15625 -24.09375 4.695312 -23.90625 4.15625 -23.90625 C 3.632812 -23.90625 3.1875 -24.09375 2.8125 -24.46875 C 2.4375 -24.84375 2.25 -25.300781 2.25 -25.84375 C 2.25 -26.351562 2.4375 -26.796875 2.8125 -27.171875 C 3.1875 -27.546875 3.632812 -27.734375 4.15625 -27.734375 Z M 4.15625 -27.734375 "/></g></g></g><g fill="#191919" fill-opacity="1"><g transform="translate(1342.111896, 110.359675)"><g><path d="M 11.140625 -10.3125 L 18.046875 0 L 14.359375 0 L 9.34375 -7.6875 L 4.265625 0 L 0.65625 0 L 7.71875 -10.171875 L 1.015625 -19.9375 L 4.65625 -19.9375 L 9.46875 -12.71875 L 14.28125 -19.9375 L 17.84375 -19.9375 Z M 11.140625 -10.3125 "/></g></g></g><g fill="#191919" fill-opacity="1"><g transform="translate(109.489743, 178.679862)"><g><path d="M 59.234375 -63.203125 L 38.671875 0 L 19.6875 0 L -0.359375 -63.203125 L 16.953125 -63.203125 L 22.6875 -44.84375 C 25.925781 -34.539062 28.160156 -25.007812 29.390625 -16.25 C 30.742188 -25.070312 33.007812 -34.578125 36.1875 -44.765625 L 41.9375 -63.203125 Z M 59.234375 -63.203125 "/></g></g></g><g fill="#191919" fill-opacity="1"><g transform="translate(165.715423, 178.679862)"><g><path d="M 49.34375 0 L 34.078125 0 C 33.609375 -1.46875 33.34375 -2.910156 33.28125 -4.328125 C 30.457031 -0.617188 25.457031 1.234375 18.28125 1.234375 C 12.914062 1.234375 8.796875 -0.175781 5.921875 -3 C 3.390625 -5.46875 2.125 -8.734375 2.125 -12.796875 C 2.125 -18.390625 4.59375 -22.332031 9.53125 -24.625 C 11.65625 -25.570312 16.007812 -26.660156 22.59375 -27.890625 L 33.015625 -29.84375 L 33.015625 -32.578125 C 32.898438 -35.929688 30.578125 -37.609375 26.046875 -37.609375 C 23.566406 -37.609375 21.753906 -37.179688 20.609375 -36.328125 C 19.460938 -35.472656 18.710938 -33.957031 18.359375 -31.78125 L 4.15625 -31.78125 C 4.675781 -41.957031 12.03125 -47.046875 26.21875 -47.046875 C 33.75 -47.046875 39.398438 -45.695312 43.171875 -43 C 44.929688 -41.644531 46.132812 -40.128906 46.78125 -38.453125 C 47.4375 -36.773438 47.765625 -34.226562 47.765625 -30.8125 C 47.765625 -30.21875 47.734375 -28.394531 47.671875 -25.34375 L 47.671875 -24.359375 L 47.578125 -16.765625 C 47.578125 -14.710938 47.578125 -13.332031 47.578125 -12.625 C 47.578125 -11.914062 47.550781 -10.796875 47.5 -9.265625 C 47.5 -8.441406 47.5 -7.796875 47.5 -7.328125 C 47.5 -4.035156 48.113281 -1.59375 49.34375 0 Z M 33.1875 -20.921875 L 26.3125 -19.421875 C 22.71875 -18.597656 20.332031 -17.773438 19.15625 -16.953125 C 17.976562 -16.128906 17.390625 -14.890625 17.390625 -13.234375 C 17.390625 -9.648438 19.421875 -7.859375 23.484375 -7.859375 C 26.898438 -7.859375 29.546875 -9.0625 31.421875 -11.46875 C 32.484375 -12.769531 33.046875 -14.832031 33.109375 -17.65625 Z M 33.1875 -20.921875 "/></g></g></g><g fill="#191919" fill-opacity="1"><g transform="translate(214.879732, 178.679862)"><g><path d="M 19.6875 -45.8125 L 19.6875 -39.71875 C 23.101562 -44.601562 27.8125 -47.046875 33.8125 -47.046875 C 39.875 -47.046875 44.171875 -44.601562 46.703125 -39.71875 C 50.410156 -44.601562 55.265625 -47.046875 61.265625 -47.046875 C 66.566406 -47.046875 70.65625 -45.398438 73.53125 -42.109375 C 76.007812 -39.171875 77.25 -35.285156 77.25 -30.453125 L 77.25 0 L 62.234375 0 L 62.234375 -26.578125 C 62.234375 -32.046875 60.113281 -34.78125 55.875 -34.78125 C 53 -34.78125 50.941406 -33.601562 49.703125 -31.25 C 49.054688 -30.007812 48.734375 -27.976562 48.734375 -25.15625 L 48.734375 0 L 33.71875 0 L 33.71875 -27.1875 C 33.71875 -32.25 31.6875 -34.78125 27.625 -34.78125 C 22.6875 -34.78125 20.21875 -31.570312 20.21875 -25.15625 L 20.21875 0 L 5.203125 0 L 5.203125 -45.8125 Z M 19.6875 -45.8125 "/></g></g></g><g fill="#191919" fill-opacity="1"><g transform="translate(294.23136, 178.679862)"><g><path d="M 26.84375 1.234375 C 19.125 1.234375 13 -1.296875 8.46875 -6.359375 C 4.53125 -10.773438 2.5625 -16.304688 2.5625 -22.953125 C 2.5625 -30.597656 5.09375 -36.691406 10.15625 -41.234375 C 14.5625 -45.109375 20.09375 -47.046875 26.75 -47.046875 C 34.519531 -47.046875 40.671875 -44.546875 45.203125 -39.546875 C 49.085938 -35.253906 51.03125 -29.753906 51.03125 -23.046875 C 51.03125 -15.328125 48.5 -9.203125 43.4375 -4.671875 C 39.019531 -0.734375 33.488281 1.234375 26.84375 1.234375 Z M 26.65625 -36.109375 C 23.832031 -36.109375 21.65625 -34.957031 20.125 -32.65625 C 18.59375 -30.363281 17.828125 -27.128906 17.828125 -22.953125 C 17.828125 -14.117188 20.832031 -9.703125 26.84375 -9.703125 C 32.84375 -9.703125 35.84375 -14.148438 35.84375 -23.046875 C 35.84375 -31.753906 32.78125 -36.109375 26.65625 -36.109375 Z M 26.65625 -36.109375 "/></g></g></g><g fill="#191919" fill-opacity="1"><g transform="translate(345.161019, 178.679862)"><g><path d="M 44.5 -32.921875 L 30.640625 -32.921875 C 30.398438 -34.691406 29.707031 -35.941406 28.5625 -36.671875 C 27.414062 -37.410156 25.546875 -37.78125 22.953125 -37.78125 C 18.953125 -37.78125 16.953125 -36.546875 16.953125 -34.078125 C 16.953125 -32.785156 17.582031 -31.84375 18.84375 -31.25 C 20.113281 -30.664062 23.039062 -29.929688 27.625 -29.046875 C 34.28125 -27.753906 38.945312 -26.03125 41.625 -23.875 C 44.300781 -21.726562 45.640625 -18.625 45.640625 -14.5625 C 45.640625 -9.269531 43.429688 -5.210938 39.015625 -2.390625 C 35.128906 0.0234375 29.984375 1.234375 23.578125 1.234375 C 15.453125 1.234375 9.445312 -0.675781 5.5625 -4.5 C 3.675781 -6.382812 2.453125 -7.867188 1.890625 -8.953125 C 1.335938 -10.046875 0.972656 -11.828125 0.796875 -14.296875 L 15.53125 -14.296875 C 15.769531 -12.179688 16.492188 -10.695312 17.703125 -9.84375 C 18.910156 -8.988281 20.925781 -8.5625 23.75 -8.5625 C 28.457031 -8.5625 30.8125 -10.117188 30.8125 -13.234375 C 30.8125 -14.585938 30.25 -15.570312 29.125 -16.1875 C 28.007812 -16.8125 25.363281 -17.59375 21.1875 -18.53125 C 14.65625 -19.945312 10.210938 -21.300781 7.859375 -22.59375 C 4.085938 -24.71875 2.203125 -28.132812 2.203125 -32.84375 C 2.203125 -37.425781 4.023438 -40.9375 7.671875 -43.375 C 11.328125 -45.820312 16.507812 -47.046875 23.21875 -47.046875 C 31.519531 -47.046875 37.4375 -45.078125 40.96875 -41.140625 C 43.082031 -38.847656 44.257812 -36.109375 44.5 -32.921875 Z M 44.5 -32.921875 "/></g></g></g><g fill="#191919" fill-opacity="1"><g transform="translate(390.618107, 178.679862)"><g/></g></g><g fill="#191919" fill-opacity="1"><g transform="translate(404.210773, 178.679862)"><g><path d="M 49.703125 -18.015625 C 48.816406 -11.472656 46.109375 -6.523438 41.578125 -3.171875 C 37.640625 -0.234375 32.695312 1.234375 26.75 1.234375 C 18.976562 1.234375 12.859375 -1.234375 8.390625 -6.171875 C 4.503906 -10.472656 2.5625 -15.921875 2.5625 -22.515625 C 2.5625 -30.453125 5.0625 -36.660156 10.0625 -41.140625 C 14.476562 -45.078125 20.070312 -47.046875 26.84375 -47.046875 C 33.726562 -47.046875 39.226562 -45.222656 43.34375 -41.578125 C 46.988281 -38.335938 48.988281 -34.21875 49.34375 -29.21875 L 34.78125 -29.21875 C 34.019531 -33.8125 31.460938 -36.109375 27.109375 -36.109375 C 20.921875 -36.109375 17.828125 -31.601562 17.828125 -22.59375 C 17.828125 -14.175781 20.832031 -9.96875 26.84375 -9.96875 C 31.601562 -9.96875 34.394531 -12.648438 35.21875 -18.015625 Z M 49.703125 -18.015625 "/></g></g></g><g fill="#191919" fill-opacity="1"><g transform="translate(453.463337, 178.679862)"><g><path d="M 26.84375 1.234375 C 19.125 1.234375 13 -1.296875 8.46875 -6.359375 C 4.53125 -10.773438 2.5625 -16.304688 2.5625 -22.953125 C 2.5625 -30.597656 5.09375 -36.691406 10.15625 -41.234375 C 14.5625 -45.109375 20.09375 -47.046875 26.75 -47.046875 C 34.519531 -47.046875 40.671875 -44.546875 45.203125 -39.546875 C 49.085938 -35.253906 51.03125 -29.753906 51.03125 -23.046875 C 51.03125 -15.328125 48.5 -9.203125 43.4375 -4.671875 C 39.019531 -0.734375 33.488281 1.234375 26.84375 1.234375 Z M 26.65625 -36.109375 C 23.832031 -36.109375 21.65625 -34.957031 20.125 -32.65625 C 18.59375 -30.363281 17.828125 -27.128906 17.828125 -22.953125 C 17.828125 -14.117188 20.832031 -9.703125 26.84375 -9.703125 C 32.84375 -9.703125 35.84375 -14.148438 35.84375 -23.046875 C 35.84375 -31.753906 32.78125 -36.109375 26.65625 -36.109375 Z M 26.65625 -36.109375 "/></g></g></g><g fill="#191919" fill-opacity="1"><g transform="translate(504.392984, 178.679862)"><g><path d="M 19.6875 -45.8125 L 19.6875 -39.71875 C 23.332031 -44.601562 28.332031 -47.046875 34.6875 -47.046875 C 40.8125 -47.046875 45.285156 -45.019531 48.109375 -40.96875 C 49.929688 -38.257812 50.84375 -34.078125 50.84375 -28.421875 L 50.84375 0 L 35.75 0 L 35.75 -25.953125 C 35.75 -28.367188 35.515625 -30.164062 35.046875 -31.34375 C 34.109375 -33.632812 32.019531 -34.78125 28.78125 -34.78125 C 25.25 -34.78125 22.773438 -33.425781 21.359375 -30.71875 C 20.597656 -29.3125 20.21875 -27.222656 20.21875 -24.453125 L 20.21875 0 L 5.203125 0 L 5.203125 -45.8125 Z M 19.6875 -45.8125 "/></g></g></g><g fill="#191919" fill-opacity="1"><g transform="translate(557.35278, 178.679862)"><g><path d="M 47.5 -45.8125 L 32.3125 0 L 14.828125 0 L -0.703125 -45.8125 L 15.1875 -45.8125 L 19.859375 -29.921875 C 21.628906 -24.160156 22.894531 -18.660156 23.65625 -13.421875 C 24.300781 -17.597656 25.535156 -22.863281 27.359375 -29.21875 L 32.3125 -45.8125 Z M 47.5 -45.8125 "/></g></g></g><g fill="#191919" fill-opacity="1"><g transform="translate(601.485881, 178.679862)"><g><path d="M 50.5 -14.03125 C 49.789062 -11.320312 48.4375 -8.820312 46.4375 -6.53125 C 41.90625 -1.351562 35.632812 1.234375 27.625 1.234375 C 20.382812 1.234375 14.53125 -0.765625 10.0625 -4.765625 C 5.0625 -9.234375 2.5625 -15.148438 2.5625 -22.515625 C 2.5625 -30.222656 5.148438 -36.398438 10.328125 -41.046875 C 14.796875 -45.046875 20.359375 -47.046875 27.015625 -47.046875 C 35.078125 -47.046875 41.285156 -44.398438 45.640625 -39.109375 C 49.460938 -34.460938 51.375 -28.367188 51.375 -20.828125 C 51.375 -20.304688 51.375 -19.835938 51.375 -19.421875 L 17.296875 -19.421875 C 17.421875 -16.128906 18.394531 -13.554688 20.21875 -11.703125 C 22.039062 -9.847656 24.507812 -8.921875 27.625 -8.921875 C 31.457031 -8.921875 34.375 -10.625 36.375 -14.03125 Z M 36.640625 -27.984375 C 35.867188 -33.929688 32.71875 -36.90625 27.1875 -36.90625 C 21.59375 -36.90625 18.359375 -33.929688 17.484375 -27.984375 Z M 36.640625 -27.984375 "/></g></g></g><g fill="#191919" fill-opacity="1"><g transform="translate(652.680329, 178.679862)"><g><path d="M 37.953125 -46.078125 L 37.875 -33.71875 C 35.695312 -34.363281 33.632812 -34.6875 31.6875 -34.6875 C 24.039062 -34.6875 20.21875 -29.773438 20.21875 -19.953125 L 20.21875 0 L 5.203125 0 L 5.203125 -45.8125 L 19.6875 -45.8125 L 19.6875 -37.953125 C 21.445312 -44.015625 26.359375 -47.046875 34.421875 -47.046875 C 35.367188 -47.046875 36.546875 -46.722656 37.953125 -46.078125 Z M 37.953125 -46.078125 "/></g></g></g><g fill="#191919" fill-opacity="1"><g transform="translate(688.781094, 178.679862)"><g><path d="M 44.5 -32.921875 L 30.640625 -32.921875 C 30.398438 -34.691406 29.707031 -35.941406 28.5625 -36.671875 C 27.414062 -37.410156 25.546875 -37.78125 22.953125 -37.78125 C 18.953125 -37.78125 16.953125 -36.546875 16.953125 -34.078125 C 16.953125 -32.785156 17.582031 -31.84375 18.84375 -31.25 C 20.113281 -30.664062 23.039062 -29.929688 27.625 -29.046875 C 34.28125 -27.753906 38.945312 -26.03125 41.625 -23.875 C 44.300781 -21.726562 45.640625 -18.625 45.640625 -14.5625 C 45.640625 -9.269531 43.429688 -5.210938 39.015625 -2.390625 C 35.128906 0.0234375 29.984375 1.234375 23.578125 1.234375 C 15.453125 1.234375 9.445312 -0.675781 5.5625 -4.5 C 3.675781 -6.382812 2.453125 -7.867188 1.890625 -8.953125 C 1.335938 -10.046875 0.972656 -11.828125 0.796875 -14.296875 L 15.53125 -14.296875 C 15.769531 -12.179688 16.492188 -10.695312 17.703125 -9.84375 C 18.910156 -8.988281 20.925781 -8.5625 23.75 -8.5625 C 28.457031 -8.5625 30.8125 -10.117188 30.8125 -13.234375 C 30.8125 -14.585938 30.25 -15.570312 29.125 -16.1875 C 28.007812 -16.8125 25.363281 -17.59375 21.1875 -18.53125 C 14.65625 -19.945312 10.210938 -21.300781 7.859375 -22.59375 C 4.085938 -24.71875 2.203125 -28.132812 2.203125 -32.84375 C 2.203125 -37.425781 4.023438 -40.9375 7.671875 -43.375 C 11.328125 -45.820312 16.507812 -47.046875 23.21875 -47.046875 C 31.519531 -47.046875 37.4375 -45.078125 40.96875 -41.140625 C 43.082031 -38.847656 44.257812 -36.109375 44.5 -32.921875 Z M 44.5 -32.921875 "/></g></g></g><g fill="#191919" fill-opacity="1"><g transform="translate(734.238159, 178.679862)"><g><path d="M 49.34375 0 L 34.078125 0 C 33.609375 -1.46875 33.34375 -2.910156 33.28125 -4.328125 C 30.457031 -0.617188 25.457031 1.234375 18.28125 1.234375 C 12.914062 1.234375 8.796875 -0.175781 5.921875 -3 C 3.390625 -5.46875 2.125 -8.734375 2.125 -12.796875 C 2.125 -18.390625 4.59375 -22.332031 9.53125 -24.625 C 11.65625 -25.570312 16.007812 -26.660156 22.59375 -27.890625 L 33.015625 -29.84375 L 33.015625 -32.578125 C 32.898438 -35.929688 30.578125 -37.609375 26.046875 -37.609375 C 23.566406 -37.609375 21.753906 -37.179688 20.609375 -36.328125 C 19.460938 -35.472656 18.710938 -33.957031 18.359375 -31.78125 L 4.15625 -31.78125 C 4.675781 -41.957031 12.03125 -47.046875 26.21875 -47.046875 C 33.75 -47.046875 39.398438 -45.695312 43.171875 -43 C 44.929688 -41.644531 46.132812 -40.128906 46.78125 -38.453125 C 47.4375 -36.773438 47.765625 -34.226562 47.765625 -30.8125 C 47.765625 -30.21875 47.734375 -28.394531 47.671875 -25.34375 L 47.671875 -24.359375 L 47.578125 -16.765625 C 47.578125 -14.710938 47.578125 -13.332031 47.578125 -12.625 C 47.578125 -11.914062 47.550781 -10.796875 47.5 -9.265625 C 47.5 -8.441406 47.5 -7.796875 47.5 -7.328125 C 47.5 -4.035156 48.113281 -1.59375 49.34375 0 Z M 33.1875 -20.921875 L 26.3125 -19.421875 C 22.71875 -18.597656 20.332031 -17.773438 19.15625 -16.953125 C 17.976562 -16.128906 17.390625 -14.890625 17.390625 -13.234375 C 17.390625 -9.648438 19.421875 -7.859375 23.484375 -7.859375 C 26.898438 -7.859375 29.546875 -9.0625 31.421875 -11.46875 C 32.484375 -12.769531 33.046875 -14.832031 33.109375 -17.65625 Z M 33.1875 -20.921875 "/></g></g></g><g fill="#191919" fill-opacity="1"><g transform="translate(783.402457, 178.679862)"><g><path d="M 37.953125 -46.078125 L 37.875 -33.71875 C 35.695312 -34.363281 33.632812 -34.6875 31.6875 -34.6875 C 24.039062 -34.6875 20.21875 -29.773438 20.21875 -19.953125 L 20.21875 0 L 5.203125 0 L 5.203125 -45.8125 L 19.6875 -45.8125 L 19.6875 -37.953125 C 21.445312 -44.015625 26.359375 -47.046875 34.421875 -47.046875 C 35.367188 -47.046875 36.546875 -46.722656 37.953125 -46.078125 Z M 37.953125 -46.078125 "/></g></g></g><g fill="#191919" fill-opacity="1"><g transform="translate(819.503222, 178.679862)"><g><path d="M 4.0625 -42.640625 C 4.414062 -50.171875 6.914062 -55.878906 11.5625 -59.765625 C 15.625 -63.117188 20.976562 -64.796875 27.625 -64.796875 C 34.6875 -64.796875 40.3125 -62.851562 44.5 -58.96875 C 48.03125 -55.550781 49.796875 -51.253906 49.796875 -46.078125 C 49.796875 -42.546875 48.984375 -39.691406 47.359375 -37.515625 C 45.742188 -35.335938 42.492188 -32.804688 37.609375 -29.921875 C 35.484375 -28.628906 34.128906 -26.953125 33.546875 -24.890625 C 33.367188 -24.242188 33.25 -22.953125 33.1875 -21.015625 L 19.15625 -21.015625 L 19.25 -25.59375 C 19.300781 -28.957031 20.238281 -31.785156 22.0625 -34.078125 C 23.007812 -35.253906 24.925781 -36.785156 27.8125 -38.671875 C 30.164062 -40.253906 31.707031 -41.53125 32.4375 -42.5 C 33.175781 -43.476562 33.546875 -44.757812 33.546875 -46.34375 C 33.546875 -47.988281 32.972656 -49.328125 31.828125 -50.359375 C 30.679688 -51.390625 29.191406 -51.90625 27.359375 -51.90625 C 22.484375 -51.90625 19.925781 -48.816406 19.6875 -42.640625 Z M 26.578125 -13.859375 C 28.453125 -13.859375 30.066406 -13.195312 31.421875 -11.875 C 32.773438 -10.550781 33.453125 -8.945312 33.453125 -7.0625 C 33.453125 -5.125 32.773438 -3.476562 31.421875 -2.125 C 30.066406 -0.769531 28.453125 -0.09375 26.578125 -0.09375 C 24.628906 -0.09375 22.992188 -0.769531 21.671875 -2.125 C 20.347656 -3.476562 19.6875 -5.125 19.6875 -7.0625 C 19.6875 -8.945312 20.347656 -10.550781 21.671875 -11.875 C 22.992188 -13.195312 24.628906 -13.859375 26.578125 -13.859375 Z M 26.578125 -13.859375 "/></g></g></g><g fill="#ffffff" fill-opacity="1"><g transform="translate(109.489743, 61.302682)"><g><path d="M 2.703125 -29.328125 L 14.796875 -29.328125 C 18.671875 -29.328125 21.46875 -28.742188 23.1875 -27.578125 C 25.863281 -25.773438 27.203125 -23.039062 27.203125 -19.375 C 27.203125 -16.394531 26.191406 -13.992188 24.171875 -12.171875 C 22.421875 -10.585938 19.835938 -9.796875 16.421875 -9.796875 L 10.359375 -9.796875 L 10.359375 0 L 2.703125 0 Z M 10.359375 -23.03125 L 10.359375 -15.8125 L 15.40625 -15.8125 C 18.300781 -15.8125 19.75 -17.015625 19.75 -19.421875 C 19.75 -21.765625 18.207031 -22.953125 15.125 -22.984375 Z M 10.359375 -23.03125 "/></g></g></g><g fill="#ffffff" fill-opacity="1"><g transform="translate(136.523241, 61.302682)"><g><path d="M 17.609375 -21.390625 L 17.578125 -15.65625 C 16.566406 -15.945312 15.609375 -16.09375 14.703125 -16.09375 C 11.148438 -16.09375 9.375 -13.816406 9.375 -9.265625 L 9.375 0 L 2.421875 0 L 2.421875 -21.265625 L 9.140625 -21.265625 L 9.140625 -17.609375 C 9.953125 -20.429688 12.234375 -21.84375 15.984375 -21.84375 C 16.421875 -21.84375 16.960938 -21.691406 17.609375 -21.390625 Z M 17.609375 -21.390625 "/></g></g></g><g fill="#ffffff" fill-opacity="1"><g transform="translate(153.275639, 61.302682)"><g><path d="M 23.4375 -6.515625 C 23.101562 -5.253906 22.472656 -4.09375 21.546875 -3.03125 C 19.441406 -0.625 16.535156 0.578125 12.828125 0.578125 C 9.460938 0.578125 6.742188 -0.351562 4.671875 -2.21875 C 2.347656 -4.289062 1.1875 -7.035156 1.1875 -10.453125 C 1.1875 -14.023438 2.390625 -16.890625 4.796875 -19.046875 C 6.867188 -20.910156 9.445312 -21.84375 12.53125 -21.84375 C 16.28125 -21.84375 19.164062 -20.613281 21.1875 -18.15625 C 22.957031 -15.988281 23.84375 -13.160156 23.84375 -9.671875 C 23.84375 -9.421875 23.84375 -9.203125 23.84375 -9.015625 L 8.03125 -9.015625 C 8.082031 -7.484375 8.53125 -6.285156 9.375 -5.421875 C 10.226562 -4.566406 11.378906 -4.140625 12.828125 -4.140625 C 14.597656 -4.140625 15.945312 -4.929688 16.875 -6.515625 Z M 17 -12.984375 C 16.644531 -15.742188 15.1875 -17.125 12.625 -17.125 C 10.019531 -17.125 8.515625 -15.742188 8.109375 -12.984375 Z M 17 -12.984375 "/></g></g></g><g fill="#ffffff" fill-opacity="1"><g transform="translate(177.032296, 61.302682)"><g><path d="M 23.0625 -8.359375 C 22.65625 -5.328125 21.398438 -3.03125 19.296875 -1.46875 C 17.460938 -0.101562 15.164062 0.578125 12.40625 0.578125 C 8.800781 0.578125 5.960938 -0.570312 3.890625 -2.875 C 2.085938 -4.863281 1.1875 -7.390625 1.1875 -10.453125 C 1.1875 -14.140625 2.347656 -17.019531 4.671875 -19.09375 C 6.722656 -20.925781 9.316406 -21.84375 12.453125 -21.84375 C 15.648438 -21.84375 18.203125 -20.992188 20.109375 -19.296875 C 21.804688 -17.796875 22.738281 -15.882812 22.90625 -13.5625 L 16.140625 -13.5625 C 15.785156 -15.6875 14.597656 -16.75 12.578125 -16.75 C 9.710938 -16.75 8.28125 -14.660156 8.28125 -10.484375 C 8.28125 -6.578125 9.671875 -4.625 12.453125 -4.625 C 14.660156 -4.625 15.957031 -5.867188 16.34375 -8.359375 Z M 23.0625 -8.359375 "/></g></g></g><g fill="#ffffff" fill-opacity="1"><g transform="translate(199.887818, 61.302682)"><g><path d="M 9.375 -21.265625 L 9.375 0 L 2.421875 0 L 2.421875 -21.265625 Z M 5.90625 -30.109375 C 6.769531 -30.109375 7.515625 -29.800781 8.140625 -29.1875 C 8.773438 -28.570312 9.09375 -27.816406 9.09375 -26.921875 C 9.09375 -26.046875 8.773438 -25.289062 8.140625 -24.65625 C 7.515625 -24.03125 6.769531 -23.71875 5.90625 -23.71875 C 5 -23.71875 4.238281 -24.03125 3.625 -24.65625 C 3.007812 -25.289062 2.703125 -26.046875 2.703125 -26.921875 C 2.703125 -27.816406 3.007812 -28.570312 3.625 -29.1875 C 4.238281 -29.800781 5 -30.109375 5.90625 -30.109375 Z M 5.90625 -30.109375 "/></g></g></g><g fill="#ffffff" fill-opacity="1"><g transform="translate(210.414216, 61.302682)"><g><path d="M 20.640625 -15.28125 L 14.21875 -15.28125 C 14.101562 -16.101562 13.78125 -16.679688 13.25 -17.015625 C 12.71875 -17.359375 11.851562 -17.53125 10.65625 -17.53125 C 8.789062 -17.53125 7.859375 -16.957031 7.859375 -15.8125 C 7.859375 -15.207031 8.148438 -14.769531 8.734375 -14.5 C 9.328125 -14.226562 10.691406 -13.890625 12.828125 -13.484375 C 15.910156 -12.878906 18.070312 -12.078125 19.3125 -11.078125 C 20.5625 -10.085938 21.1875 -8.648438 21.1875 -6.765625 C 21.1875 -4.304688 20.160156 -2.421875 18.109375 -1.109375 C 16.304688 0.015625 13.914062 0.578125 10.9375 0.578125 C 7.164062 0.578125 4.378906 -0.3125 2.578125 -2.09375 C 1.703125 -2.96875 1.132812 -3.65625 0.875 -4.15625 C 0.613281 -4.664062 0.445312 -5.492188 0.375 -6.640625 L 7.203125 -6.640625 C 7.316406 -5.648438 7.648438 -4.957031 8.203125 -4.5625 C 8.765625 -4.164062 9.703125 -3.96875 11.015625 -3.96875 C 13.203125 -3.96875 14.296875 -4.691406 14.296875 -6.140625 C 14.296875 -6.773438 14.035156 -7.234375 13.515625 -7.515625 C 12.992188 -7.804688 11.765625 -8.171875 9.828125 -8.609375 C 6.796875 -9.265625 4.734375 -9.890625 3.640625 -10.484375 C 1.898438 -11.472656 1.03125 -13.054688 1.03125 -15.234375 C 1.03125 -17.367188 1.875 -19.003906 3.5625 -20.140625 C 5.257812 -21.273438 7.664062 -21.84375 10.78125 -21.84375 C 14.625 -21.84375 17.367188 -20.925781 19.015625 -19.09375 C 19.992188 -18.03125 20.535156 -16.757812 20.640625 -15.28125 Z M 20.640625 -15.28125 "/></g></g></g><g fill="#ffffff" fill-opacity="1"><g transform="translate(231.508432, 61.302682)"><g><path d="M 22.90625 0 L 15.8125 0 C 15.59375 -0.6875 15.46875 -1.351562 15.4375 -2 C 14.132812 -0.28125 11.816406 0.578125 8.484375 0.578125 C 5.992188 0.578125 4.082031 -0.078125 2.75 -1.390625 C 1.570312 -2.535156 0.984375 -4.050781 0.984375 -5.9375 C 0.984375 -8.53125 2.128906 -10.363281 4.421875 -11.4375 C 5.410156 -11.863281 7.429688 -12.367188 10.484375 -12.953125 L 15.328125 -13.84375 L 15.328125 -15.125 C 15.265625 -16.675781 14.179688 -17.453125 12.078125 -17.453125 C 10.929688 -17.453125 10.09375 -17.253906 9.5625 -16.859375 C 9.03125 -16.460938 8.679688 -15.757812 8.515625 -14.75 L 1.921875 -14.75 C 2.171875 -19.476562 5.585938 -21.84375 12.171875 -21.84375 C 15.660156 -21.84375 18.28125 -21.210938 20.03125 -19.953125 C 20.851562 -19.328125 21.410156 -18.625 21.703125 -17.84375 C 22.003906 -17.0625 22.15625 -15.878906 22.15625 -14.296875 C 22.15625 -14.023438 22.144531 -13.179688 22.125 -11.765625 L 22.125 -11.3125 L 22.078125 -7.78125 C 22.078125 -6.820312 22.078125 -6.179688 22.078125 -5.859375 C 22.078125 -5.523438 22.066406 -5.003906 22.046875 -4.296875 C 22.046875 -3.921875 22.046875 -3.625 22.046875 -3.40625 C 22.046875 -1.875 22.332031 -0.738281 22.90625 0 Z M 15.40625 -9.703125 L 12.203125 -9.015625 C 10.535156 -8.628906 9.429688 -8.242188 8.890625 -7.859375 C 8.347656 -7.484375 8.078125 -6.910156 8.078125 -6.140625 C 8.078125 -4.472656 9.015625 -3.640625 10.890625 -3.640625 C 12.484375 -3.640625 13.710938 -4.203125 14.578125 -5.328125 C 15.078125 -5.929688 15.335938 -6.882812 15.359375 -8.1875 Z M 15.40625 -9.703125 "/></g></g></g><g fill="#ffffff" fill-opacity="1"><g transform="translate(254.322989, 61.302682)"><g/></g></g><g fill="#ffffff" fill-opacity="1"><g transform="translate(260.630446, 61.302682)"><g><path d="M 23.515625 -29.328125 L 23.515625 0 L 16.515625 0 L 16.515625 -2.5 C 15.285156 -0.445312 13.359375 0.578125 10.734375 0.578125 C 7.671875 0.578125 5.265625 -0.582031 3.515625 -2.90625 C 2.015625 -4.957031 1.265625 -7.582031 1.265625 -10.78125 C 1.265625 -14.351562 2.207031 -17.148438 4.09375 -19.171875 C 5.738281 -20.972656 7.828125 -21.875 10.359375 -21.875 C 13.015625 -21.875 15.066406 -20.847656 16.515625 -18.796875 L 16.515625 -29.328125 Z M 12.53125 -16.421875 C 11.195312 -16.421875 10.164062 -15.921875 9.4375 -14.921875 C 8.71875 -13.929688 8.359375 -12.535156 8.359375 -10.734375 C 8.359375 -6.992188 9.75 -5.125 12.53125 -5.125 C 13.875 -5.125 14.921875 -5.617188 15.671875 -6.609375 C 16.421875 -7.609375 16.796875 -8.984375 16.796875 -10.734375 C 16.796875 -12.503906 16.410156 -13.894531 15.640625 -14.90625 C 14.878906 -15.914062 13.84375 -16.421875 12.53125 -16.421875 Z M 12.53125 -16.421875 "/></g></g></g><g fill="#ffffff" fill-opacity="1"><g transform="translate(285.288238, 61.302682)"><g><path d="M 23.4375 -6.515625 C 23.101562 -5.253906 22.472656 -4.09375 21.546875 -3.03125 C 19.441406 -0.625 16.535156 0.578125 12.828125 0.578125 C 9.460938 0.578125 6.742188 -0.351562 4.671875 -2.21875 C 2.347656 -4.289062 1.1875 -7.035156 1.1875 -10.453125 C 1.1875 -14.023438 2.390625 -16.890625 4.796875 -19.046875 C 6.867188 -20.910156 9.445312 -21.84375 12.53125 -21.84375 C 16.28125 -21.84375 19.164062 -20.613281 21.1875 -18.15625 C 22.957031 -15.988281 23.84375 -13.160156 23.84375 -9.671875 C 23.84375 -9.421875 23.84375 -9.203125 23.84375 -9.015625 L 8.03125 -9.015625 C 8.082031 -7.484375 8.53125 -6.285156 9.375 -5.421875 C 10.226562 -4.566406 11.378906 -4.140625 12.828125 -4.140625 C 14.597656 -4.140625 15.945312 -4.929688 16.875 -6.515625 Z M 17 -12.984375 C 16.644531 -15.742188 15.1875 -17.125 12.625 -17.125 C 10.019531 -17.125 8.515625 -15.742188 8.109375 -12.984375 Z M 17 -12.984375 "/></g></g></g><g fill="#ffffff" fill-opacity="1"><g transform="translate(309.044895, 61.302682)"><g/></g></g><g fill="#ffffff" fill-opacity="1"><g transform="translate(315.352352, 61.302682)"><g><path d="M 23.4375 -21.265625 L 23.4375 0 L 16.421875 0 L 16.421875 -2.875 C 15.085938 -0.570312 12.878906 0.578125 9.796875 0.578125 C 7.085938 0.578125 5.050781 -0.3125 3.6875 -2.09375 C 2.726562 -3.320312 2.25 -5.273438 2.25 -7.953125 L 2.25 -21.265625 L 9.21875 -21.265625 L 9.21875 -9.921875 C 9.21875 -8.085938 9.394531 -6.910156 9.75 -6.390625 C 10.289062 -5.546875 11.21875 -5.125 12.53125 -5.125 C 14.144531 -5.125 15.296875 -5.789062 15.984375 -7.125 C 16.273438 -7.757812 16.421875 -8.90625 16.421875 -10.5625 L 16.421875 -21.265625 Z M 23.4375 -21.265625 "/></g></g></g><g fill="#ffffff" fill-opacity="1"><g transform="translate(339.928214, 61.302682)"><g><path d="M 9.140625 -21.265625 L 9.140625 -18.4375 C 10.722656 -20.707031 12.90625 -21.84375 15.6875 -21.84375 C 18.5 -21.84375 20.492188 -20.707031 21.671875 -18.4375 C 23.390625 -20.707031 25.644531 -21.84375 28.4375 -21.84375 C 30.894531 -21.84375 32.789062 -21.078125 34.125 -19.546875 C 35.269531 -18.179688 35.84375 -16.378906 35.84375 -14.140625 L 35.84375 0 L 28.890625 0 L 28.890625 -12.328125 C 28.890625 -14.867188 27.90625 -16.140625 25.9375 -16.140625 C 24.59375 -16.140625 23.632812 -15.59375 23.0625 -14.5 C 22.757812 -13.925781 22.609375 -12.984375 22.609375 -11.671875 L 22.609375 0 L 15.65625 0 L 15.65625 -12.625 C 15.65625 -14.96875 14.710938 -16.140625 12.828125 -16.140625 C 10.523438 -16.140625 9.375 -14.648438 9.375 -11.671875 L 9.375 0 L 2.421875 0 L 2.421875 -21.265625 Z M 9.140625 -21.265625 "/></g></g></g><g fill="#ffffff" fill-opacity="1"><g transform="translate(376.751289, 61.302682)"><g/></g></g><g fill="#ffffff" fill-opacity="1"><g transform="translate(383.058746, 61.302682)"><g><path d="M 20.640625 -15.28125 L 14.21875 -15.28125 C 14.101562 -16.101562 13.78125 -16.679688 13.25 -17.015625 C 12.71875 -17.359375 11.851562 -17.53125 10.65625 -17.53125 C 8.789062 -17.53125 7.859375 -16.957031 7.859375 -15.8125 C 7.859375 -15.207031 8.148438 -14.769531 8.734375 -14.5 C 9.328125 -14.226562 10.691406 -13.890625 12.828125 -13.484375 C 15.910156 -12.878906 18.070312 -12.078125 19.3125 -11.078125 C 20.5625 -10.085938 21.1875 -8.648438 21.1875 -6.765625 C 21.1875 -4.304688 20.160156 -2.421875 18.109375 -1.109375 C 16.304688 0.015625 13.914062 0.578125 10.9375 0.578125 C 7.164062 0.578125 4.378906 -0.3125 2.578125 -2.09375 C 1.703125 -2.96875 1.132812 -3.65625 0.875 -4.15625 C 0.613281 -4.664062 0.445312 -5.492188 0.375 -6.640625 L 7.203125 -6.640625 C 7.316406 -5.648438 7.648438 -4.957031 8.203125 -4.5625 C 8.765625 -4.164062 9.703125 -3.96875 11.015625 -3.96875 C 13.203125 -3.96875 14.296875 -4.691406 14.296875 -6.140625 C 14.296875 -6.773438 14.035156 -7.234375 13.515625 -7.515625 C 12.992188 -7.804688 11.765625 -8.171875 9.828125 -8.609375 C 6.796875 -9.265625 4.734375 -9.890625 3.640625 -10.484375 C 1.898438 -11.472656 1.03125 -13.054688 1.03125 -15.234375 C 1.03125 -17.367188 1.875 -19.003906 3.5625 -20.140625 C 5.257812 -21.273438 7.664062 -21.84375 10.78125 -21.84375 C 14.625 -21.84375 17.367188 -20.925781 19.015625 -19.09375 C 19.992188 -18.03125 20.535156 -16.757812 20.640625 -15.28125 Z M 20.640625 -15.28125 "/></g></g></g><g fill="#ffffff" fill-opacity="1"><g transform="translate(404.152962, 61.302682)"><g><path d="M 9.375 -21.265625 L 9.375 0 L 2.421875 0 L 2.421875 -21.265625 Z M 5.90625 -30.109375 C 6.769531 -30.109375 7.515625 -29.800781 8.140625 -29.1875 C 8.773438 -28.570312 9.09375 -27.816406 9.09375 -26.921875 C 9.09375 -26.046875 8.773438 -25.289062 8.140625 -24.65625 C 7.515625 -24.03125 6.769531 -23.71875 5.90625 -23.71875 C 5 -23.71875 4.238281 -24.03125 3.625 -24.65625 C 3.007812 -25.289062 2.703125 -26.046875 2.703125 -26.921875 C 2.703125 -27.816406 3.007812 -28.570312 3.625 -29.1875 C 4.238281 -29.800781 5 -30.109375 5.90625 -30.109375 Z M 5.90625 -30.109375 "/></g></g></g><g fill="#ffffff" fill-opacity="1"><g transform="translate(414.679361, 61.302682)"><g><path d="M 15.234375 -21.265625 L 15.234375 -16.671875 L 10.203125 -16.671875 L 10.203125 -7.90625 C 10.203125 -5.9375 11.085938 -4.953125 12.859375 -4.953125 C 13.898438 -4.953125 14.722656 -5.160156 15.328125 -5.578125 L 16.546875 -0.578125 C 15.210938 -0.00390625 13.257812 0.28125 10.6875 0.28125 C 7.519531 0.28125 5.40625 -0.398438 4.34375 -1.765625 C 3.875 -2.359375 3.570312 -3.007812 3.4375 -3.71875 C 3.300781 -4.4375 3.234375 -5.613281 3.234375 -7.25 L 3.234375 -16.671875 L -0.328125 -16.671875 L -0.328125 -21.265625 L 3.234375 -21.265625 L 3.234375 -25.765625 L 10.203125 -29.421875 L 10.203125 -21.265625 Z M 15.234375 -21.265625 "/></g></g></g><g fill="#ffffff" fill-opacity="1"><g transform="translate(428.851247, 61.302682)"><g><path d="M 23.4375 -6.515625 C 23.101562 -5.253906 22.472656 -4.09375 21.546875 -3.03125 C 19.441406 -0.625 16.535156 0.578125 12.828125 0.578125 C 9.460938 0.578125 6.742188 -0.351562 4.671875 -2.21875 C 2.347656 -4.289062 1.1875 -7.035156 1.1875 -10.453125 C 1.1875 -14.023438 2.390625 -16.890625 4.796875 -19.046875 C 6.867188 -20.910156 9.445312 -21.84375 12.53125 -21.84375 C 16.28125 -21.84375 19.164062 -20.613281 21.1875 -18.15625 C 22.957031 -15.988281 23.84375 -13.160156 23.84375 -9.671875 C 23.84375 -9.421875 23.84375 -9.203125 23.84375 -9.015625 L 8.03125 -9.015625 C 8.082031 -7.484375 8.53125 -6.285156 9.375 -5.421875 C 10.226562 -4.566406 11.378906 -4.140625 12.828125 -4.140625 C 14.597656 -4.140625 15.945312 -4.929688 16.875 -6.515625 Z M 17 -12.984375 C 16.644531 -15.742188 15.1875 -17.125 12.625 -17.125 C 10.019531 -17.125 8.515625 -15.742188 8.109375 -12.984375 Z M 17 -12.984375 "/></g></g></g><g fill="#ffffff" fill-opacity="1"><g transform="translate(452.607923, 61.302682)"><g><path d="M 1.890625 -19.78125 C 2.046875 -23.28125 3.203125 -25.929688 5.359375 -27.734375 C 7.242188 -29.296875 9.734375 -30.078125 12.828125 -30.078125 C 16.097656 -30.078125 18.703125 -29.171875 20.640625 -27.359375 C 22.285156 -25.773438 23.109375 -23.785156 23.109375 -21.390625 C 23.109375 -19.742188 22.734375 -18.414062 21.984375 -17.40625 C 21.234375 -16.394531 19.722656 -15.222656 17.453125 -13.890625 C 16.472656 -13.285156 15.84375 -12.503906 15.5625 -11.546875 C 15.476562 -11.253906 15.425781 -10.65625 15.40625 -9.75 L 8.890625 -9.75 L 8.9375 -11.875 C 8.957031 -13.4375 9.390625 -14.75 10.234375 -15.8125 C 10.671875 -16.363281 11.5625 -17.070312 12.90625 -17.9375 C 14 -18.675781 14.710938 -19.269531 15.046875 -19.71875 C 15.390625 -20.175781 15.5625 -20.773438 15.5625 -21.515625 C 15.5625 -22.273438 15.296875 -22.894531 14.765625 -23.375 C 14.234375 -23.851562 13.546875 -24.09375 12.703125 -24.09375 C 10.429688 -24.09375 9.242188 -22.65625 9.140625 -19.78125 Z M 12.328125 -6.4375 C 13.203125 -6.4375 13.953125 -6.128906 14.578125 -5.515625 C 15.210938 -4.898438 15.53125 -4.15625 15.53125 -3.28125 C 15.53125 -2.375 15.210938 -1.609375 14.578125 -0.984375 C 13.953125 -0.359375 13.203125 -0.046875 12.328125 -0.046875 C 11.429688 -0.046875 10.675781 -0.359375 10.0625 -0.984375 C 9.445312 -1.609375 9.140625 -2.375 9.140625 -3.28125 C 9.140625 -4.15625 9.445312 -4.898438 10.0625 -5.515625 C 10.675781 -6.128906 11.429688 -6.4375 12.328125 -6.4375 Z M 12.328125 -6.4375 "/></g></g></g><g fill="#ffffff" fill-opacity="1"><g transform="translate(476.003599, 61.302682)"><g/></g></g><g fill="#ffffff" fill-opacity="1"><g transform="translate(109.489743, 102.205047)"><g><path d="M 26.171875 -29.328125 L 26.171875 -23.03125 L 10.359375 -23.03125 L 10.359375 -18.15625 L 24.828125 -18.15625 L 24.828125 -12.125 L 10.359375 -12.125 L 10.359375 -6.3125 L 26.546875 -6.3125 L 26.546875 0 L 2.703125 0 L 2.703125 -29.328125 Z M 26.171875 -29.328125 "/></g></g></g><g fill="#ffffff" fill-opacity="1"><g transform="translate(136.44133, 102.205047)"><g><path d="M 20.640625 -15.28125 L 14.21875 -15.28125 C 14.101562 -16.101562 13.78125 -16.679688 13.25 -17.015625 C 12.71875 -17.359375 11.851562 -17.53125 10.65625 -17.53125 C 8.789062 -17.53125 7.859375 -16.957031 7.859375 -15.8125 C 7.859375 -15.207031 8.148438 -14.769531 8.734375 -14.5 C 9.328125 -14.226562 10.691406 -13.890625 12.828125 -13.484375 C 15.910156 -12.878906 18.070312 -12.078125 19.3125 -11.078125 C 20.5625 -10.085938 21.1875 -8.648438 21.1875 -6.765625 C 21.1875 -4.304688 20.160156 -2.421875 18.109375 -1.109375 C 16.304688 0.015625 13.914062 0.578125 10.9375 0.578125 C 7.164062 0.578125 4.378906 -0.3125 2.578125 -2.09375 C 1.703125 -2.96875 1.132812 -3.65625 0.875 -4.15625 C 0.613281 -4.664062 0.445312 -5.492188 0.375 -6.640625 L 7.203125 -6.640625 C 7.316406 -5.648438 7.648438 -4.957031 8.203125 -4.5625 C 8.765625 -4.164062 9.703125 -3.96875 11.015625 -3.96875 C 13.203125 -3.96875 14.296875 -4.691406 14.296875 -6.140625 C 14.296875 -6.773438 14.035156 -7.234375 13.515625 -7.515625 C 12.992188 -7.804688 11.765625 -8.171875 9.828125 -8.609375 C 6.796875 -9.265625 4.734375 -9.890625 3.640625 -10.484375 C 1.898438 -11.472656 1.03125 -13.054688 1.03125 -15.234375 C 1.03125 -17.367188 1.875 -19.003906 3.5625 -20.140625 C 5.257812 -21.273438 7.664062 -21.84375 10.78125 -21.84375 C 14.625 -21.84375 17.367188 -20.925781 19.015625 -19.09375 C 19.992188 -18.03125 20.535156 -16.757812 20.640625 -15.28125 Z M 20.640625 -15.28125 "/></g></g></g><g fill="#ffffff" fill-opacity="1"><g transform="translate(157.535545, 102.205047)"><g><path d="M 15.234375 -21.265625 L 15.234375 -16.671875 L 10.203125 -16.671875 L 10.203125 -7.90625 C 10.203125 -5.9375 11.085938 -4.953125 12.859375 -4.953125 C 13.898438 -4.953125 14.722656 -5.160156 15.328125 -5.578125 L 16.546875 -0.578125 C 15.210938 -0.00390625 13.257812 0.28125 10.6875 0.28125 C 7.519531 0.28125 5.40625 -0.398438 4.34375 -1.765625 C 3.875 -2.359375 3.570312 -3.007812 3.4375 -3.71875 C 3.300781 -4.4375 3.234375 -5.613281 3.234375 -7.25 L 3.234375 -16.671875 L -0.328125 -16.671875 L -0.328125 -21.265625 L 3.234375 -21.265625 L 3.234375 -25.765625 L 10.203125 -29.421875 L 10.203125 -21.265625 Z M 15.234375 -21.265625 "/></g></g></g><g fill="#ffffff" fill-opacity="1"><g transform="translate(171.707432, 102.205047)"><g><path d="M 12.453125 0.578125 C 8.878906 0.578125 6.039062 -0.597656 3.9375 -2.953125 C 2.101562 -4.992188 1.1875 -7.5625 1.1875 -10.65625 C 1.1875 -14.207031 2.363281 -17.03125 4.71875 -19.125 C 6.757812 -20.9375 9.320312 -21.84375 12.40625 -21.84375 C 16.019531 -21.84375 18.875 -20.679688 20.96875 -18.359375 C 22.78125 -16.359375 23.6875 -13.800781 23.6875 -10.6875 C 23.6875 -7.113281 22.507812 -4.273438 20.15625 -2.171875 C 18.101562 -0.335938 15.535156 0.578125 12.453125 0.578125 Z M 12.375 -16.75 C 11.0625 -16.75 10.050781 -16.21875 9.34375 -15.15625 C 8.632812 -14.09375 8.28125 -12.59375 8.28125 -10.65625 C 8.28125 -6.550781 9.671875 -4.5 12.453125 -4.5 C 15.242188 -4.5 16.640625 -6.5625 16.640625 -10.6875 C 16.640625 -14.726562 15.21875 -16.75 12.375 -16.75 Z M 12.375 -16.75 "/></g></g></g><g fill="#ffffff" fill-opacity="1"><g transform="translate(195.341214, 102.205047)"><g><path d="M 23.4375 -21.265625 L 23.4375 0 L 16.421875 0 L 16.421875 -2.875 C 15.085938 -0.570312 12.878906 0.578125 9.796875 0.578125 C 7.085938 0.578125 5.050781 -0.3125 3.6875 -2.09375 C 2.726562 -3.320312 2.25 -5.273438 2.25 -7.953125 L 2.25 -21.265625 L 9.21875 -21.265625 L 9.21875 -9.921875 C 9.21875 -8.085938 9.394531 -6.910156 9.75 -6.390625 C 10.289062 -5.546875 11.21875 -5.125 12.53125 -5.125 C 14.144531 -5.125 15.296875 -5.789062 15.984375 -7.125 C 16.273438 -7.757812 16.421875 -8.90625 16.421875 -10.5625 L 16.421875 -21.265625 Z M 23.4375 -21.265625 "/></g></g></g><g fill="#ffffff" fill-opacity="1"><g transform="translate(219.917076, 102.205047)"><g/></g></g><g fill="#ffffff" fill-opacity="1"><g transform="translate(226.224533, 102.205047)"><g><path d="M 22.90625 0 L 15.8125 0 C 15.59375 -0.6875 15.46875 -1.351562 15.4375 -2 C 14.132812 -0.28125 11.816406 0.578125 8.484375 0.578125 C 5.992188 0.578125 4.082031 -0.078125 2.75 -1.390625 C 1.570312 -2.535156 0.984375 -4.050781 0.984375 -5.9375 C 0.984375 -8.53125 2.128906 -10.363281 4.421875 -11.4375 C 5.410156 -11.863281 7.429688 -12.367188 10.484375 -12.953125 L 15.328125 -13.84375 L 15.328125 -15.125 C 15.265625 -16.675781 14.179688 -17.453125 12.078125 -17.453125 C 10.929688 -17.453125 10.09375 -17.253906 9.5625 -16.859375 C 9.03125 -16.460938 8.679688 -15.757812 8.515625 -14.75 L 1.921875 -14.75 C 2.171875 -19.476562 5.585938 -21.84375 12.171875 -21.84375 C 15.660156 -21.84375 18.28125 -21.210938 20.03125 -19.953125 C 20.851562 -19.328125 21.410156 -18.625 21.703125 -17.84375 C 22.003906 -17.0625 22.15625 -15.878906 22.15625 -14.296875 C 22.15625 -14.023438 22.144531 -13.179688 22.125 -11.765625 L 22.125 -11.3125 L 22.078125 -7.78125 C 22.078125 -6.820312 22.078125 -6.179688 22.078125 -5.859375 C 22.078125 -5.523438 22.066406 -5.003906 22.046875 -4.296875 C 22.046875 -3.921875 22.046875 -3.625 22.046875 -3.40625 C 22.046875 -1.875 22.332031 -0.738281 22.90625 0 Z M 15.40625 -9.703125 L 12.203125 -9.015625 C 10.535156 -8.628906 9.429688 -8.242188 8.890625 -7.859375 C 8.347656 -7.484375 8.078125 -6.910156 8.078125 -6.140625 C 8.078125 -4.472656 9.015625 -3.640625 10.890625 -3.640625 C 12.484375 -3.640625 13.710938 -4.203125 14.578125 -5.328125 C 15.078125 -5.929688 15.335938 -6.882812 15.359375 -8.1875 Z M 15.40625 -9.703125 "/></g></g></g><g fill="#ffffff" fill-opacity="1"><g transform="translate(249.03909, 102.205047)"><g><path d="M 23.515625 -21.265625 L 23.515625 7.171875 L 16.546875 7.171875 L 16.546875 -2.5 C 14.992188 -0.425781 12.945312 0.609375 10.40625 0.609375 C 7.425781 0.609375 5.101562 -0.535156 3.4375 -2.828125 C 1.988281 -4.796875 1.265625 -7.335938 1.265625 -10.453125 C 1.265625 -14.140625 2.234375 -17.019531 4.171875 -19.09375 C 5.835938 -20.925781 7.984375 -21.84375 10.609375 -21.84375 C 13.367188 -21.84375 15.429688 -20.828125 16.796875 -18.796875 L 16.796875 -21.265625 Z M 12.453125 -16.140625 C 11.140625 -16.140625 10.128906 -15.625 9.421875 -14.59375 C 8.710938 -13.570312 8.359375 -12.148438 8.359375 -10.328125 C 8.359375 -6.660156 9.738281 -4.828125 12.5 -4.828125 C 15.332031 -4.828125 16.75 -6.710938 16.75 -10.484375 C 16.75 -14.253906 15.316406 -16.140625 12.453125 -16.140625 Z M 12.453125 -16.140625 "/></g></g></g><g fill="#ffffff" fill-opacity="1"><g transform="translate(273.696882, 102.205047)"><g><path d="M 23.4375 -21.265625 L 23.4375 0 L 16.421875 0 L 16.421875 -2.875 C 15.085938 -0.570312 12.878906 0.578125 9.796875 0.578125 C 7.085938 0.578125 5.050781 -0.3125 3.6875 -2.09375 C 2.726562 -3.320312 2.25 -5.273438 2.25 -7.953125 L 2.25 -21.265625 L 9.21875 -21.265625 L 9.21875 -9.921875 C 9.21875 -8.085938 9.394531 -6.910156 9.75 -6.390625 C 10.289062 -5.546875 11.21875 -5.125 12.53125 -5.125 C 14.144531 -5.125 15.296875 -5.789062 15.984375 -7.125 C 16.273438 -7.757812 16.421875 -8.90625 16.421875 -10.5625 L 16.421875 -21.265625 Z M 23.4375 -21.265625 "/></g></g></g><g fill="#ffffff" fill-opacity="1"><g transform="translate(298.272744, 102.205047)"><g><path d="M 9.375 -21.265625 L 9.375 0 L 2.421875 0 L 2.421875 -21.265625 Z M 5.90625 -30.109375 C 6.769531 -30.109375 7.515625 -29.800781 8.140625 -29.1875 C 8.773438 -28.570312 9.09375 -27.816406 9.09375 -26.921875 C 9.09375 -26.046875 8.773438 -25.289062 8.140625 -24.65625 C 7.515625 -24.03125 6.769531 -23.71875 5.90625 -23.71875 C 5 -23.71875 4.238281 -24.03125 3.625 -24.65625 C 3.007812 -25.289062 2.703125 -26.046875 2.703125 -26.921875 C 2.703125 -27.816406 3.007812 -28.570312 3.625 -29.1875 C 4.238281 -29.800781 5 -30.109375 5.90625 -30.109375 Z M 5.90625 -30.109375 "/></g></g></g><g fill="#ffffff" fill-opacity="1"><g transform="translate(308.799143, 102.205047)"><g/></g></g><g fill="#ffffff" fill-opacity="1"><g transform="translate(315.106599, 102.205047)"><g><path d="M 9.140625 -21.265625 L 9.140625 -18.765625 C 10.640625 -20.816406 12.710938 -21.84375 15.359375 -21.84375 C 18.335938 -21.84375 20.6875 -20.664062 22.40625 -18.3125 C 23.90625 -16.257812 24.65625 -13.648438 24.65625 -10.484375 C 24.65625 -6.910156 23.71875 -4.097656 21.84375 -2.046875 C 20.226562 -0.296875 18.148438 0.578125 15.609375 0.578125 C 13.015625 0.578125 10.9375 -0.429688 9.375 -2.453125 L 9.375 7.171875 L 2.421875 7.171875 L 2.421875 -21.265625 Z M 13.390625 -16.140625 C 12.054688 -16.140625 11.019531 -15.640625 10.28125 -14.640625 C 9.539062 -13.648438 9.171875 -12.253906 9.171875 -10.453125 C 9.171875 -8.671875 9.539062 -7.285156 10.28125 -6.296875 C 11.019531 -5.316406 12.054688 -4.828125 13.390625 -4.828125 C 16.179688 -4.828125 17.578125 -6.703125 17.578125 -10.453125 C 17.578125 -14.242188 16.179688 -16.140625 13.390625 -16.140625 Z M 13.390625 -16.140625 "/></g></g></g><g fill="#ffffff" fill-opacity="1"><g transform="translate(339.764392, 102.205047)"><g><path d="M 22.90625 0 L 15.8125 0 C 15.59375 -0.6875 15.46875 -1.351562 15.4375 -2 C 14.132812 -0.28125 11.816406 0.578125 8.484375 0.578125 C 5.992188 0.578125 4.082031 -0.078125 2.75 -1.390625 C 1.570312 -2.535156 0.984375 -4.050781 0.984375 -5.9375 C 0.984375 -8.53125 2.128906 -10.363281 4.421875 -11.4375 C 5.410156 -11.863281 7.429688 -12.367188 10.484375 -12.953125 L 15.328125 -13.84375 L 15.328125 -15.125 C 15.265625 -16.675781 14.179688 -17.453125 12.078125 -17.453125 C 10.929688 -17.453125 10.09375 -17.253906 9.5625 -16.859375 C 9.03125 -16.460938 8.679688 -15.757812 8.515625 -14.75 L 1.921875 -14.75 C 2.171875 -19.476562 5.585938 -21.84375 12.171875 -21.84375 C 15.660156 -21.84375 18.28125 -21.210938 20.03125 -19.953125 C 20.851562 -19.328125 21.410156 -18.625 21.703125 -17.84375 C 22.003906 -17.0625 22.15625 -15.878906 22.15625 -14.296875 C 22.15625 -14.023438 22.144531 -13.179688 22.125 -11.765625 L 22.125 -11.3125 L 22.078125 -7.78125 C 22.078125 -6.820312 22.078125 -6.179688 22.078125 -5.859375 C 22.078125 -5.523438 22.066406 -5.003906 22.046875 -4.296875 C 22.046875 -3.921875 22.046875 -3.625 22.046875 -3.40625 C 22.046875 -1.875 22.332031 -0.738281 22.90625 0 Z M 15.40625 -9.703125 L 12.203125 -9.015625 C 10.535156 -8.628906 9.429688 -8.242188 8.890625 -7.859375 C 8.347656 -7.484375 8.078125 -6.910156 8.078125 -6.140625 C 8.078125 -4.472656 9.015625 -3.640625 10.890625 -3.640625 C 12.484375 -3.640625 13.710938 -4.203125 14.578125 -5.328125 C 15.078125 -5.929688 15.335938 -6.882812 15.359375 -8.1875 Z M 15.40625 -9.703125 "/></g></g></g><g fill="#ffffff" fill-opacity="1"><g transform="translate(362.578949, 102.205047)"><g><path d="M 17.609375 -21.390625 L 17.578125 -15.65625 C 16.566406 -15.945312 15.609375 -16.09375 14.703125 -16.09375 C 11.148438 -16.09375 9.375 -13.816406 9.375 -9.265625 L 9.375 0 L 2.421875 0 L 2.421875 -21.265625 L 9.140625 -21.265625 L 9.140625 -17.609375 C 9.953125 -20.429688 12.234375 -21.84375 15.984375 -21.84375 C 16.421875 -21.84375 16.960938 -21.691406 17.609375 -21.390625 Z M 17.609375 -21.390625 "/></g></g></g><g fill="#ffffff" fill-opacity="1"><g transform="translate(379.331347, 102.205047)"><g><path d="M 22.90625 0 L 15.8125 0 C 15.59375 -0.6875 15.46875 -1.351562 15.4375 -2 C 14.132812 -0.28125 11.816406 0.578125 8.484375 0.578125 C 5.992188 0.578125 4.082031 -0.078125 2.75 -1.390625 C 1.570312 -2.535156 0.984375 -4.050781 0.984375 -5.9375 C 0.984375 -8.53125 2.128906 -10.363281 4.421875 -11.4375 C 5.410156 -11.863281 7.429688 -12.367188 10.484375 -12.953125 L 15.328125 -13.84375 L 15.328125 -15.125 C 15.265625 -16.675781 14.179688 -17.453125 12.078125 -17.453125 C 10.929688 -17.453125 10.09375 -17.253906 9.5625 -16.859375 C 9.03125 -16.460938 8.679688 -15.757812 8.515625 -14.75 L 1.921875 -14.75 C 2.171875 -19.476562 5.585938 -21.84375 12.171875 -21.84375 C 15.660156 -21.84375 18.28125 -21.210938 20.03125 -19.953125 C 20.851562 -19.328125 21.410156 -18.625 21.703125 -17.84375 C 22.003906 -17.0625 22.15625 -15.878906 22.15625 -14.296875 C 22.15625 -14.023438 22.144531 -13.179688 22.125 -11.765625 L 22.125 -11.3125 L 22.078125 -7.78125 C 22.078125 -6.820312 22.078125 -6.179688 22.078125 -5.859375 C 22.078125 -5.523438 22.066406 -5.003906 22.046875 -4.296875 C 22.046875 -3.921875 22.046875 -3.625 22.046875 -3.40625 C 22.046875 -1.875 22.332031 -0.738281 22.90625 0 Z M 15.40625 -9.703125 L 12.203125 -9.015625 C 10.535156 -8.628906 9.429688 -8.242188 8.890625 -7.859375 C 8.347656 -7.484375 8.078125 -6.910156 8.078125 -6.140625 C 8.078125 -4.472656 9.015625 -3.640625 10.890625 -3.640625 C 12.484375 -3.640625 13.710938 -4.203125 14.578125 -5.328125 C 15.078125 -5.929688 15.335938 -6.882812 15.359375 -8.1875 Z M 15.40625 -9.703125 "/></g></g></g><g fill="#ffffff" fill-opacity="1"><g transform="translate(402.145904, 102.205047)"><g/></g></g><g fill="#ffffff" fill-opacity="1"><g transform="translate(408.45336, 102.205047)"><g><path d="M 15.234375 -21.265625 L 15.234375 -16.671875 L 10.203125 -16.671875 L 10.203125 -7.90625 C 10.203125 -5.9375 11.085938 -4.953125 12.859375 -4.953125 C 13.898438 -4.953125 14.722656 -5.160156 15.328125 -5.578125 L 16.546875 -0.578125 C 15.210938 -0.00390625 13.257812 0.28125 10.6875 0.28125 C 7.519531 0.28125 5.40625 -0.398438 4.34375 -1.765625 C 3.875 -2.359375 3.570312 -3.007812 3.4375 -3.71875 C 3.300781 -4.4375 3.234375 -5.613281 3.234375 -7.25 L 3.234375 -16.671875 L -0.328125 -16.671875 L -0.328125 -21.265625 L 3.234375 -21.265625 L 3.234375 -25.765625 L 10.203125 -29.421875 L 10.203125 -21.265625 Z M 15.234375 -21.265625 "/></g></g></g><g fill="#ffffff" fill-opacity="1"><g transform="translate(422.625247, 102.205047)"><g><path d="M 23.4375 -6.515625 C 23.101562 -5.253906 22.472656 -4.09375 21.546875 -3.03125 C 19.441406 -0.625 16.535156 0.578125 12.828125 0.578125 C 9.460938 0.578125 6.742188 -0.351562 4.671875 -2.21875 C 2.347656 -4.289062 1.1875 -7.035156 1.1875 -10.453125 C 1.1875 -14.023438 2.390625 -16.890625 4.796875 -19.046875 C 6.867188 -20.910156 9.445312 -21.84375 12.53125 -21.84375 C 16.28125 -21.84375 19.164062 -20.613281 21.1875 -18.15625 C 22.957031 -15.988281 23.84375 -13.160156 23.84375 -9.671875 C 23.84375 -9.421875 23.84375 -9.203125 23.84375 -9.015625 L 8.03125 -9.015625 C 8.082031 -7.484375 8.53125 -6.285156 9.375 -5.421875 C 10.226562 -4.566406 11.378906 -4.140625 12.828125 -4.140625 C 14.597656 -4.140625 15.945312 -4.929688 16.875 -6.515625 Z M 17 -12.984375 C 16.644531 -15.742188 15.1875 -17.125 12.625 -17.125 C 10.019531 -17.125 8.515625 -15.742188 8.109375 -12.984375 Z M 17 -12.984375 "/></g></g></g><g fill="#ffffff" fill-opacity="1"><g transform="translate(446.381923, 102.205047)"><g/></g></g><g fill="#ffffff" fill-opacity="1"><g transform="translate(452.689399, 102.205047)"><g><path d="M 22.90625 0 L 15.8125 0 C 15.59375 -0.6875 15.46875 -1.351562 15.4375 -2 C 14.132812 -0.28125 11.816406 0.578125 8.484375 0.578125 C 5.992188 0.578125 4.082031 -0.078125 2.75 -1.390625 C 1.570312 -2.535156 0.984375 -4.050781 0.984375 -5.9375 C 0.984375 -8.53125 2.128906 -10.363281 4.421875 -11.4375 C 5.410156 -11.863281 7.429688 -12.367188 10.484375 -12.953125 L 15.328125 -13.84375 L 15.328125 -15.125 C 15.265625 -16.675781 14.179688 -17.453125 12.078125 -17.453125 C 10.929688 -17.453125 10.09375 -17.253906 9.5625 -16.859375 C 9.03125 -16.460938 8.679688 -15.757812 8.515625 -14.75 L 1.921875 -14.75 C 2.171875 -19.476562 5.585938 -21.84375 12.171875 -21.84375 C 15.660156 -21.84375 18.28125 -21.210938 20.03125 -19.953125 C 20.851562 -19.328125 21.410156 -18.625 21.703125 -17.84375 C 22.003906 -17.0625 22.15625 -15.878906 22.15625 -14.296875 C 22.15625 -14.023438 22.144531 -13.179688 22.125 -11.765625 L 22.125 -11.3125 L 22.078125 -7.78125 C 22.078125 -6.820312 22.078125 -6.179688 22.078125 -5.859375 C 22.078125 -5.523438 22.066406 -5.003906 22.046875 -4.296875 C 22.046875 -3.921875 22.046875 -3.625 22.046875 -3.40625 C 22.046875 -1.875 22.332031 -0.738281 22.90625 0 Z M 15.40625 -9.703125 L 12.203125 -9.015625 C 10.535156 -8.628906 9.429688 -8.242188 8.890625 -7.859375 C 8.347656 -7.484375 8.078125 -6.910156 8.078125 -6.140625 C 8.078125 -4.472656 9.015625 -3.640625 10.890625 -3.640625 C 12.484375 -3.640625 13.710938 -4.203125 14.578125 -5.328125 C 15.078125 -5.929688 15.335938 -6.882812 15.359375 -8.1875 Z M 15.40625 -9.703125 "/></g></g></g><g fill="#ffffff" fill-opacity="1"><g transform="translate(475.503956, 102.205047)"><g><path d="M 9.375 -21.265625 L 9.375 -0.25 C 9.375 1.71875 9.171875 3.191406 8.765625 4.171875 C 7.835938 6.253906 5.488281 7.296875 1.71875 7.296875 C 1.039062 7.296875 0.0703125 7.265625 -1.1875 7.203125 L -1.1875 1.640625 C -0.9375 1.609375 -0.429688 1.59375 0.328125 1.59375 C 1.421875 1.570312 2.0625 1.191406 2.25 0.453125 C 2.363281 0.0976562 2.421875 -1.035156 2.421875 -2.953125 L 2.421875 -21.265625 Z M 5.859375 -30.109375 C 6.753906 -30.109375 7.515625 -29.800781 8.140625 -29.1875 C 8.773438 -28.570312 9.09375 -27.816406 9.09375 -26.921875 C 9.09375 -26.046875 8.773438 -25.289062 8.140625 -24.65625 C 7.515625 -24.03125 6.753906 -23.71875 5.859375 -23.71875 C 4.984375 -23.71875 4.238281 -24.03125 3.625 -24.65625 C 3.007812 -25.289062 2.703125 -26.046875 2.703125 -26.921875 C 2.703125 -27.816406 3.007812 -28.570312 3.625 -29.1875 C 4.238281 -29.800781 4.984375 -30.109375 5.859375 -30.109375 Z M 5.859375 -30.109375 "/></g></g></g><g fill="#ffffff" fill-opacity="1"><g transform="translate(486.030373, 102.205047)"><g><path d="M 23.4375 -21.265625 L 23.4375 0 L 16.421875 0 L 16.421875 -2.875 C 15.085938 -0.570312 12.878906 0.578125 9.796875 0.578125 C 7.085938 0.578125 5.050781 -0.3125 3.6875 -2.09375 C 2.726562 -3.320312 2.25 -5.273438 2.25 -7.953125 L 2.25 -21.265625 L 9.21875 -21.265625 L 9.21875 -9.921875 C 9.21875 -8.085938 9.394531 -6.910156 9.75 -6.390625 C 10.289062 -5.546875 11.21875 -5.125 12.53125 -5.125 C 14.144531 -5.125 15.296875 -5.789062 15.984375 -7.125 C 16.273438 -7.757812 16.421875 -8.90625 16.421875 -10.5625 L 16.421875 -21.265625 Z M 23.4375 -21.265625 "/></g></g></g><g fill="#ffffff" fill-opacity="1"><g transform="translate(510.606235, 102.205047)"><g><path d="M 23.515625 -29.328125 L 23.515625 0 L 16.515625 0 L 16.515625 -2.5 C 15.285156 -0.445312 13.359375 0.578125 10.734375 0.578125 C 7.671875 0.578125 5.265625 -0.582031 3.515625 -2.90625 C 2.015625 -4.957031 1.265625 -7.582031 1.265625 -10.78125 C 1.265625 -14.351562 2.207031 -17.148438 4.09375 -19.171875 C 5.738281 -20.972656 7.828125 -21.875 10.359375 -21.875 C 13.015625 -21.875 15.066406 -20.847656 16.515625 -18.796875 L 16.515625 -29.328125 Z M 12.53125 -16.421875 C 11.195312 -16.421875 10.164062 -15.921875 9.4375 -14.921875 C 8.71875 -13.929688 8.359375 -12.535156 8.359375 -10.734375 C 8.359375 -6.992188 9.75 -5.125 12.53125 -5.125 C 13.875 -5.125 14.921875 -5.617188 15.671875 -6.609375 C 16.421875 -7.609375 16.796875 -8.984375 16.796875 -10.734375 C 16.796875 -12.503906 16.410156 -13.894531 15.640625 -14.90625 C 14.878906 -15.914062 13.84375 -16.421875 12.53125 -16.421875 Z M 12.53125 -16.421875 "/></g></g></g><g fill="#ffffff" fill-opacity="1"><g transform="translate(535.264028, 102.205047)"><g><path d="M 22.90625 0 L 15.8125 0 C 15.59375 -0.6875 15.46875 -1.351562 15.4375 -2 C 14.132812 -0.28125 11.816406 0.578125 8.484375 0.578125 C 5.992188 0.578125 4.082031 -0.078125 2.75 -1.390625 C 1.570312 -2.535156 0.984375 -4.050781 0.984375 -5.9375 C 0.984375 -8.53125 2.128906 -10.363281 4.421875 -11.4375 C 5.410156 -11.863281 7.429688 -12.367188 10.484375 -12.953125 L 15.328125 -13.84375 L 15.328125 -15.125 C 15.265625 -16.675781 14.179688 -17.453125 12.078125 -17.453125 C 10.929688 -17.453125 10.09375 -17.253906 9.5625 -16.859375 C 9.03125 -16.460938 8.679688 -15.757812 8.515625 -14.75 L 1.921875 -14.75 C 2.171875 -19.476562 5.585938 -21.84375 12.171875 -21.84375 C 15.660156 -21.84375 18.28125 -21.210938 20.03125 -19.953125 C 20.851562 -19.328125 21.410156 -18.625 21.703125 -17.84375 C 22.003906 -17.0625 22.15625 -15.878906 22.15625 -14.296875 C 22.15625 -14.023438 22.144531 -13.179688 22.125 -11.765625 L 22.125 -11.3125 L 22.078125 -7.78125 C 22.078125 -6.820312 22.078125 -6.179688 22.078125 -5.859375 C 22.078125 -5.523438 22.066406 -5.003906 22.046875 -4.296875 C 22.046875 -3.921875 22.046875 -3.625 22.046875 -3.40625 C 22.046875 -1.875 22.332031 -0.738281 22.90625 0 Z M 15.40625 -9.703125 L 12.203125 -9.015625 C 10.535156 -8.628906 9.429688 -8.242188 8.890625 -7.859375 C 8.347656 -7.484375 8.078125 -6.910156 8.078125 -6.140625 C 8.078125 -4.472656 9.015625 -3.640625 10.890625 -3.640625 C 12.484375 -3.640625 13.710938 -4.203125 14.578125 -5.328125 C 15.078125 -5.929688 15.335938 -6.882812 15.359375 -8.1875 Z M 15.40625 -9.703125 "/></g></g></g><g fill="#ffffff" fill-opacity="1"><g transform="translate(558.078584, 102.205047)"><g><path d="M 17.609375 -21.390625 L 17.578125 -15.65625 C 16.566406 -15.945312 15.609375 -16.09375 14.703125 -16.09375 C 11.148438 -16.09375 9.375 -13.816406 9.375 -9.265625 L 9.375 0 L 2.421875 0 L 2.421875 -21.265625 L 9.140625 -21.265625 L 9.140625 -17.609375 C 9.953125 -20.429688 12.234375 -21.84375 15.984375 -21.84375 C 16.421875 -21.84375 16.960938 -21.691406 17.609375 -21.390625 Z M 17.609375 -21.390625 "/></g></g></g><g fill="#ffffff" fill-opacity="1"><g transform="translate(574.831001, 102.205047)"><g><path d="M 7.75 -29.328125 L 7.75 -9.21875 L 5.078125 -7.046875 L 2.5 -7.046875 L 2.5 -29.328125 Z M 5.28125 -6.1875 C 6.1875 -6.1875 6.945312 -5.878906 7.5625 -5.265625 C 8.175781 -4.648438 8.484375 -3.90625 8.484375 -3.03125 C 8.484375 -2.132812 8.175781 -1.367188 7.5625 -0.734375 C 6.945312 -0.109375 6.1875 0.203125 5.28125 0.203125 C 4.40625 0.203125 3.65625 -0.109375 3.03125 -0.734375 C 2.40625 -1.367188 2.09375 -2.132812 2.09375 -3.03125 C 2.09375 -3.90625 2.40625 -4.648438 3.03125 -5.265625 C 3.65625 -5.878906 4.40625 -6.1875 5.28125 -6.1875 Z M 5.28125 -6.1875 "/></g></g></g></svg>