<svg xmlns="http://www.w3.org/2000/svg" xmlns:xlink="http://www.w3.org/1999/xlink" width="380" zoomAndPan="magnify" viewBox="0 0 285 374.999991" height="500" preserveAspectRatio="xMidYMid meet" version="1.0"><defs><g/></defs><rect x="-28.5" width="342" fill="#ffffff" y="-37.499999" height="449.999989" fill-opacity="1"/><rect x="-28.5" width="342" fill="#ff7f63" y="-37.499999" height="449.999989" fill-opacity="1"/><path fill="#ffb763" d="M 133.332031 751.320312 C -129.835938 293.386719 -161.496094 -142.496094 46.269531 -444.109375 C 50.925781 -450.90625 55.703125 -457.621094 60.59375 -464.25 C 65.488281 -470.882812 70.496094 -477.425781 75.617188 -483.878906 C 80.738281 -490.335938 85.972656 -496.699219 91.316406 -502.96875 C 96.660156 -509.242188 102.113281 -515.417969 107.671875 -521.5 C 113.234375 -527.582031 118.898438 -533.5625 124.667969 -539.445312 C 130.4375 -545.328125 136.308594 -551.109375 142.28125 -556.789062 C 148.253906 -562.464844 154.324219 -568.039062 160.488281 -573.503906 C 166.65625 -578.96875 172.917969 -584.324219 179.269531 -589.570312 C 185.625 -594.816406 192.070312 -599.949219 198.601562 -604.972656 C 205.136719 -609.992188 211.753906 -614.898438 218.460938 -619.6875 C 225.167969 -624.476562 231.953125 -629.148438 238.820312 -633.699219 C 245.691406 -638.253906 252.636719 -642.683594 259.660156 -646.992188 C 266.683594 -651.300781 273.78125 -655.484375 280.953125 -659.546875 C 288.121094 -663.609375 295.359375 -667.542969 302.667969 -671.351562 C 309.976562 -675.15625 317.347656 -678.835938 324.785156 -682.386719 C 332.21875 -685.933594 339.71875 -689.355469 347.273438 -692.640625 C 354.828125 -695.929688 362.441406 -699.082031 370.105469 -702.105469 C 377.773438 -705.125 385.488281 -708.011719 393.257812 -710.761719 C 401.023438 -713.515625 408.835938 -716.128906 416.695312 -718.609375 C 424.554688 -721.085938 432.453125 -723.425781 440.394531 -725.628906 C 448.335938 -727.828125 456.3125 -729.890625 464.324219 -731.8125 C 472.335938 -733.734375 480.382812 -735.519531 488.457031 -737.160156 C 496.53125 -738.800781 504.632812 -740.300781 512.761719 -741.65625 C 520.886719 -743.015625 529.035156 -744.230469 537.207031 -745.304688 C 545.375 -746.375 553.5625 -747.304688 561.765625 -748.09375 C 569.96875 -748.878906 578.183594 -749.523438 586.40625 -750.019531 C 594.632812 -750.519531 602.863281 -750.875 611.101562 -751.085938 C 619.339844 -751.296875 627.578125 -751.363281 635.816406 -751.289062 C 644.058594 -751.210938 652.292969 -750.988281 660.523438 -750.625 C 668.757812 -750.257812 676.980469 -749.75 685.195312 -749.097656 C 693.410156 -748.445312 701.609375 -747.648438 709.796875 -746.710938 C 717.980469 -745.769531 726.148438 -744.6875 734.296875 -743.460938 C 960.4375 -708.128906 1120.714844 -534.28125 1144.742188 -300.792969 C 1148.078125 -269 1148.734375 -237.152344 1146.71875 -205.25 C 1156.578125 -196.300781 1166.058594 -186.960938 1175.160156 -177.238281 C 1184.257812 -167.515625 1192.949219 -157.4375 1201.226562 -147.003906 C 1209.503906 -136.574219 1217.34375 -125.824219 1224.746094 -114.753906 C 1232.148438 -103.683594 1239.089844 -92.328125 1245.566406 -80.695312 C 1252.046875 -69.058594 1258.039062 -57.179688 1263.546875 -45.054688 C 1269.058594 -32.929688 1274.066406 -20.601562 1278.570312 -8.070312 C 1283.078125 4.460938 1287.066406 17.15625 1290.535156 30.011719 C 1294.007812 42.871094 1296.949219 55.847656 1299.363281 68.945312 C 1319.433594 185.972656 1326.21875 580.867188 576.566406 747.363281 L 518.050781 485.605469 C 862.914062 408.4375 1061.070312 265.402344 1035.0625 112.476562 C 1035.214844 110.8125 1035.121094 109.160156 1034.785156 107.523438 C 1034.449219 105.886719 1033.878906 104.335938 1033.085938 102.863281 C 1025.140625 113.492188 1016.824219 123.828125 1008.144531 133.867188 C 999.464844 143.90625 990.441406 153.625 981.070312 163.023438 C 971.703125 172.417969 962.011719 181.472656 951.996094 190.183594 C 941.984375 198.894531 931.675781 207.238281 921.070312 215.214844 C 910.464844 223.191406 899.589844 230.785156 888.445312 237.988281 C 877.300781 245.195312 865.917969 251.996094 854.289062 258.394531 C 842.660156 264.792969 830.820312 270.769531 818.769531 276.324219 C 806.71875 281.882812 794.484375 287.003906 782.070312 291.691406 C 635.363281 348.226562 496.851562 327.023438 402.4375 235.15625 C 399.6875 232.386719 396.984375 229.566406 394.332031 226.703125 C 391.675781 223.835938 389.074219 220.925781 386.523438 217.96875 C 383.972656 215.011719 381.472656 212.011719 379.027344 208.96875 C 376.582031 205.925781 374.1875 202.839844 371.851562 199.710938 C 369.511719 196.585938 367.226562 193.417969 365 190.210938 C 362.773438 187 360.601562 183.757812 358.488281 180.472656 C 356.375 177.1875 354.320312 173.871094 352.320312 170.515625 C 350.324219 167.160156 348.386719 163.769531 346.503906 160.347656 C 344.625 156.921875 342.808594 153.46875 341.050781 149.980469 C 339.292969 146.492188 337.59375 142.976562 335.960938 139.429688 C 334.324219 135.882812 332.753906 132.308594 331.242188 128.710938 C 329.730469 125.109375 328.285156 121.480469 326.902344 117.828125 C 325.519531 114.175781 324.199219 110.5 322.945312 106.804688 C 321.691406 103.105469 320.503906 99.386719 319.378906 95.648438 C 318.253906 91.90625 317.195312 88.148438 316.203125 84.371094 C 315.210938 80.59375 314.285156 76.800781 313.425781 72.992188 C 312.5625 69.183594 311.769531 65.359375 311.042969 61.523438 C 310.320312 57.6875 309.660156 53.835938 309.066406 49.976562 C 308.476562 46.117188 307.953125 42.25 307.496094 38.371094 C 307.042969 34.492188 306.652344 30.605469 306.332031 26.714844 C 306.011719 22.820312 305.761719 18.925781 305.578125 15.023438 C 305.394531 11.125 305.277344 7.222656 305.230469 3.316406 C 305.183594 -0.589844 305.207031 -4.492188 305.296875 -8.398438 C 305.386719 -12.300781 305.542969 -16.203125 305.769531 -20.101562 C 305.996094 -24 306.289062 -27.894531 306.652344 -31.78125 C 307.015625 -35.667969 307.445312 -39.550781 307.941406 -43.421875 C 308.441406 -47.296875 309.007812 -51.160156 309.640625 -55.011719 C 310.273438 -58.867188 310.976562 -62.707031 311.742188 -66.535156 C 312.511719 -70.367188 313.34375 -74.179688 314.246094 -77.980469 C 315.148438 -81.78125 316.117188 -85.5625 317.148438 -89.328125 C 318.183594 -93.09375 319.285156 -96.839844 320.449219 -100.566406 C 321.613281 -104.296875 322.84375 -108 324.136719 -111.683594 C 371.0625 -251.324219 497.417969 -346.304688 661.652344 -366.09375 C 694.28125 -369.921875 727.007812 -371.078125 759.824219 -369.5625 C 792.644531 -368.042969 825.125 -363.871094 857.261719 -357.046875 C 855.535156 -361.207031 853.675781 -365.304688 851.675781 -369.339844 C 849.679688 -373.375 847.546875 -377.34375 845.285156 -381.238281 C 843.027344 -385.132812 840.636719 -388.945312 838.121094 -392.683594 C 835.605469 -396.417969 832.972656 -400.066406 830.214844 -403.628906 C 827.457031 -407.1875 824.585938 -410.65625 821.597656 -414.023438 C 818.609375 -417.394531 815.511719 -420.660156 812.308594 -423.828125 C 809.105469 -426.992188 805.796875 -430.046875 802.390625 -432.988281 C 798.984375 -435.933594 795.480469 -438.761719 791.886719 -441.476562 C 788.289062 -444.1875 784.609375 -446.777344 780.839844 -449.246094 C 777.074219 -451.710938 773.226562 -454.050781 769.304688 -456.261719 C 765.382812 -458.476562 761.390625 -460.554688 757.328125 -462.5 C 753.269531 -464.449219 749.148438 -466.257812 744.964844 -467.929688 C 740.785156 -469.605469 736.550781 -471.136719 732.269531 -472.527344 C 727.984375 -473.921875 723.660156 -475.167969 719.292969 -476.273438 C 714.929688 -477.375 710.53125 -478.335938 706.101562 -479.148438 C 701.671875 -479.960938 697.21875 -480.625 692.746094 -481.140625 C 687.695312 -481.890625 682.636719 -482.550781 677.566406 -483.121094 C 672.496094 -483.691406 667.414062 -484.175781 662.328125 -484.570312 C 657.238281 -484.960938 652.144531 -485.265625 647.046875 -485.484375 C 641.949219 -485.699219 636.847656 -485.824219 631.746094 -485.863281 C 626.640625 -485.898438 621.539062 -485.847656 616.4375 -485.707031 C 611.335938 -485.566406 606.238281 -485.335938 601.148438 -485.015625 C 596.054688 -484.695312 590.96875 -484.285156 585.890625 -483.789062 C 580.808594 -483.292969 575.742188 -482.707031 570.683594 -482.03125 C 565.625 -481.355469 560.578125 -480.59375 555.546875 -479.742188 C 550.515625 -478.890625 545.5 -477.949219 540.5 -476.925781 C 535.503906 -475.898438 530.523438 -474.785156 525.5625 -473.582031 C 520.605469 -472.382812 515.667969 -471.09375 510.75 -469.71875 C 505.835938 -468.347656 500.949219 -466.886719 496.082031 -465.34375 C 491.21875 -463.796875 486.386719 -462.167969 481.578125 -460.453125 C 476.769531 -458.742188 471.996094 -456.941406 467.253906 -455.0625 C 462.507812 -453.179688 457.796875 -451.21875 453.125 -449.171875 C 448.449219 -447.125 443.808594 -445 439.210938 -442.789062 C 434.609375 -440.582031 430.046875 -438.292969 425.527344 -435.925781 C 421.007812 -433.558594 416.527344 -431.113281 412.09375 -428.589844 C 407.65625 -426.066406 403.269531 -423.464844 398.925781 -420.785156 C 394.578125 -418.109375 390.285156 -415.355469 386.035156 -412.527344 C 381.789062 -409.699219 377.589844 -406.796875 373.445312 -403.824219 C 369.296875 -400.847656 365.207031 -397.800781 361.164062 -394.683594 C 357.125 -391.566406 353.140625 -388.375 349.214844 -385.121094 C 345.285156 -381.863281 341.414062 -378.535156 337.601562 -375.144531 C 333.792969 -371.75 330.039062 -368.292969 326.347656 -364.769531 C 322.65625 -361.242188 319.03125 -357.65625 315.464844 -354.003906 C 311.898438 -350.355469 308.398438 -346.640625 304.960938 -342.867188 C 301.527344 -339.09375 298.160156 -335.261719 294.855469 -331.371094 C 291.554688 -327.480469 288.324219 -323.53125 285.160156 -319.527344 C 281.996094 -315.523438 278.90625 -311.464844 275.882812 -307.351562 C 272.863281 -303.238281 269.914062 -299.074219 267.039062 -294.859375 C 120.328125 -81.4375 156.230469 250.136719 365.691406 615.070312 Z M 732.882812 -99.53125 C 719.558594 -99.46875 706.273438 -98.714844 693.027344 -97.269531 C 632.535156 -90.203125 591.832031 -63.914062 578.261719 -24.054688 C 577.15625 -21.242188 576.238281 -18.363281 575.507812 -15.429688 C 574.78125 -12.492188 574.246094 -9.519531 573.910156 -6.511719 C 573.574219 -3.507812 573.4375 -0.492188 573.496094 2.535156 C 573.558594 5.558594 573.816406 8.566406 574.273438 11.558594 C 574.730469 14.546875 575.382812 17.496094 576.226562 20.398438 C 577.074219 23.304688 578.105469 26.140625 579.328125 28.910156 C 580.546875 31.679688 581.941406 34.355469 583.515625 36.941406 C 585.085938 39.523438 586.824219 41.996094 588.722656 44.351562 C 605.117188 60.179688 641.863281 59.332031 687.375 42.371094 C 695.195312 39.523438 702.878906 36.339844 710.421875 32.824219 C 717.964844 29.304688 725.34375 25.46875 732.554688 21.3125 C 739.765625 17.15625 746.78125 12.695312 753.605469 7.929688 C 760.429688 3.164062 767.035156 -1.890625 773.421875 -7.230469 C 779.804688 -12.570312 785.949219 -18.175781 791.847656 -24.046875 C 797.746094 -29.917969 803.378906 -36.035156 808.746094 -42.398438 C 814.117188 -48.757812 819.199219 -55.339844 823.996094 -62.144531 C 828.792969 -68.945312 833.285156 -75.941406 837.472656 -83.136719 C 820.585938 -88.554688 803.378906 -92.636719 785.859375 -95.386719 C 768.335938 -98.136719 750.707031 -99.515625 732.96875 -99.53125 Z M 732.882812 -99.53125 " fill-opacity="1" fill-rule="nonzero"/><g fill="#191919" fill-opacity="1"><g transform="translate(97.166313, 296.051232)"><g><path d="M 11.890625 1.234375 C 11.140625 1.367188 10.40625 1.4375 9.6875 1.4375 C 6.820312 1.4375 4.625 0.429688 3.09375 -1.578125 C 1.8125 -3.234375 1.171875 -5.34375 1.171875 -7.90625 C 1.171875 -10.925781 2.226562 -13.375 4.34375 -15.25 C 6.019531 -16.726562 8.007812 -17.46875 10.3125 -17.46875 C 13.207031 -17.46875 15.5 -16.582031 17.1875 -14.8125 C 18.6875 -13.226562 19.4375 -11.179688 19.4375 -8.671875 C 19.4375 -6.953125 19.0625 -5.519531 18.3125 -4.375 C 17.53125 -3.175781 16.445312 -2.578125 15.0625 -2.578125 C 14.113281 -2.578125 13.390625 -2.867188 12.890625 -3.453125 C 12.160156 -2.890625 11.28125 -2.609375 10.25 -2.609375 C 8.695312 -2.609375 7.515625 -3.128906 6.703125 -4.171875 C 6.015625 -5.035156 5.671875 -6.160156 5.671875 -7.546875 C 5.671875 -9.265625 6.175781 -10.601562 7.1875 -11.5625 C 8.007812 -12.3125 9.054688 -12.710938 10.328125 -12.765625 C 11.117188 -12.765625 11.878906 -12.5625 12.609375 -12.15625 L 13.78125 -13.09375 L 14.421875 -13.09375 L 14.421875 -4.984375 C 14.421875 -4.609375 14.742188 -4.421875 15.390625 -4.421875 C 16.054688 -4.421875 16.59375 -4.78125 17 -5.5 C 17.414062 -6.21875 17.625 -7.164062 17.625 -8.34375 C 17.625 -10.757812 16.878906 -12.632812 15.390625 -13.96875 C 14.117188 -15.125 12.425781 -15.703125 10.3125 -15.703125 C 8.34375 -15.703125 6.660156 -15.015625 5.265625 -13.640625 C 3.753906 -12.128906 3 -10.234375 3 -7.953125 C 3 -5.359375 3.75 -3.363281 5.25 -1.96875 C 6.570312 -0.726562 8.351562 -0.109375 10.59375 -0.109375 C 11.21875 -0.109375 11.875 -0.15625 12.5625 -0.25 L 12.5625 0.40625 Z M 12.578125 -10.796875 C 11.929688 -11.035156 11.328125 -11.15625 10.765625 -11.15625 C 9.796875 -11.15625 9.007812 -10.828125 8.40625 -10.171875 C 7.8125 -9.523438 7.515625 -8.675781 7.515625 -7.625 C 7.515625 -6.550781 7.785156 -5.707031 8.328125 -5.09375 C 8.878906 -4.476562 9.632812 -4.171875 10.59375 -4.171875 C 11.351562 -4.171875 12.015625 -4.390625 12.578125 -4.828125 Z M 12.578125 -10.796875 "/></g></g></g><g fill="#191919" fill-opacity="1"><g transform="translate(116.932058, 296.051232)"><g><path d="M 1.765625 -18.3125 L 3.84375 -18.3125 L 3.84375 -11.3125 C 4.46875 -12.09375 5.09375 -12.640625 5.71875 -12.953125 C 6.351562 -13.265625 7.140625 -13.421875 8.078125 -13.421875 C 9.359375 -13.421875 10.363281 -13.101562 11.09375 -12.46875 C 11.832031 -11.832031 12.203125 -10.957031 12.203125 -9.84375 L 12.203125 0 L 10.125 0 L 10.125 -9 C 10.125 -9.925781 9.84375 -10.601562 9.28125 -11.03125 C 8.75 -11.414062 8.128906 -11.609375 7.421875 -11.609375 C 6.347656 -11.609375 5.484375 -11.207031 4.828125 -10.40625 C 4.171875 -9.601562 3.84375 -8.539062 3.84375 -7.21875 L 3.84375 0 L 1.765625 0 Z M 1.765625 -18.3125 "/></g></g></g><g fill="#191919" fill-opacity="1"><g transform="translate(130.126217, 296.051232)"><g><path d="M 12.09375 0 L 10.03125 0 L 10.03125 -2.078125 C 9.09375 -0.503906 7.691406 0.28125 5.828125 0.28125 C 4.546875 0.28125 3.523438 -0.0351562 2.765625 -0.671875 C 2.015625 -1.316406 1.640625 -2.175781 1.640625 -3.25 L 1.640625 -13.140625 L 3.703125 -13.140625 L 3.703125 -4.09375 C 3.703125 -3.320312 3.945312 -2.707031 4.4375 -2.25 C 4.9375 -1.789062 5.609375 -1.5625 6.453125 -1.5625 C 7.535156 -1.5625 8.398438 -1.957031 9.046875 -2.75 C 9.703125 -3.539062 10.03125 -4.609375 10.03125 -5.953125 L 10.03125 -13.140625 L 12.09375 -13.140625 Z M 12.09375 0 "/></g></g></g><g fill="#191919" fill-opacity="1"><g transform="translate(143.320375, 296.051232)"><g><path d="M 10.328125 -13.140625 L 12.28125 -13.140625 L 12.28125 -2.15625 C 12.28125 0.695312 11.816406 2.675781 10.890625 3.78125 C 9.972656 4.90625 8.46875 5.46875 6.375 5.46875 C 4.726562 5.46875 3.445312 5.078125 2.53125 4.296875 C 1.707031 3.597656 1.25 2.671875 1.15625 1.515625 L 3.296875 1.515625 C 3.398438 2.191406 3.65625 2.691406 4.0625 3.015625 C 4.664062 3.472656 5.46875 3.703125 6.46875 3.703125 C 7.832031 3.703125 8.804688 3.296875 9.390625 2.484375 C 9.878906 1.785156 10.125 0.59375 10.125 -1.09375 L 10.125 -1.9375 C 9.03125 -0.457031 7.71875 0.28125 6.1875 0.28125 C 4.6875 0.28125 3.414062 -0.28125 2.375 -1.40625 C 1.269531 -2.613281 0.71875 -4.269531 0.71875 -6.375 C 0.71875 -8.625 1.296875 -10.410156 2.453125 -11.734375 C 3.472656 -12.859375 4.757812 -13.421875 6.3125 -13.421875 C 7.988281 -13.421875 9.328125 -12.671875 10.328125 -11.171875 Z M 6.546875 -11.515625 C 5.421875 -11.515625 4.53125 -11.066406 3.875 -10.171875 C 3.21875 -9.273438 2.890625 -8.050781 2.890625 -6.5 C 2.890625 -4.875 3.265625 -3.632812 4.015625 -2.78125 C 4.648438 -2.03125 5.503906 -1.65625 6.578125 -1.65625 C 7.703125 -1.65625 8.570312 -2.082031 9.1875 -2.9375 C 9.8125 -3.789062 10.125 -4.976562 10.125 -6.5 C 10.125 -8.164062 9.765625 -9.441406 9.046875 -10.328125 C 8.421875 -11.117188 7.585938 -11.515625 6.546875 -11.515625 Z M 6.546875 -11.515625 "/></g></g></g><g fill="#191919" fill-opacity="1"><g transform="translate(156.514534, 296.051232)"><g><path d="M 6.90625 -13.421875 C 8.882812 -13.421875 10.394531 -12.734375 11.4375 -11.359375 C 12.351562 -10.160156 12.8125 -8.539062 12.8125 -6.5 C 12.8125 -4.207031 12.21875 -2.46875 11.03125 -1.28125 C 10 -0.238281 8.613281 0.28125 6.875 0.28125 C 4.863281 0.28125 3.332031 -0.390625 2.28125 -1.734375 C 1.351562 -2.910156 0.890625 -4.5 0.890625 -6.5 C 0.890625 -8.8125 1.5 -10.59375 2.71875 -11.84375 C 3.75 -12.894531 5.144531 -13.421875 6.90625 -13.421875 Z M 6.90625 -11.515625 C 5.707031 -11.515625 4.765625 -11.066406 4.078125 -10.171875 C 3.398438 -9.273438 3.0625 -8.050781 3.0625 -6.5 C 3.0625 -4.875 3.445312 -3.632812 4.21875 -2.78125 C 4.882812 -2.03125 5.769531 -1.65625 6.875 -1.65625 C 8.050781 -1.65625 8.96875 -2.082031 9.625 -2.9375 C 10.28125 -3.789062 10.609375 -4.976562 10.609375 -6.5 C 10.609375 -8.164062 10.234375 -9.441406 9.484375 -10.328125 C 8.835938 -11.117188 7.976562 -11.515625 6.90625 -11.515625 Z M 6.90625 -11.515625 "/></g></g></g><g fill="#191919" fill-opacity="1"><g transform="translate(169.70869, 296.051232)"><g><path d="M 9.90625 2.171875 L 9.90625 3.8125 L -0.109375 3.8125 L -0.109375 2.171875 Z M 9.90625 2.171875 "/></g></g></g><g fill="#191919" fill-opacity="1"><g transform="translate(178.760446, 296.051232)"><g><path d="M 1.765625 -18.3125 L 3.84375 -18.3125 L 3.84375 -11.3125 C 4.46875 -12.09375 5.09375 -12.640625 5.71875 -12.953125 C 6.351562 -13.265625 7.140625 -13.421875 8.078125 -13.421875 C 9.359375 -13.421875 10.363281 -13.101562 11.09375 -12.46875 C 11.832031 -11.832031 12.203125 -10.957031 12.203125 -9.84375 L 12.203125 0 L 10.125 0 L 10.125 -9 C 10.125 -9.925781 9.84375 -10.601562 9.28125 -11.03125 C 8.75 -11.414062 8.128906 -11.609375 7.421875 -11.609375 C 6.347656 -11.609375 5.484375 -11.207031 4.828125 -10.40625 C 4.171875 -9.601562 3.84375 -8.539062 3.84375 -7.21875 L 3.84375 0 L 1.765625 0 Z M 1.765625 -18.3125 "/></g></g></g><g fill="#191919" fill-opacity="1"><g transform="translate(191.954607, 296.051232)"><g><path d="M 12.859375 -5.953125 L 3.171875 -5.953125 C 3.191406 -4.828125 3.429688 -3.9375 3.890625 -3.28125 C 4.617188 -2.195312 5.675781 -1.65625 7.0625 -1.65625 C 8.769531 -1.65625 9.921875 -2.46875 10.515625 -4.09375 L 12.609375 -4.09375 C 12.335938 -2.707031 11.707031 -1.628906 10.71875 -0.859375 C 9.726562 -0.0976562 8.484375 0.28125 6.984375 0.28125 C 4.984375 0.28125 3.457031 -0.398438 2.40625 -1.765625 C 1.46875 -2.960938 1 -4.539062 1 -6.5 C 1 -8.769531 1.613281 -10.535156 2.84375 -11.796875 C 3.914062 -12.878906 5.304688 -13.421875 7.015625 -13.421875 C 8.253906 -13.421875 9.347656 -13.125 10.296875 -12.53125 C 11.242188 -11.9375 11.921875 -11.117188 12.328125 -10.078125 C 12.679688 -9.191406 12.859375 -7.84375 12.859375 -6.03125 Z M 10.609375 -7.671875 C 10.609375 -8.816406 10.269531 -9.742188 9.59375 -10.453125 C 8.925781 -11.160156 8.066406 -11.515625 7.015625 -11.515625 C 5.929688 -11.515625 5.050781 -11.164062 4.375 -10.46875 C 3.707031 -9.78125 3.332031 -8.847656 3.25 -7.671875 Z M 10.609375 -7.671875 "/></g></g></g><g fill="#191919" fill-opacity="1"><g transform="translate(205.148763, 296.051232)"><g><path d="M 1.765625 -13.140625 L 3.703125 -13.140625 L 3.703125 -10.921875 C 4.765625 -12.585938 6.21875 -13.421875 8.0625 -13.421875 C 9.332031 -13.421875 10.34375 -13.101562 11.09375 -12.46875 C 11.84375 -11.832031 12.21875 -10.976562 12.21875 -9.90625 L 12.21875 0 L 10.15625 0 L 10.15625 -9.046875 C 10.15625 -9.835938 9.910156 -10.460938 9.421875 -10.921875 C 8.941406 -11.378906 8.28125 -11.609375 7.4375 -11.609375 C 6.351562 -11.609375 5.484375 -11.207031 4.828125 -10.40625 C 4.179688 -9.601562 3.859375 -8.539062 3.859375 -7.21875 L 3.859375 0 L 1.765625 0 Z M 1.765625 -13.140625 "/></g></g></g><g fill="#191919" fill-opacity="1"><g transform="translate(218.342918, 296.051232)"><g><path d="M 12.453125 -18.3125 L 12.453125 0 L 10.359375 0 L 10.359375 -1.8125 C 9.523438 -0.394531 8.226562 0.3125 6.46875 0.3125 C 4.539062 0.3125 3.054688 -0.390625 2.015625 -1.796875 C 1.117188 -3.015625 0.671875 -4.632812 0.671875 -6.65625 C 0.671875 -8.851562 1.257812 -10.570312 2.4375 -11.8125 C 3.4375 -12.882812 4.738281 -13.421875 6.34375 -13.421875 C 8.113281 -13.421875 9.453125 -12.757812 10.359375 -11.4375 L 10.359375 -18.3125 Z M 6.703125 -11.484375 C 5.546875 -11.484375 4.613281 -11.023438 3.90625 -10.109375 C 3.195312 -9.203125 2.84375 -8 2.84375 -6.5 C 2.84375 -4.945312 3.25 -3.726562 4.0625 -2.84375 C 4.757812 -2.050781 5.648438 -1.65625 6.734375 -1.65625 C 7.835938 -1.65625 8.71875 -2.085938 9.375 -2.953125 C 10.03125 -3.828125 10.359375 -5.007812 10.359375 -6.5 C 10.359375 -8.113281 9.984375 -9.375 9.234375 -10.28125 C 8.566406 -11.082031 7.722656 -11.484375 6.703125 -11.484375 Z M 6.703125 -11.484375 "/></g></g></g><g fill="#191919" fill-opacity="1"><g transform="translate(231.537074, 296.051232)"><g><path d="M 1.734375 -13.140625 L 3.6875 -13.140625 L 3.6875 -10.75 C 4.445312 -12.550781 5.65625 -13.453125 7.3125 -13.453125 C 7.519531 -13.453125 7.769531 -13.425781 8.0625 -13.375 L 8.0625 -11.234375 C 6.695312 -11.210938 5.757812 -11.015625 5.25 -10.640625 C 4.3125 -9.960938 3.84375 -8.691406 3.84375 -6.828125 L 3.84375 0 L 1.734375 0 Z M 1.734375 -13.140625 "/></g></g></g><g fill="#191919" fill-opacity="1"><g transform="translate(239.131316, 296.051232)"><g><path d="M 3.734375 -13.140625 L 3.734375 0 L 1.65625 0 L 1.65625 -13.140625 Z M 2.734375 -18.28125 C 3.097656 -18.28125 3.398438 -18.15625 3.640625 -17.90625 C 3.890625 -17.664062 4.015625 -17.375 4.015625 -17.03125 C 4.015625 -16.675781 3.890625 -16.375 3.640625 -16.125 C 3.398438 -15.875 3.097656 -15.75 2.734375 -15.75 C 2.390625 -15.75 2.09375 -15.875 1.84375 -16.125 C 1.601562 -16.375 1.484375 -16.675781 1.484375 -17.03125 C 1.484375 -17.375 1.601562 -17.664062 1.84375 -17.90625 C 2.09375 -18.15625 2.390625 -18.28125 2.734375 -18.28125 Z M 2.734375 -18.28125 "/></g></g></g><g fill="#191919" fill-opacity="1"><g transform="translate(243.938383, 296.051232)"><g><path d="M 7.34375 -6.796875 L 11.890625 0 L 9.46875 0 L 6.171875 -5.0625 L 2.8125 0 L 0.4375 0 L 5.09375 -6.703125 L 0.671875 -13.140625 L 3.0625 -13.140625 L 6.234375 -8.390625 L 9.40625 -13.140625 L 11.765625 -13.140625 Z M 7.34375 -6.796875 "/></g></g></g><g fill="#191919" fill-opacity="1"><g transform="translate(28.500002, 211.8242)"><g><path d="M 28.828125 -30.765625 L 18.828125 0 L 9.578125 0 L -0.171875 -30.765625 L 8.25 -30.765625 L 11.046875 -21.828125 C 12.617188 -16.816406 13.707031 -12.175781 14.3125 -7.90625 C 14.96875 -12.207031 16.070312 -16.832031 17.625 -21.78125 L 20.40625 -30.765625 Z M 28.828125 -30.765625 "/></g></g></g><g fill="#191919" fill-opacity="1"><g transform="translate(55.865908, 211.8242)"><g><path d="M 24.015625 0 L 16.59375 0 C 16.363281 -0.71875 16.234375 -1.421875 16.203125 -2.109375 C 14.828125 -0.296875 12.390625 0.609375 8.890625 0.609375 C 6.285156 0.609375 4.28125 -0.0820312 2.875 -1.46875 C 1.644531 -2.664062 1.03125 -4.253906 1.03125 -6.234375 C 1.03125 -8.953125 2.234375 -10.867188 4.640625 -11.984375 C 5.671875 -12.441406 7.789062 -12.972656 11 -13.578125 L 16.078125 -14.53125 L 16.078125 -15.859375 C 16.015625 -17.492188 14.878906 -18.3125 12.671875 -18.3125 C 11.472656 -18.3125 10.59375 -18.101562 10.03125 -17.6875 C 9.476562 -17.269531 9.113281 -16.53125 8.9375 -15.46875 L 2.015625 -15.46875 C 2.273438 -20.425781 5.859375 -22.90625 12.765625 -22.90625 C 16.429688 -22.90625 19.179688 -22.242188 21.015625 -20.921875 C 21.867188 -20.265625 22.453125 -19.523438 22.765625 -18.703125 C 23.085938 -17.890625 23.25 -16.65625 23.25 -15 C 23.25 -14.707031 23.234375 -13.816406 23.203125 -12.328125 L 23.203125 -11.859375 L 23.15625 -8.171875 C 23.15625 -7.160156 23.15625 -6.484375 23.15625 -6.140625 C 23.15625 -5.796875 23.144531 -5.253906 23.125 -4.515625 C 23.125 -4.109375 23.125 -3.789062 23.125 -3.5625 C 23.125 -1.957031 23.421875 -0.769531 24.015625 0 Z M 16.15625 -10.1875 L 12.8125 -9.453125 C 11.0625 -9.054688 9.898438 -8.65625 9.328125 -8.25 C 8.753906 -7.851562 8.46875 -7.253906 8.46875 -6.453125 C 8.46875 -4.703125 9.457031 -3.828125 11.4375 -3.828125 C 13.09375 -3.828125 14.378906 -4.414062 15.296875 -5.59375 C 15.816406 -6.21875 16.085938 -7.21875 16.109375 -8.59375 Z M 16.15625 -10.1875 "/></g></g></g><g fill="#191919" fill-opacity="1"><g transform="translate(79.794936, 211.8242)"><g><path d="M 9.578125 -22.296875 L 9.578125 -19.34375 C 11.242188 -21.71875 13.535156 -22.90625 16.453125 -22.90625 C 19.410156 -22.90625 21.503906 -21.71875 22.734375 -19.34375 C 24.535156 -21.71875 26.898438 -22.90625 29.828125 -22.90625 C 32.398438 -22.90625 34.390625 -22.101562 35.796875 -20.5 C 36.992188 -19.0625 37.59375 -17.171875 37.59375 -14.828125 L 37.59375 0 L 30.296875 0 L 30.296875 -12.9375 C 30.296875 -15.601562 29.265625 -16.9375 27.203125 -16.9375 C 25.796875 -16.9375 24.789062 -16.363281 24.1875 -15.21875 C 23.875 -14.613281 23.71875 -13.625 23.71875 -12.25 L 23.71875 0 L 16.421875 0 L 16.421875 -13.234375 C 16.421875 -15.703125 15.429688 -16.9375 13.453125 -16.9375 C 11.046875 -16.9375 9.84375 -15.375 9.84375 -12.25 L 9.84375 0 L 2.53125 0 L 2.53125 -22.296875 Z M 9.578125 -22.296875 "/></g></g></g><g fill="#191919" fill-opacity="1"><g transform="translate(118.416597, 211.8242)"><g><path d="M 13.0625 0.609375 C 9.3125 0.609375 6.332031 -0.625 4.125 -3.09375 C 2.207031 -5.238281 1.25 -7.929688 1.25 -11.171875 C 1.25 -14.898438 2.476562 -17.863281 4.9375 -20.0625 C 7.09375 -21.957031 9.785156 -22.90625 13.015625 -22.90625 C 16.796875 -22.90625 19.789062 -21.6875 22 -19.25 C 23.894531 -17.15625 24.84375 -14.476562 24.84375 -11.21875 C 24.84375 -7.46875 23.609375 -4.488281 21.140625 -2.28125 C 18.992188 -0.351562 16.300781 0.609375 13.0625 0.609375 Z M 12.984375 -17.578125 C 11.609375 -17.578125 10.546875 -17.015625 9.796875 -15.890625 C 9.054688 -14.773438 8.6875 -13.203125 8.6875 -11.171875 C 8.6875 -6.878906 10.144531 -4.734375 13.0625 -4.734375 C 15.988281 -4.734375 17.453125 -6.894531 17.453125 -11.21875 C 17.453125 -15.457031 15.960938 -17.578125 12.984375 -17.578125 Z M 12.984375 -17.578125 "/></g></g></g><g fill="#191919" fill-opacity="1"><g transform="translate(143.204848, 211.8242)"><g><path d="M 21.65625 -16.03125 L 14.90625 -16.03125 C 14.789062 -16.882812 14.453125 -17.488281 13.890625 -17.84375 C 13.335938 -18.207031 12.429688 -18.390625 11.171875 -18.390625 C 9.222656 -18.390625 8.25 -17.789062 8.25 -16.59375 C 8.25 -15.957031 8.554688 -15.492188 9.171875 -15.203125 C 9.785156 -14.921875 11.210938 -14.566406 13.453125 -14.140625 C 16.691406 -13.503906 18.960938 -12.664062 20.265625 -11.625 C 21.566406 -10.582031 22.21875 -9.070312 22.21875 -7.09375 C 22.21875 -4.507812 21.144531 -2.53125 19 -1.15625 C 17.101562 0.0195312 14.59375 0.609375 11.46875 0.609375 C 7.519531 0.609375 4.597656 -0.320312 2.703125 -2.1875 C 1.785156 -3.101562 1.191406 -3.828125 0.921875 -4.359375 C 0.648438 -4.890625 0.472656 -5.757812 0.390625 -6.96875 L 7.5625 -6.96875 C 7.675781 -5.9375 8.023438 -5.210938 8.609375 -4.796875 C 9.203125 -4.378906 10.1875 -4.171875 11.5625 -4.171875 C 13.851562 -4.171875 15 -4.929688 15 -6.453125 C 15 -7.109375 14.722656 -7.585938 14.171875 -7.890625 C 13.628906 -8.191406 12.34375 -8.570312 10.3125 -9.03125 C 7.132812 -9.71875 4.972656 -10.375 3.828125 -11 C 1.992188 -12.03125 1.078125 -13.691406 1.078125 -15.984375 C 1.078125 -18.222656 1.960938 -19.9375 3.734375 -21.125 C 5.515625 -22.3125 8.035156 -22.90625 11.296875 -22.90625 C 15.335938 -22.90625 18.21875 -21.945312 19.9375 -20.03125 C 20.96875 -18.90625 21.539062 -17.570312 21.65625 -16.03125 Z M 21.65625 -16.03125 "/></g></g></g><g fill="#191919" fill-opacity="1"><g transform="translate(28.500002, 245.574197)"><g><path d="M 24.1875 -8.765625 C 23.757812 -5.585938 22.441406 -3.179688 20.234375 -1.546875 C 18.316406 -0.109375 15.910156 0.609375 13.015625 0.609375 C 9.234375 0.609375 6.253906 -0.597656 4.078125 -3.015625 C 2.191406 -5.097656 1.25 -7.742188 1.25 -10.953125 C 1.25 -14.828125 2.46875 -17.851562 4.90625 -20.03125 C 7.050781 -21.945312 9.769531 -22.90625 13.0625 -22.90625 C 16.414062 -22.90625 19.09375 -22.015625 21.09375 -20.234375 C 22.875 -18.660156 23.847656 -16.65625 24.015625 -14.21875 L 16.9375 -14.21875 C 16.5625 -16.457031 15.3125 -17.578125 13.1875 -17.578125 C 10.1875 -17.578125 8.6875 -15.382812 8.6875 -11 C 8.6875 -6.90625 10.144531 -4.859375 13.0625 -4.859375 C 15.382812 -4.859375 16.742188 -6.160156 17.140625 -8.765625 Z M 24.1875 -8.765625 "/></g></g></g><g fill="#191919" fill-opacity="1"><g transform="translate(52.47199, 245.574197)"><g><path d="M 13.0625 0.609375 C 9.3125 0.609375 6.332031 -0.625 4.125 -3.09375 C 2.207031 -5.238281 1.25 -7.929688 1.25 -11.171875 C 1.25 -14.898438 2.476562 -17.863281 4.9375 -20.0625 C 7.09375 -21.957031 9.785156 -22.90625 13.015625 -22.90625 C 16.796875 -22.90625 19.789062 -21.6875 22 -19.25 C 23.894531 -17.15625 24.84375 -14.476562 24.84375 -11.21875 C 24.84375 -7.46875 23.609375 -4.488281 21.140625 -2.28125 C 18.992188 -0.351562 16.300781 0.609375 13.0625 0.609375 Z M 12.984375 -17.578125 C 11.609375 -17.578125 10.546875 -17.015625 9.796875 -15.890625 C 9.054688 -14.773438 8.6875 -13.203125 8.6875 -11.171875 C 8.6875 -6.878906 10.144531 -4.734375 13.0625 -4.734375 C 15.988281 -4.734375 17.453125 -6.894531 17.453125 -11.21875 C 17.453125 -15.457031 15.960938 -17.578125 12.984375 -17.578125 Z M 12.984375 -17.578125 "/></g></g></g><g fill="#191919" fill-opacity="1"><g transform="translate(77.260241, 245.574197)"><g><path d="M 9.578125 -22.296875 L 9.578125 -19.34375 C 11.359375 -21.71875 13.796875 -22.90625 16.890625 -22.90625 C 19.867188 -22.90625 22.046875 -21.914062 23.421875 -19.9375 C 24.304688 -18.625 24.75 -16.59375 24.75 -13.84375 L 24.75 0 L 17.40625 0 L 17.40625 -12.640625 C 17.40625 -13.804688 17.289062 -14.675781 17.0625 -15.25 C 16.601562 -16.375 15.585938 -16.9375 14.015625 -16.9375 C 12.296875 -16.9375 11.09375 -16.273438 10.40625 -14.953125 C 10.03125 -14.265625 9.84375 -13.25 9.84375 -11.90625 L 9.84375 0 L 2.53125 0 L 2.53125 -22.296875 Z M 9.578125 -22.296875 "/></g></g></g><g fill="#191919" fill-opacity="1"><g transform="translate(103.036586, 245.574197)"><g><path d="M 23.125 -22.296875 L 15.734375 0 L 7.21875 0 L -0.34375 -22.296875 L 7.390625 -22.296875 L 9.671875 -14.5625 C 10.523438 -11.757812 11.140625 -9.082031 11.515625 -6.53125 C 11.828125 -8.5625 12.429688 -11.125 13.328125 -14.21875 L 15.734375 -22.296875 Z M 23.125 -22.296875 "/></g></g></g><g fill="#191919" fill-opacity="1"><g transform="translate(124.516842, 245.574197)"><g><path d="M 24.578125 -6.828125 C 24.234375 -5.515625 23.578125 -4.300781 22.609375 -3.1875 C 20.398438 -0.65625 17.347656 0.609375 13.453125 0.609375 C 9.929688 0.609375 7.082031 -0.367188 4.90625 -2.328125 C 2.46875 -4.503906 1.25 -7.378906 1.25 -10.953125 C 1.25 -14.710938 2.507812 -17.722656 5.03125 -19.984375 C 7.207031 -21.929688 9.914062 -22.90625 13.15625 -22.90625 C 17.070312 -22.90625 20.09375 -21.613281 22.21875 -19.03125 C 24.082031 -16.769531 25.015625 -13.804688 25.015625 -10.140625 C 25.015625 -9.878906 25.015625 -9.648438 25.015625 -9.453125 L 8.421875 -9.453125 C 8.484375 -7.847656 8.957031 -6.59375 9.84375 -5.6875 C 10.726562 -4.789062 11.929688 -4.34375 13.453125 -4.34375 C 15.316406 -4.34375 16.734375 -5.171875 17.703125 -6.828125 Z M 17.828125 -13.625 C 17.460938 -16.519531 15.929688 -17.96875 13.234375 -17.96875 C 10.515625 -17.96875 8.941406 -16.519531 8.515625 -13.625 Z M 17.828125 -13.625 "/></g></g></g><g fill="#191919" fill-opacity="1"><g transform="translate(149.433969, 245.574197)"><g><path d="M 18.484375 -22.4375 L 18.4375 -16.421875 C 17.375 -16.734375 16.367188 -16.890625 15.421875 -16.890625 C 11.703125 -16.890625 9.84375 -14.5 9.84375 -9.71875 L 9.84375 0 L 2.53125 0 L 2.53125 -22.296875 L 9.578125 -22.296875 L 9.578125 -18.484375 C 10.441406 -21.429688 12.835938 -22.90625 16.765625 -22.90625 C 17.222656 -22.90625 17.796875 -22.75 18.484375 -22.4375 Z M 18.484375 -22.4375 "/></g></g></g><g fill="#191919" fill-opacity="1"><g transform="translate(167.004769, 245.574197)"><g><path d="M 21.65625 -16.03125 L 14.90625 -16.03125 C 14.789062 -16.882812 14.453125 -17.488281 13.890625 -17.84375 C 13.335938 -18.207031 12.429688 -18.390625 11.171875 -18.390625 C 9.222656 -18.390625 8.25 -17.789062 8.25 -16.59375 C 8.25 -15.957031 8.554688 -15.492188 9.171875 -15.203125 C 9.785156 -14.921875 11.210938 -14.566406 13.453125 -14.140625 C 16.691406 -13.503906 18.960938 -12.664062 20.265625 -11.625 C 21.566406 -10.582031 22.21875 -9.070312 22.21875 -7.09375 C 22.21875 -4.507812 21.144531 -2.53125 19 -1.15625 C 17.101562 0.0195312 14.59375 0.609375 11.46875 0.609375 C 7.519531 0.609375 4.597656 -0.320312 2.703125 -2.1875 C 1.785156 -3.101562 1.191406 -3.828125 0.921875 -4.359375 C 0.648438 -4.890625 0.472656 -5.757812 0.390625 -6.96875 L 7.5625 -6.96875 C 7.675781 -5.9375 8.023438 -5.210938 8.609375 -4.796875 C 9.203125 -4.378906 10.1875 -4.171875 11.5625 -4.171875 C 13.851562 -4.171875 15 -4.929688 15 -6.453125 C 15 -7.109375 14.722656 -7.585938 14.171875 -7.890625 C 13.628906 -8.191406 12.34375 -8.570312 10.3125 -9.03125 C 7.132812 -9.71875 4.972656 -10.375 3.828125 -11 C 1.992188 -12.03125 1.078125 -13.691406 1.078125 -15.984375 C 1.078125 -18.222656 1.960938 -19.9375 3.734375 -21.125 C 5.515625 -22.3125 8.035156 -22.90625 11.296875 -22.90625 C 15.335938 -22.90625 18.21875 -21.945312 19.9375 -20.03125 C 20.96875 -18.90625 21.539062 -17.570312 21.65625 -16.03125 Z M 21.65625 -16.03125 "/></g></g></g><g fill="#191919" fill-opacity="1"><g transform="translate(189.129424, 245.574197)"><g><path d="M 24.015625 0 L 16.59375 0 C 16.363281 -0.71875 16.234375 -1.421875 16.203125 -2.109375 C 14.828125 -0.296875 12.390625 0.609375 8.890625 0.609375 C 6.285156 0.609375 4.28125 -0.0820312 2.875 -1.46875 C 1.644531 -2.664062 1.03125 -4.253906 1.03125 -6.234375 C 1.03125 -8.953125 2.234375 -10.867188 4.640625 -11.984375 C 5.671875 -12.441406 7.789062 -12.972656 11 -13.578125 L 16.078125 -14.53125 L 16.078125 -15.859375 C 16.015625 -17.492188 14.878906 -18.3125 12.671875 -18.3125 C 11.472656 -18.3125 10.59375 -18.101562 10.03125 -17.6875 C 9.476562 -17.269531 9.113281 -16.53125 8.9375 -15.46875 L 2.015625 -15.46875 C 2.273438 -20.425781 5.859375 -22.90625 12.765625 -22.90625 C 16.429688 -22.90625 19.179688 -22.242188 21.015625 -20.921875 C 21.867188 -20.265625 22.453125 -19.523438 22.765625 -18.703125 C 23.085938 -17.890625 23.25 -16.65625 23.25 -15 C 23.25 -14.707031 23.234375 -13.816406 23.203125 -12.328125 L 23.203125 -11.859375 L 23.15625 -8.171875 C 23.15625 -7.160156 23.15625 -6.484375 23.15625 -6.140625 C 23.15625 -5.796875 23.144531 -5.253906 23.125 -4.515625 C 23.125 -4.109375 23.125 -3.789062 23.125 -3.5625 C 23.125 -1.957031 23.421875 -0.769531 24.015625 0 Z M 16.15625 -10.1875 L 12.8125 -9.453125 C 11.0625 -9.054688 9.898438 -8.65625 9.328125 -8.25 C 8.753906 -7.851562 8.46875 -7.253906 8.46875 -6.453125 C 8.46875 -4.703125 9.457031 -3.828125 11.4375 -3.828125 C 13.09375 -3.828125 14.378906 -4.414062 15.296875 -5.59375 C 15.816406 -6.21875 16.085938 -7.21875 16.109375 -8.59375 Z M 16.15625 -10.1875 "/></g></g></g><g fill="#191919" fill-opacity="1"><g transform="translate(213.058446, 245.574197)"><g><path d="M 18.484375 -22.4375 L 18.4375 -16.421875 C 17.375 -16.734375 16.367188 -16.890625 15.421875 -16.890625 C 11.703125 -16.890625 9.84375 -14.5 9.84375 -9.71875 L 9.84375 0 L 2.53125 0 L 2.53125 -22.296875 L 9.578125 -22.296875 L 9.578125 -18.484375 C 10.441406 -21.429688 12.835938 -22.90625 16.765625 -22.90625 C 17.222656 -22.90625 17.796875 -22.75 18.484375 -22.4375 Z M 18.484375 -22.4375 "/></g></g></g><g fill="#191919" fill-opacity="1"><g transform="translate(230.629245, 245.574197)"><g><path d="M 1.984375 -20.75 C 2.148438 -24.414062 3.363281 -27.195312 5.625 -29.09375 C 7.601562 -30.726562 10.210938 -31.546875 13.453125 -31.546875 C 16.890625 -31.546875 19.625 -30.597656 21.65625 -28.703125 C 23.375 -27.046875 24.234375 -24.957031 24.234375 -22.4375 C 24.234375 -20.71875 23.835938 -19.328125 23.046875 -18.265625 C 22.265625 -17.203125 20.6875 -15.96875 18.3125 -14.5625 C 17.28125 -13.9375 16.617188 -13.125 16.328125 -12.125 C 16.242188 -11.800781 16.1875 -11.171875 16.15625 -10.234375 L 9.328125 -10.234375 L 9.375 -12.46875 C 9.394531 -14.09375 9.851562 -15.46875 10.75 -16.59375 C 11.207031 -17.164062 12.132812 -17.910156 13.53125 -18.828125 C 14.675781 -19.597656 15.425781 -20.21875 15.78125 -20.6875 C 16.144531 -21.164062 16.328125 -21.789062 16.328125 -22.5625 C 16.328125 -23.363281 16.046875 -24.015625 15.484375 -24.515625 C 14.929688 -25.015625 14.210938 -25.265625 13.328125 -25.265625 C 10.941406 -25.265625 9.691406 -23.757812 9.578125 -20.75 Z M 12.9375 -6.75 C 13.851562 -6.75 14.640625 -6.425781 15.296875 -5.78125 C 15.953125 -5.132812 16.28125 -4.351562 16.28125 -3.4375 C 16.28125 -2.488281 15.953125 -1.6875 15.296875 -1.03125 C 14.640625 -0.375 13.851562 -0.046875 12.9375 -0.046875 C 11.988281 -0.046875 11.191406 -0.375 10.546875 -1.03125 C 9.898438 -1.6875 9.578125 -2.488281 9.578125 -3.4375 C 9.578125 -4.351562 9.898438 -5.132812 10.546875 -5.78125 C 11.191406 -6.425781 11.988281 -6.75 12.9375 -6.75 Z M 12.9375 -6.75 "/></g></g></g><g fill="#ffffff" fill-opacity="1"><g transform="translate(28.500002, 109.40442)"><g><path d="M 1.640625 -17.75 L 8.953125 -17.75 C 11.296875 -17.75 12.988281 -17.390625 14.03125 -16.671875 C 15.644531 -15.585938 16.453125 -13.9375 16.453125 -11.71875 C 16.453125 -9.914062 15.84375 -8.460938 14.625 -7.359375 C 13.5625 -6.398438 12 -5.921875 9.9375 -5.921875 L 6.265625 -5.921875 L 6.265625 0 L 1.640625 0 Z M 6.265625 -13.921875 L 6.265625 -9.5625 L 9.3125 -9.5625 C 11.0625 -9.5625 11.9375 -10.289062 11.9375 -11.75 C 11.9375 -13.164062 11.003906 -13.882812 9.140625 -13.90625 Z M 6.265625 -13.921875 "/></g></g></g><g fill="#ffffff" fill-opacity="1"><g transform="translate(44.857956, 109.40442)"><g><path d="M 10.65625 -12.9375 L 10.625 -9.46875 C 10.019531 -9.644531 9.441406 -9.734375 8.890625 -9.734375 C 6.742188 -9.734375 5.671875 -8.351562 5.671875 -5.59375 L 5.671875 0 L 1.46875 0 L 1.46875 -12.859375 L 5.53125 -12.859375 L 5.53125 -10.65625 C 6.019531 -12.351562 7.398438 -13.203125 9.671875 -13.203125 C 9.929688 -13.203125 10.257812 -13.113281 10.65625 -12.9375 Z M 10.65625 -12.9375 "/></g></g></g><g fill="#ffffff" fill-opacity="1"><g transform="translate(54.994823, 109.40442)"><g><path d="M 14.171875 -3.9375 C 13.972656 -3.175781 13.59375 -2.472656 13.03125 -1.828125 C 11.757812 -0.378906 10 0.34375 7.75 0.34375 C 5.71875 0.34375 4.078125 -0.21875 2.828125 -1.34375 C 1.421875 -2.59375 0.71875 -4.25 0.71875 -6.3125 C 0.71875 -8.476562 1.445312 -10.210938 2.90625 -11.515625 C 4.15625 -12.640625 5.710938 -13.203125 7.578125 -13.203125 C 9.847656 -13.203125 11.59375 -12.460938 12.8125 -10.984375 C 13.882812 -9.671875 14.421875 -7.957031 14.421875 -5.84375 C 14.421875 -5.695312 14.421875 -5.566406 14.421875 -5.453125 L 4.859375 -5.453125 C 4.890625 -4.523438 5.160156 -3.800781 5.671875 -3.28125 C 6.179688 -2.757812 6.875 -2.5 7.75 -2.5 C 8.832031 -2.5 9.648438 -2.976562 10.203125 -3.9375 Z M 10.28125 -7.859375 C 10.070312 -9.523438 9.1875 -10.359375 7.625 -10.359375 C 6.0625 -10.359375 5.15625 -9.523438 4.90625 -7.859375 Z M 10.28125 -7.859375 "/></g></g></g><g fill="#ffffff" fill-opacity="1"><g transform="translate(69.369964, 109.40442)"><g><path d="M 13.953125 -5.0625 C 13.703125 -3.21875 12.941406 -1.828125 11.671875 -0.890625 C 10.566406 -0.0664062 9.179688 0.34375 7.515625 0.34375 C 5.328125 0.34375 3.609375 -0.347656 2.359375 -1.734375 C 1.265625 -2.941406 0.71875 -4.46875 0.71875 -6.3125 C 0.71875 -8.550781 1.421875 -10.296875 2.828125 -11.546875 C 4.066406 -12.648438 5.632812 -13.203125 7.53125 -13.203125 C 9.46875 -13.203125 11.015625 -12.691406 12.171875 -11.671875 C 13.191406 -10.765625 13.753906 -9.609375 13.859375 -8.203125 L 9.765625 -8.203125 C 9.546875 -9.492188 8.828125 -10.140625 7.609375 -10.140625 C 5.867188 -10.140625 5 -8.875 5 -6.34375 C 5 -3.976562 5.84375 -2.796875 7.53125 -2.796875 C 8.875 -2.796875 9.660156 -3.550781 9.890625 -5.0625 Z M 13.953125 -5.0625 "/></g></g></g><g fill="#ffffff" fill-opacity="1"><g transform="translate(83.199827, 109.40442)"><g><path d="M 5.671875 -12.859375 L 5.671875 0 L 1.46875 0 L 1.46875 -12.859375 Z M 3.5625 -18.21875 C 4.09375 -18.21875 4.546875 -18.03125 4.921875 -17.65625 C 5.304688 -17.28125 5.5 -16.820312 5.5 -16.28125 C 5.5 -15.75 5.304688 -15.289062 4.921875 -14.90625 C 4.546875 -14.53125 4.09375 -14.34375 3.5625 -14.34375 C 3.019531 -14.34375 2.5625 -14.53125 2.1875 -14.90625 C 1.820312 -15.289062 1.640625 -15.75 1.640625 -16.28125 C 1.640625 -16.820312 1.820312 -17.28125 2.1875 -17.65625 C 2.5625 -18.03125 3.019531 -18.21875 3.5625 -18.21875 Z M 3.5625 -18.21875 "/></g></g></g><g fill="#ffffff" fill-opacity="1"><g transform="translate(89.569345, 109.40442)"><g><path d="M 12.484375 -9.25 L 8.59375 -9.25 C 8.53125 -9.738281 8.335938 -10.085938 8.015625 -10.296875 C 7.691406 -10.503906 7.164062 -10.609375 6.4375 -10.609375 C 5.320312 -10.609375 4.765625 -10.257812 4.765625 -9.5625 C 4.765625 -9.195312 4.941406 -8.929688 5.296875 -8.765625 C 5.648438 -8.609375 6.46875 -8.40625 7.75 -8.15625 C 9.625 -7.789062 10.9375 -7.304688 11.6875 -6.703125 C 12.4375 -6.097656 12.8125 -5.226562 12.8125 -4.09375 C 12.8125 -2.601562 12.191406 -1.460938 10.953125 -0.671875 C 9.859375 0.00390625 8.410156 0.34375 6.609375 0.34375 C 4.335938 0.34375 2.65625 -0.191406 1.5625 -1.265625 C 1.03125 -1.796875 0.6875 -2.210938 0.53125 -2.515625 C 0.375 -2.816406 0.269531 -3.316406 0.21875 -4.015625 L 4.359375 -4.015625 C 4.421875 -3.421875 4.625 -3.003906 4.96875 -2.765625 C 5.3125 -2.523438 5.878906 -2.40625 6.671875 -2.40625 C 7.992188 -2.40625 8.65625 -2.84375 8.65625 -3.71875 C 8.65625 -4.09375 8.492188 -4.367188 8.171875 -4.546875 C 7.859375 -4.722656 7.117188 -4.941406 5.953125 -5.203125 C 4.117188 -5.597656 2.867188 -5.976562 2.203125 -6.34375 C 1.148438 -6.9375 0.625 -7.894531 0.625 -9.21875 C 0.625 -10.507812 1.132812 -11.492188 2.15625 -12.171875 C 3.175781 -12.859375 4.628906 -13.203125 6.515625 -13.203125 C 8.847656 -13.203125 10.507812 -12.648438 11.5 -11.546875 C 12.09375 -10.898438 12.421875 -10.132812 12.484375 -9.25 Z M 12.484375 -9.25 "/></g></g></g><g fill="#ffffff" fill-opacity="1"><g transform="translate(102.333443, 109.40442)"><g><path d="M 13.859375 0 L 9.5625 0 C 9.4375 -0.414062 9.363281 -0.820312 9.34375 -1.21875 C 8.550781 -0.175781 7.144531 0.34375 5.125 0.34375 C 3.625 0.34375 2.46875 -0.0507812 1.65625 -0.84375 C 0.945312 -1.539062 0.59375 -2.457031 0.59375 -3.59375 C 0.59375 -5.164062 1.285156 -6.269531 2.671875 -6.90625 C 3.265625 -7.175781 4.488281 -7.484375 6.34375 -7.828125 L 9.265625 -8.375 L 9.265625 -9.140625 C 9.234375 -10.085938 8.582031 -10.5625 7.3125 -10.5625 C 6.613281 -10.5625 6.101562 -10.441406 5.78125 -10.203125 C 5.457031 -9.960938 5.25 -9.535156 5.15625 -8.921875 L 1.171875 -8.921875 C 1.316406 -11.773438 3.378906 -13.203125 7.359375 -13.203125 C 9.472656 -13.203125 11.0625 -12.820312 12.125 -12.0625 C 12.613281 -11.6875 12.945312 -11.265625 13.125 -10.796875 C 13.3125 -10.328125 13.40625 -9.613281 13.40625 -8.65625 C 13.40625 -8.488281 13.394531 -7.972656 13.375 -7.109375 L 13.375 -6.84375 L 13.359375 -4.703125 C 13.359375 -4.128906 13.359375 -3.742188 13.359375 -3.546875 C 13.359375 -3.347656 13.347656 -3.035156 13.328125 -2.609375 C 13.328125 -2.367188 13.328125 -2.1875 13.328125 -2.0625 C 13.328125 -1.132812 13.503906 -0.445312 13.859375 0 Z M 9.3125 -5.875 L 7.390625 -5.453125 C 6.378906 -5.222656 5.707031 -4.988281 5.375 -4.75 C 5.039062 -4.519531 4.875 -4.175781 4.875 -3.71875 C 4.875 -2.707031 5.445312 -2.203125 6.59375 -2.203125 C 7.550781 -2.203125 8.296875 -2.539062 8.828125 -3.21875 C 9.117188 -3.582031 9.273438 -4.160156 9.296875 -4.953125 Z M 9.3125 -5.875 "/></g></g></g><g fill="#ffffff" fill-opacity="1"><g transform="translate(116.138519, 109.40442)"><g/></g></g><g fill="#ffffff" fill-opacity="1"><g transform="translate(119.955158, 109.40442)"><g><path d="M 14.21875 -17.75 L 14.21875 0 L 9.984375 0 L 9.984375 -1.515625 C 9.242188 -0.273438 8.082031 0.34375 6.5 0.34375 C 4.644531 0.34375 3.1875 -0.359375 2.125 -1.765625 C 1.21875 -3.003906 0.765625 -4.585938 0.765625 -6.515625 C 0.765625 -8.679688 1.335938 -10.375 2.484375 -11.59375 C 3.472656 -12.6875 4.734375 -13.234375 6.265625 -13.234375 C 7.867188 -13.234375 9.109375 -12.613281 9.984375 -11.375 L 9.984375 -17.75 Z M 7.578125 -9.9375 C 6.773438 -9.9375 6.15625 -9.632812 5.71875 -9.03125 C 5.28125 -8.425781 5.0625 -7.582031 5.0625 -6.5 C 5.0625 -4.226562 5.898438 -3.09375 7.578125 -3.09375 C 8.390625 -3.09375 9.019531 -3.394531 9.46875 -4 C 9.925781 -4.601562 10.15625 -5.4375 10.15625 -6.5 C 10.15625 -7.570312 9.921875 -8.410156 9.453125 -9.015625 C 8.992188 -9.628906 8.367188 -9.9375 7.578125 -9.9375 Z M 7.578125 -9.9375 "/></g></g></g><g fill="#ffffff" fill-opacity="1"><g transform="translate(134.875574, 109.40442)"><g><path d="M 14.171875 -3.9375 C 13.972656 -3.175781 13.59375 -2.472656 13.03125 -1.828125 C 11.757812 -0.378906 10 0.34375 7.75 0.34375 C 5.71875 0.34375 4.078125 -0.21875 2.828125 -1.34375 C 1.421875 -2.59375 0.71875 -4.25 0.71875 -6.3125 C 0.71875 -8.476562 1.445312 -10.210938 2.90625 -11.515625 C 4.15625 -12.640625 5.710938 -13.203125 7.578125 -13.203125 C 9.847656 -13.203125 11.59375 -12.460938 12.8125 -10.984375 C 13.882812 -9.671875 14.421875 -7.957031 14.421875 -5.84375 C 14.421875 -5.695312 14.421875 -5.566406 14.421875 -5.453125 L 4.859375 -5.453125 C 4.890625 -4.523438 5.160156 -3.800781 5.671875 -3.28125 C 6.179688 -2.757812 6.875 -2.5 7.75 -2.5 C 8.832031 -2.5 9.648438 -2.976562 10.203125 -3.9375 Z M 10.28125 -7.859375 C 10.070312 -9.523438 9.1875 -10.359375 7.625 -10.359375 C 6.0625 -10.359375 5.15625 -9.523438 4.90625 -7.859375 Z M 10.28125 -7.859375 "/></g></g></g><g fill="#ffffff" fill-opacity="1"><g transform="translate(149.250715, 109.40442)"><g/></g></g><g fill="#ffffff" fill-opacity="1"><g transform="translate(153.067353, 109.40442)"><g><path d="M 14.171875 -12.859375 L 14.171875 0 L 9.9375 0 L 9.9375 -1.734375 C 9.125 -0.347656 7.785156 0.34375 5.921875 0.34375 C 4.285156 0.34375 3.054688 -0.191406 2.234375 -1.265625 C 1.648438 -2.003906 1.359375 -3.1875 1.359375 -4.8125 L 1.359375 -12.859375 L 5.578125 -12.859375 L 5.578125 -6 C 5.578125 -4.894531 5.679688 -4.179688 5.890625 -3.859375 C 6.222656 -3.347656 6.785156 -3.09375 7.578125 -3.09375 C 8.554688 -3.09375 9.253906 -3.5 9.671875 -4.3125 C 9.847656 -4.6875 9.9375 -5.378906 9.9375 -6.390625 L 9.9375 -12.859375 Z M 14.171875 -12.859375 "/></g></g></g><g fill="#ffffff" fill-opacity="1"><g transform="translate(167.938194, 109.40442)"><g><path d="M 5.53125 -12.859375 L 5.53125 -11.15625 C 6.488281 -12.519531 7.804688 -13.203125 9.484375 -13.203125 C 11.191406 -13.203125 12.398438 -12.519531 13.109375 -11.15625 C 14.148438 -12.519531 15.515625 -13.203125 17.203125 -13.203125 C 18.679688 -13.203125 19.828125 -12.742188 20.640625 -11.828125 C 21.335938 -10.992188 21.6875 -9.898438 21.6875 -8.546875 L 21.6875 0 L 17.46875 0 L 17.46875 -7.453125 C 17.46875 -8.992188 16.875 -9.765625 15.6875 -9.765625 C 14.875 -9.765625 14.296875 -9.429688 13.953125 -8.765625 C 13.765625 -8.421875 13.671875 -7.851562 13.671875 -7.0625 L 13.671875 0 L 9.46875 0 L 9.46875 -7.625 C 9.46875 -9.050781 8.894531 -9.765625 7.75 -9.765625 C 6.363281 -9.765625 5.671875 -8.863281 5.671875 -7.0625 L 5.671875 0 L 1.46875 0 L 1.46875 -12.859375 Z M 5.53125 -12.859375 "/></g></g></g><g fill="#ffffff" fill-opacity="1"><g transform="translate(190.219817, 109.40442)"><g/></g></g><g fill="#ffffff" fill-opacity="1"><g transform="translate(194.036455, 109.40442)"><g><path d="M 12.484375 -9.25 L 8.59375 -9.25 C 8.53125 -9.738281 8.335938 -10.085938 8.015625 -10.296875 C 7.691406 -10.503906 7.164062 -10.609375 6.4375 -10.609375 C 5.320312 -10.609375 4.765625 -10.257812 4.765625 -9.5625 C 4.765625 -9.195312 4.941406 -8.929688 5.296875 -8.765625 C 5.648438 -8.609375 6.46875 -8.40625 7.75 -8.15625 C 9.625 -7.789062 10.9375 -7.304688 11.6875 -6.703125 C 12.4375 -6.097656 12.8125 -5.226562 12.8125 -4.09375 C 12.8125 -2.601562 12.191406 -1.460938 10.953125 -0.671875 C 9.859375 0.00390625 8.410156 0.34375 6.609375 0.34375 C 4.335938 0.34375 2.65625 -0.191406 1.5625 -1.265625 C 1.03125 -1.796875 0.6875 -2.210938 0.53125 -2.515625 C 0.375 -2.816406 0.269531 -3.316406 0.21875 -4.015625 L 4.359375 -4.015625 C 4.421875 -3.421875 4.625 -3.003906 4.96875 -2.765625 C 5.3125 -2.523438 5.878906 -2.40625 6.671875 -2.40625 C 7.992188 -2.40625 8.65625 -2.84375 8.65625 -3.71875 C 8.65625 -4.09375 8.492188 -4.367188 8.171875 -4.546875 C 7.859375 -4.722656 7.117188 -4.941406 5.953125 -5.203125 C 4.117188 -5.597656 2.867188 -5.976562 2.203125 -6.34375 C 1.148438 -6.9375 0.625 -7.894531 0.625 -9.21875 C 0.625 -10.507812 1.132812 -11.492188 2.15625 -12.171875 C 3.175781 -12.859375 4.628906 -13.203125 6.515625 -13.203125 C 8.847656 -13.203125 10.507812 -12.648438 11.5 -11.546875 C 12.09375 -10.898438 12.421875 -10.132812 12.484375 -9.25 Z M 12.484375 -9.25 "/></g></g></g><g fill="#ffffff" fill-opacity="1"><g transform="translate(206.800554, 109.40442)"><g><path d="M 5.671875 -12.859375 L 5.671875 0 L 1.46875 0 L 1.46875 -12.859375 Z M 3.5625 -18.21875 C 4.09375 -18.21875 4.546875 -18.03125 4.921875 -17.65625 C 5.304688 -17.28125 5.5 -16.820312 5.5 -16.28125 C 5.5 -15.75 5.304688 -15.289062 4.921875 -14.90625 C 4.546875 -14.53125 4.09375 -14.34375 3.5625 -14.34375 C 3.019531 -14.34375 2.5625 -14.53125 2.1875 -14.90625 C 1.820312 -15.289062 1.640625 -15.75 1.640625 -16.28125 C 1.640625 -16.820312 1.820312 -17.28125 2.1875 -17.65625 C 2.5625 -18.03125 3.019531 -18.21875 3.5625 -18.21875 Z M 3.5625 -18.21875 "/></g></g></g><g fill="#ffffff" fill-opacity="1"><g transform="translate(213.170071, 109.40442)"><g><path d="M 9.21875 -12.859375 L 9.21875 -10.09375 L 6.171875 -10.09375 L 6.171875 -4.78125 C 6.171875 -3.59375 6.707031 -3 7.78125 -3 C 8.40625 -3 8.898438 -3.125 9.265625 -3.375 L 10.015625 -0.34375 C 9.203125 0 8.019531 0.171875 6.46875 0.171875 C 4.550781 0.171875 3.269531 -0.238281 2.625 -1.0625 C 2.34375 -1.425781 2.160156 -1.820312 2.078125 -2.25 C 1.992188 -2.6875 1.953125 -3.398438 1.953125 -4.390625 L 1.953125 -10.09375 L -0.203125 -10.09375 L -0.203125 -12.859375 L 1.953125 -12.859375 L 1.953125 -15.59375 L 6.171875 -17.796875 L 6.171875 -12.859375 Z M 9.21875 -12.859375 "/></g></g></g><g fill="#ffffff" fill-opacity="1"><g transform="translate(221.745472, 109.40442)"><g><path d="M 14.171875 -3.9375 C 13.972656 -3.175781 13.59375 -2.472656 13.03125 -1.828125 C 11.757812 -0.378906 10 0.34375 7.75 0.34375 C 5.71875 0.34375 4.078125 -0.21875 2.828125 -1.34375 C 1.421875 -2.59375 0.71875 -4.25 0.71875 -6.3125 C 0.71875 -8.476562 1.445312 -10.210938 2.90625 -11.515625 C 4.15625 -12.640625 5.710938 -13.203125 7.578125 -13.203125 C 9.847656 -13.203125 11.59375 -12.460938 12.8125 -10.984375 C 13.882812 -9.671875 14.421875 -7.957031 14.421875 -5.84375 C 14.421875 -5.695312 14.421875 -5.566406 14.421875 -5.453125 L 4.859375 -5.453125 C 4.890625 -4.523438 5.160156 -3.800781 5.671875 -3.28125 C 6.179688 -2.757812 6.875 -2.5 7.75 -2.5 C 8.832031 -2.5 9.648438 -2.976562 10.203125 -3.9375 Z M 10.28125 -7.859375 C 10.070312 -9.523438 9.1875 -10.359375 7.625 -10.359375 C 6.0625 -10.359375 5.15625 -9.523438 4.90625 -7.859375 Z M 10.28125 -7.859375 "/></g></g></g><g fill="#ffffff" fill-opacity="1"><g transform="translate(236.120624, 109.40442)"><g><path d="M 1.140625 -11.96875 C 1.234375 -14.082031 1.9375 -15.6875 3.25 -16.78125 C 4.382812 -17.71875 5.882812 -18.1875 7.75 -18.1875 C 9.738281 -18.1875 11.316406 -17.640625 12.484375 -16.546875 C 13.484375 -15.585938 13.984375 -14.382812 13.984375 -12.9375 C 13.984375 -11.945312 13.753906 -11.144531 13.296875 -10.53125 C 12.835938 -9.914062 11.925781 -9.207031 10.5625 -8.40625 C 9.96875 -8.039062 9.585938 -7.566406 9.421875 -6.984375 C 9.367188 -6.804688 9.332031 -6.441406 9.3125 -5.890625 L 5.375 -5.890625 L 5.40625 -7.1875 C 5.414062 -8.125 5.675781 -8.914062 6.1875 -9.5625 C 6.457031 -9.894531 7 -10.328125 7.8125 -10.859375 C 8.46875 -11.296875 8.898438 -11.648438 9.109375 -11.921875 C 9.316406 -12.203125 9.421875 -12.566406 9.421875 -13.015625 C 9.421875 -13.472656 9.257812 -13.847656 8.9375 -14.140625 C 8.613281 -14.429688 8.195312 -14.578125 7.6875 -14.578125 C 6.3125 -14.578125 5.59375 -13.707031 5.53125 -11.96875 Z M 7.453125 -3.890625 C 7.984375 -3.890625 8.4375 -3.703125 8.8125 -3.328125 C 9.195312 -2.960938 9.390625 -2.515625 9.390625 -1.984375 C 9.390625 -1.441406 9.195312 -0.976562 8.8125 -0.59375 C 8.4375 -0.21875 7.984375 -0.03125 7.453125 -0.03125 C 6.910156 -0.03125 6.453125 -0.21875 6.078125 -0.59375 C 5.710938 -0.976562 5.53125 -1.441406 5.53125 -1.984375 C 5.53125 -2.515625 5.710938 -2.960938 6.078125 -3.328125 C 6.453125 -3.703125 6.910156 -3.890625 7.453125 -3.890625 Z M 7.453125 -3.890625 "/></g></g></g><g fill="#ffffff" fill-opacity="1"><g transform="translate(250.277334, 109.40442)"><g/></g></g><g fill="#ffffff" fill-opacity="1"><g transform="translate(28.500002, 134.154418)"><g><path d="M 15.828125 -17.75 L 15.828125 -13.921875 L 6.265625 -13.921875 L 6.265625 -10.984375 L 15.015625 -10.984375 L 15.015625 -7.328125 L 6.265625 -7.328125 L 6.265625 -3.8125 L 16.0625 -3.8125 L 16.0625 0 L 1.640625 0 L 1.640625 -17.75 Z M 15.828125 -17.75 "/></g></g></g><g fill="#ffffff" fill-opacity="1"><g transform="translate(44.808392, 134.154418)"><g><path d="M 12.484375 -9.25 L 8.59375 -9.25 C 8.53125 -9.738281 8.335938 -10.085938 8.015625 -10.296875 C 7.691406 -10.503906 7.164062 -10.609375 6.4375 -10.609375 C 5.320312 -10.609375 4.765625 -10.257812 4.765625 -9.5625 C 4.765625 -9.195312 4.941406 -8.929688 5.296875 -8.765625 C 5.648438 -8.609375 6.46875 -8.40625 7.75 -8.15625 C 9.625 -7.789062 10.9375 -7.304688 11.6875 -6.703125 C 12.4375 -6.097656 12.8125 -5.226562 12.8125 -4.09375 C 12.8125 -2.601562 12.191406 -1.460938 10.953125 -0.671875 C 9.859375 0.00390625 8.410156 0.34375 6.609375 0.34375 C 4.335938 0.34375 2.65625 -0.191406 1.5625 -1.265625 C 1.03125 -1.796875 0.6875 -2.210938 0.53125 -2.515625 C 0.375 -2.816406 0.269531 -3.316406 0.21875 -4.015625 L 4.359375 -4.015625 C 4.421875 -3.421875 4.625 -3.003906 4.96875 -2.765625 C 5.3125 -2.523438 5.878906 -2.40625 6.671875 -2.40625 C 7.992188 -2.40625 8.65625 -2.84375 8.65625 -3.71875 C 8.65625 -4.09375 8.492188 -4.367188 8.171875 -4.546875 C 7.859375 -4.722656 7.117188 -4.941406 5.953125 -5.203125 C 4.117188 -5.597656 2.867188 -5.976562 2.203125 -6.34375 C 1.148438 -6.9375 0.625 -7.894531 0.625 -9.21875 C 0.625 -10.507812 1.132812 -11.492188 2.15625 -12.171875 C 3.175781 -12.859375 4.628906 -13.203125 6.515625 -13.203125 C 8.847656 -13.203125 10.507812 -12.648438 11.5 -11.546875 C 12.09375 -10.898438 12.421875 -10.132812 12.484375 -9.25 Z M 12.484375 -9.25 "/></g></g></g><g fill="#ffffff" fill-opacity="1"><g transform="translate(57.57249, 134.154418)"><g><path d="M 9.21875 -12.859375 L 9.21875 -10.09375 L 6.171875 -10.09375 L 6.171875 -4.78125 C 6.171875 -3.59375 6.707031 -3 7.78125 -3 C 8.40625 -3 8.898438 -3.125 9.265625 -3.375 L 10.015625 -0.34375 C 9.203125 0 8.019531 0.171875 6.46875 0.171875 C 4.550781 0.171875 3.269531 -0.238281 2.625 -1.0625 C 2.34375 -1.425781 2.160156 -1.820312 2.078125 -2.25 C 1.992188 -2.6875 1.953125 -3.398438 1.953125 -4.390625 L 1.953125 -10.09375 L -0.203125 -10.09375 L -0.203125 -12.859375 L 1.953125 -12.859375 L 1.953125 -15.59375 L 6.171875 -17.796875 L 6.171875 -12.859375 Z M 9.21875 -12.859375 "/></g></g></g><g fill="#ffffff" fill-opacity="1"><g transform="translate(66.147891, 134.154418)"><g><path d="M 7.53125 0.34375 C 5.363281 0.34375 3.644531 -0.363281 2.375 -1.78125 C 1.269531 -3.019531 0.71875 -4.570312 0.71875 -6.4375 C 0.71875 -8.59375 1.425781 -10.304688 2.84375 -11.578125 C 4.082031 -12.660156 5.640625 -13.203125 7.515625 -13.203125 C 9.691406 -13.203125 11.414062 -12.503906 12.6875 -11.109375 C 13.78125 -9.898438 14.328125 -8.351562 14.328125 -6.46875 C 14.328125 -4.300781 13.613281 -2.582031 12.1875 -1.3125 C 10.945312 -0.207031 9.394531 0.34375 7.53125 0.34375 Z M 7.484375 -10.140625 C 6.691406 -10.140625 6.078125 -9.816406 5.640625 -9.171875 C 5.210938 -8.523438 5 -7.613281 5 -6.4375 C 5 -3.957031 5.84375 -2.71875 7.53125 -2.71875 C 9.21875 -2.71875 10.0625 -3.96875 10.0625 -6.46875 C 10.0625 -8.914062 9.203125 -10.140625 7.484375 -10.140625 Z M 7.484375 -10.140625 "/></g></g></g><g fill="#ffffff" fill-opacity="1"><g transform="translate(80.448679, 134.154418)"><g><path d="M 14.171875 -12.859375 L 14.171875 0 L 9.9375 0 L 9.9375 -1.734375 C 9.125 -0.347656 7.785156 0.34375 5.921875 0.34375 C 4.285156 0.34375 3.054688 -0.191406 2.234375 -1.265625 C 1.648438 -2.003906 1.359375 -3.1875 1.359375 -4.8125 L 1.359375 -12.859375 L 5.578125 -12.859375 L 5.578125 -6 C 5.578125 -4.894531 5.679688 -4.179688 5.890625 -3.859375 C 6.222656 -3.347656 6.785156 -3.09375 7.578125 -3.09375 C 8.554688 -3.09375 9.253906 -3.5 9.671875 -4.3125 C 9.847656 -4.6875 9.9375 -5.378906 9.9375 -6.390625 L 9.9375 -12.859375 Z M 14.171875 -12.859375 "/></g></g></g><g fill="#ffffff" fill-opacity="1"><g transform="translate(95.31952, 134.154418)"><g/></g></g><g fill="#ffffff" fill-opacity="1"><g transform="translate(99.136159, 134.154418)"><g><path d="M 13.859375 0 L 9.5625 0 C 9.4375 -0.414062 9.363281 -0.820312 9.34375 -1.21875 C 8.550781 -0.175781 7.144531 0.34375 5.125 0.34375 C 3.625 0.34375 2.46875 -0.0507812 1.65625 -0.84375 C 0.945312 -1.539062 0.59375 -2.457031 0.59375 -3.59375 C 0.59375 -5.164062 1.285156 -6.269531 2.671875 -6.90625 C 3.265625 -7.175781 4.488281 -7.484375 6.34375 -7.828125 L 9.265625 -8.375 L 9.265625 -9.140625 C 9.234375 -10.085938 8.582031 -10.5625 7.3125 -10.5625 C 6.613281 -10.5625 6.101562 -10.441406 5.78125 -10.203125 C 5.457031 -9.960938 5.25 -9.535156 5.15625 -8.921875 L 1.171875 -8.921875 C 1.316406 -11.773438 3.378906 -13.203125 7.359375 -13.203125 C 9.472656 -13.203125 11.0625 -12.820312 12.125 -12.0625 C 12.613281 -11.6875 12.945312 -11.265625 13.125 -10.796875 C 13.3125 -10.328125 13.40625 -9.613281 13.40625 -8.65625 C 13.40625 -8.488281 13.394531 -7.972656 13.375 -7.109375 L 13.375 -6.84375 L 13.359375 -4.703125 C 13.359375 -4.128906 13.359375 -3.742188 13.359375 -3.546875 C 13.359375 -3.347656 13.347656 -3.035156 13.328125 -2.609375 C 13.328125 -2.367188 13.328125 -2.1875 13.328125 -2.0625 C 13.328125 -1.132812 13.503906 -0.445312 13.859375 0 Z M 9.3125 -5.875 L 7.390625 -5.453125 C 6.378906 -5.222656 5.707031 -4.988281 5.375 -4.75 C 5.039062 -4.519531 4.875 -4.175781 4.875 -3.71875 C 4.875 -2.707031 5.445312 -2.203125 6.59375 -2.203125 C 7.550781 -2.203125 8.296875 -2.539062 8.828125 -3.21875 C 9.117188 -3.582031 9.273438 -4.160156 9.296875 -4.953125 Z M 9.3125 -5.875 "/></g></g></g><g fill="#ffffff" fill-opacity="1"><g transform="translate(112.941235, 134.154418)"><g><path d="M 14.21875 -12.859375 L 14.21875 4.34375 L 10.015625 4.34375 L 10.015625 -1.515625 C 9.066406 -0.253906 7.828125 0.375 6.296875 0.375 C 4.492188 0.375 3.085938 -0.316406 2.078125 -1.703125 C 1.203125 -2.898438 0.765625 -4.4375 0.765625 -6.3125 C 0.765625 -8.550781 1.351562 -10.296875 2.53125 -11.546875 C 3.539062 -12.648438 4.835938 -13.203125 6.421875 -13.203125 C 8.085938 -13.203125 9.332031 -12.59375 10.15625 -11.375 L 10.15625 -12.859375 Z M 7.53125 -9.765625 C 6.738281 -9.765625 6.128906 -9.453125 5.703125 -8.828125 C 5.273438 -8.210938 5.0625 -7.351562 5.0625 -6.25 C 5.0625 -4.03125 5.894531 -2.921875 7.5625 -2.921875 C 9.28125 -2.921875 10.140625 -4.0625 10.140625 -6.34375 C 10.140625 -8.625 9.269531 -9.765625 7.53125 -9.765625 Z M 7.53125 -9.765625 "/></g></g></g><g fill="#ffffff" fill-opacity="1"><g transform="translate(127.861651, 134.154418)"><g><path d="M 14.171875 -12.859375 L 14.171875 0 L 9.9375 0 L 9.9375 -1.734375 C 9.125 -0.347656 7.785156 0.34375 5.921875 0.34375 C 4.285156 0.34375 3.054688 -0.191406 2.234375 -1.265625 C 1.648438 -2.003906 1.359375 -3.1875 1.359375 -4.8125 L 1.359375 -12.859375 L 5.578125 -12.859375 L 5.578125 -6 C 5.578125 -4.894531 5.679688 -4.179688 5.890625 -3.859375 C 6.222656 -3.347656 6.785156 -3.09375 7.578125 -3.09375 C 8.554688 -3.09375 9.253906 -3.5 9.671875 -4.3125 C 9.847656 -4.6875 9.9375 -5.378906 9.9375 -6.390625 L 9.9375 -12.859375 Z M 14.171875 -12.859375 "/></g></g></g><g fill="#ffffff" fill-opacity="1"><g transform="translate(142.732492, 134.154418)"><g><path d="M 5.671875 -12.859375 L 5.671875 0 L 1.46875 0 L 1.46875 -12.859375 Z M 3.5625 -18.21875 C 4.09375 -18.21875 4.546875 -18.03125 4.921875 -17.65625 C 5.304688 -17.28125 5.5 -16.820312 5.5 -16.28125 C 5.5 -15.75 5.304688 -15.289062 4.921875 -14.90625 C 4.546875 -14.53125 4.09375 -14.34375 3.5625 -14.34375 C 3.019531 -14.34375 2.5625 -14.53125 2.1875 -14.90625 C 1.820312 -15.289062 1.640625 -15.75 1.640625 -16.28125 C 1.640625 -16.820312 1.820312 -17.28125 2.1875 -17.65625 C 2.5625 -18.03125 3.019531 -18.21875 3.5625 -18.21875 Z M 3.5625 -18.21875 "/></g></g></g><g fill="#ffffff" fill-opacity="1"><g transform="translate(149.10201, 134.154418)"><g/></g></g><g fill="#ffffff" fill-opacity="1"><g transform="translate(152.918649, 134.154418)"><g><path d="M 5.53125 -12.859375 L 5.53125 -11.34375 C 6.4375 -12.582031 7.691406 -13.203125 9.296875 -13.203125 C 11.097656 -13.203125 12.519531 -12.492188 13.5625 -11.078125 C 14.46875 -9.835938 14.921875 -8.257812 14.921875 -6.34375 C 14.921875 -4.175781 14.347656 -2.472656 13.203125 -1.234375 C 12.234375 -0.179688 10.976562 0.34375 9.4375 0.34375 C 7.875 0.34375 6.617188 -0.265625 5.671875 -1.484375 L 5.671875 4.34375 L 1.46875 4.34375 L 1.46875 -12.859375 Z M 8.109375 -9.765625 C 7.296875 -9.765625 6.664062 -9.460938 6.21875 -8.859375 C 5.769531 -8.253906 5.546875 -7.40625 5.546875 -6.3125 C 5.546875 -5.238281 5.769531 -4.40625 6.21875 -3.8125 C 6.664062 -3.21875 7.296875 -2.921875 8.109375 -2.921875 C 9.785156 -2.921875 10.625 -4.050781 10.625 -6.3125 C 10.625 -8.613281 9.785156 -9.765625 8.109375 -9.765625 Z M 8.109375 -9.765625 "/></g></g></g><g fill="#ffffff" fill-opacity="1"><g transform="translate(167.839065, 134.154418)"><g><path d="M 13.859375 0 L 9.5625 0 C 9.4375 -0.414062 9.363281 -0.820312 9.34375 -1.21875 C 8.550781 -0.175781 7.144531 0.34375 5.125 0.34375 C 3.625 0.34375 2.46875 -0.0507812 1.65625 -0.84375 C 0.945312 -1.539062 0.59375 -2.457031 0.59375 -3.59375 C 0.59375 -5.164062 1.285156 -6.269531 2.671875 -6.90625 C 3.265625 -7.175781 4.488281 -7.484375 6.34375 -7.828125 L 9.265625 -8.375 L 9.265625 -9.140625 C 9.234375 -10.085938 8.582031 -10.5625 7.3125 -10.5625 C 6.613281 -10.5625 6.101562 -10.441406 5.78125 -10.203125 C 5.457031 -9.960938 5.25 -9.535156 5.15625 -8.921875 L 1.171875 -8.921875 C 1.316406 -11.773438 3.378906 -13.203125 7.359375 -13.203125 C 9.472656 -13.203125 11.0625 -12.820312 12.125 -12.0625 C 12.613281 -11.6875 12.945312 -11.265625 13.125 -10.796875 C 13.3125 -10.328125 13.40625 -9.613281 13.40625 -8.65625 C 13.40625 -8.488281 13.394531 -7.972656 13.375 -7.109375 L 13.375 -6.84375 L 13.359375 -4.703125 C 13.359375 -4.128906 13.359375 -3.742188 13.359375 -3.546875 C 13.359375 -3.347656 13.347656 -3.035156 13.328125 -2.609375 C 13.328125 -2.367188 13.328125 -2.1875 13.328125 -2.0625 C 13.328125 -1.132812 13.503906 -0.445312 13.859375 0 Z M 9.3125 -5.875 L 7.390625 -5.453125 C 6.378906 -5.222656 5.707031 -4.988281 5.375 -4.75 C 5.039062 -4.519531 4.875 -4.175781 4.875 -3.71875 C 4.875 -2.707031 5.445312 -2.203125 6.59375 -2.203125 C 7.550781 -2.203125 8.296875 -2.539062 8.828125 -3.21875 C 9.117188 -3.582031 9.273438 -4.160156 9.296875 -4.953125 Z M 9.3125 -5.875 "/></g></g></g><g fill="#ffffff" fill-opacity="1"><g transform="translate(181.644141, 134.154418)"><g><path d="M 10.65625 -12.9375 L 10.625 -9.46875 C 10.019531 -9.644531 9.441406 -9.734375 8.890625 -9.734375 C 6.742188 -9.734375 5.671875 -8.351562 5.671875 -5.59375 L 5.671875 0 L 1.46875 0 L 1.46875 -12.859375 L 5.53125 -12.859375 L 5.53125 -10.65625 C 6.019531 -12.351562 7.398438 -13.203125 9.671875 -13.203125 C 9.929688 -13.203125 10.257812 -13.113281 10.65625 -12.9375 Z M 10.65625 -12.9375 "/></g></g></g><g fill="#ffffff" fill-opacity="1"><g transform="translate(191.781008, 134.154418)"><g><path d="M 13.859375 0 L 9.5625 0 C 9.4375 -0.414062 9.363281 -0.820312 9.34375 -1.21875 C 8.550781 -0.175781 7.144531 0.34375 5.125 0.34375 C 3.625 0.34375 2.46875 -0.0507812 1.65625 -0.84375 C 0.945312 -1.539062 0.59375 -2.457031 0.59375 -3.59375 C 0.59375 -5.164062 1.285156 -6.269531 2.671875 -6.90625 C 3.265625 -7.175781 4.488281 -7.484375 6.34375 -7.828125 L 9.265625 -8.375 L 9.265625 -9.140625 C 9.234375 -10.085938 8.582031 -10.5625 7.3125 -10.5625 C 6.613281 -10.5625 6.101562 -10.441406 5.78125 -10.203125 C 5.457031 -9.960938 5.25 -9.535156 5.15625 -8.921875 L 1.171875 -8.921875 C 1.316406 -11.773438 3.378906 -13.203125 7.359375 -13.203125 C 9.472656 -13.203125 11.0625 -12.820312 12.125 -12.0625 C 12.613281 -11.6875 12.945312 -11.265625 13.125 -10.796875 C 13.3125 -10.328125 13.40625 -9.613281 13.40625 -8.65625 C 13.40625 -8.488281 13.394531 -7.972656 13.375 -7.109375 L 13.375 -6.84375 L 13.359375 -4.703125 C 13.359375 -4.128906 13.359375 -3.742188 13.359375 -3.546875 C 13.359375 -3.347656 13.347656 -3.035156 13.328125 -2.609375 C 13.328125 -2.367188 13.328125 -2.1875 13.328125 -2.0625 C 13.328125 -1.132812 13.503906 -0.445312 13.859375 0 Z M 9.3125 -5.875 L 7.390625 -5.453125 C 6.378906 -5.222656 5.707031 -4.988281 5.375 -4.75 C 5.039062 -4.519531 4.875 -4.175781 4.875 -3.71875 C 4.875 -2.707031 5.445312 -2.203125 6.59375 -2.203125 C 7.550781 -2.203125 8.296875 -2.539062 8.828125 -3.21875 C 9.117188 -3.582031 9.273438 -4.160156 9.296875 -4.953125 Z M 9.3125 -5.875 "/></g></g></g><g fill="#ffffff" fill-opacity="1"><g transform="translate(205.586084, 134.154418)"><g/></g></g><g fill="#ffffff" fill-opacity="1"><g transform="translate(209.402722, 134.154418)"><g><path d="M 9.21875 -12.859375 L 9.21875 -10.09375 L 6.171875 -10.09375 L 6.171875 -4.78125 C 6.171875 -3.59375 6.707031 -3 7.78125 -3 C 8.40625 -3 8.898438 -3.125 9.265625 -3.375 L 10.015625 -0.34375 C 9.203125 0 8.019531 0.171875 6.46875 0.171875 C 4.550781 0.171875 3.269531 -0.238281 2.625 -1.0625 C 2.34375 -1.425781 2.160156 -1.820312 2.078125 -2.25 C 1.992188 -2.6875 1.953125 -3.398438 1.953125 -4.390625 L 1.953125 -10.09375 L -0.203125 -10.09375 L -0.203125 -12.859375 L 1.953125 -12.859375 L 1.953125 -15.59375 L 6.171875 -17.796875 L 6.171875 -12.859375 Z M 9.21875 -12.859375 "/></g></g></g><g fill="#ffffff" fill-opacity="1"><g transform="translate(217.978123, 134.154418)"><g><path d="M 14.171875 -3.9375 C 13.972656 -3.175781 13.59375 -2.472656 13.03125 -1.828125 C 11.757812 -0.378906 10 0.34375 7.75 0.34375 C 5.71875 0.34375 4.078125 -0.21875 2.828125 -1.34375 C 1.421875 -2.59375 0.71875 -4.25 0.71875 -6.3125 C 0.71875 -8.476562 1.445312 -10.210938 2.90625 -11.515625 C 4.15625 -12.640625 5.710938 -13.203125 7.578125 -13.203125 C 9.847656 -13.203125 11.59375 -12.460938 12.8125 -10.984375 C 13.882812 -9.671875 14.421875 -7.957031 14.421875 -5.84375 C 14.421875 -5.695312 14.421875 -5.566406 14.421875 -5.453125 L 4.859375 -5.453125 C 4.890625 -4.523438 5.160156 -3.800781 5.671875 -3.28125 C 6.179688 -2.757812 6.875 -2.5 7.75 -2.5 C 8.832031 -2.5 9.648438 -2.976562 10.203125 -3.9375 Z M 10.28125 -7.859375 C 10.070312 -9.523438 9.1875 -10.359375 7.625 -10.359375 C 6.0625 -10.359375 5.15625 -9.523438 4.90625 -7.859375 Z M 10.28125 -7.859375 "/></g></g></g><g fill="#ffffff" fill-opacity="1"><g transform="translate(28.500002, 158.904417)"><g><path d="M 13.859375 0 L 9.5625 0 C 9.4375 -0.414062 9.363281 -0.820312 9.34375 -1.21875 C 8.550781 -0.175781 7.144531 0.34375 5.125 0.34375 C 3.625 0.34375 2.46875 -0.0507812 1.65625 -0.84375 C 0.945312 -1.539062 0.59375 -2.457031 0.59375 -3.59375 C 0.59375 -5.164062 1.285156 -6.269531 2.671875 -6.90625 C 3.265625 -7.175781 4.488281 -7.484375 6.34375 -7.828125 L 9.265625 -8.375 L 9.265625 -9.140625 C 9.234375 -10.085938 8.582031 -10.5625 7.3125 -10.5625 C 6.613281 -10.5625 6.101562 -10.441406 5.78125 -10.203125 C 5.457031 -9.960938 5.25 -9.535156 5.15625 -8.921875 L 1.171875 -8.921875 C 1.316406 -11.773438 3.378906 -13.203125 7.359375 -13.203125 C 9.472656 -13.203125 11.0625 -12.820312 12.125 -12.0625 C 12.613281 -11.6875 12.945312 -11.265625 13.125 -10.796875 C 13.3125 -10.328125 13.40625 -9.613281 13.40625 -8.65625 C 13.40625 -8.488281 13.394531 -7.972656 13.375 -7.109375 L 13.375 -6.84375 L 13.359375 -4.703125 C 13.359375 -4.128906 13.359375 -3.742188 13.359375 -3.546875 C 13.359375 -3.347656 13.347656 -3.035156 13.328125 -2.609375 C 13.328125 -2.367188 13.328125 -2.1875 13.328125 -2.0625 C 13.328125 -1.132812 13.503906 -0.445312 13.859375 0 Z M 9.3125 -5.875 L 7.390625 -5.453125 C 6.378906 -5.222656 5.707031 -4.988281 5.375 -4.75 C 5.039062 -4.519531 4.875 -4.175781 4.875 -3.71875 C 4.875 -2.707031 5.445312 -2.203125 6.59375 -2.203125 C 7.550781 -2.203125 8.296875 -2.539062 8.828125 -3.21875 C 9.117188 -3.582031 9.273438 -4.160156 9.296875 -4.953125 Z M 9.3125 -5.875 "/></g></g></g><g fill="#ffffff" fill-opacity="1"><g transform="translate(42.305077, 158.904417)"><g><path d="M 5.671875 -12.859375 L 5.671875 -0.15625 C 5.671875 1.039062 5.546875 1.9375 5.296875 2.53125 C 4.734375 3.78125 3.316406 4.40625 1.046875 4.40625 C 0.628906 4.40625 0.0390625 4.390625 -0.71875 4.359375 L -0.71875 0.984375 C -0.570312 0.972656 -0.265625 0.96875 0.203125 0.96875 C 0.859375 0.945312 1.242188 0.710938 1.359375 0.265625 C 1.429688 0.0546875 1.46875 -0.625 1.46875 -1.78125 L 1.46875 -12.859375 Z M 3.546875 -18.21875 C 4.085938 -18.21875 4.546875 -18.03125 4.921875 -17.65625 C 5.304688 -17.28125 5.5 -16.820312 5.5 -16.28125 C 5.5 -15.75 5.304688 -15.289062 4.921875 -14.90625 C 4.546875 -14.53125 4.085938 -14.34375 3.546875 -14.34375 C 3.015625 -14.34375 2.5625 -14.53125 2.1875 -14.90625 C 1.820312 -15.289062 1.640625 -15.75 1.640625 -16.28125 C 1.640625 -16.820312 1.820312 -17.28125 2.1875 -17.65625 C 2.5625 -18.03125 3.015625 -18.21875 3.546875 -18.21875 Z M 3.546875 -18.21875 "/></g></g></g><g fill="#ffffff" fill-opacity="1"><g transform="translate(48.674595, 158.904417)"><g><path d="M 14.171875 -12.859375 L 14.171875 0 L 9.9375 0 L 9.9375 -1.734375 C 9.125 -0.347656 7.785156 0.34375 5.921875 0.34375 C 4.285156 0.34375 3.054688 -0.191406 2.234375 -1.265625 C 1.648438 -2.003906 1.359375 -3.1875 1.359375 -4.8125 L 1.359375 -12.859375 L 5.578125 -12.859375 L 5.578125 -6 C 5.578125 -4.894531 5.679688 -4.179688 5.890625 -3.859375 C 6.222656 -3.347656 6.785156 -3.09375 7.578125 -3.09375 C 8.554688 -3.09375 9.253906 -3.5 9.671875 -4.3125 C 9.847656 -4.6875 9.9375 -5.378906 9.9375 -6.390625 L 9.9375 -12.859375 Z M 14.171875 -12.859375 "/></g></g></g><g fill="#ffffff" fill-opacity="1"><g transform="translate(63.545436, 158.904417)"><g><path d="M 14.21875 -17.75 L 14.21875 0 L 9.984375 0 L 9.984375 -1.515625 C 9.242188 -0.273438 8.082031 0.34375 6.5 0.34375 C 4.644531 0.34375 3.1875 -0.359375 2.125 -1.765625 C 1.21875 -3.003906 0.765625 -4.585938 0.765625 -6.515625 C 0.765625 -8.679688 1.335938 -10.375 2.484375 -11.59375 C 3.472656 -12.6875 4.734375 -13.234375 6.265625 -13.234375 C 7.867188 -13.234375 9.109375 -12.613281 9.984375 -11.375 L 9.984375 -17.75 Z M 7.578125 -9.9375 C 6.773438 -9.9375 6.15625 -9.632812 5.71875 -9.03125 C 5.28125 -8.425781 5.0625 -7.582031 5.0625 -6.5 C 5.0625 -4.226562 5.898438 -3.09375 7.578125 -3.09375 C 8.390625 -3.09375 9.019531 -3.394531 9.46875 -4 C 9.925781 -4.601562 10.15625 -5.4375 10.15625 -6.5 C 10.15625 -7.570312 9.921875 -8.410156 9.453125 -9.015625 C 8.992188 -9.628906 8.367188 -9.9375 7.578125 -9.9375 Z M 7.578125 -9.9375 "/></g></g></g><g fill="#ffffff" fill-opacity="1"><g transform="translate(78.465853, 158.904417)"><g><path d="M 13.859375 0 L 9.5625 0 C 9.4375 -0.414062 9.363281 -0.820312 9.34375 -1.21875 C 8.550781 -0.175781 7.144531 0.34375 5.125 0.34375 C 3.625 0.34375 2.46875 -0.0507812 1.65625 -0.84375 C 0.945312 -1.539062 0.59375 -2.457031 0.59375 -3.59375 C 0.59375 -5.164062 1.285156 -6.269531 2.671875 -6.90625 C 3.265625 -7.175781 4.488281 -7.484375 6.34375 -7.828125 L 9.265625 -8.375 L 9.265625 -9.140625 C 9.234375 -10.085938 8.582031 -10.5625 7.3125 -10.5625 C 6.613281 -10.5625 6.101562 -10.441406 5.78125 -10.203125 C 5.457031 -9.960938 5.25 -9.535156 5.15625 -8.921875 L 1.171875 -8.921875 C 1.316406 -11.773438 3.378906 -13.203125 7.359375 -13.203125 C 9.472656 -13.203125 11.0625 -12.820312 12.125 -12.0625 C 12.613281 -11.6875 12.945312 -11.265625 13.125 -10.796875 C 13.3125 -10.328125 13.40625 -9.613281 13.40625 -8.65625 C 13.40625 -8.488281 13.394531 -7.972656 13.375 -7.109375 L 13.375 -6.84375 L 13.359375 -4.703125 C 13.359375 -4.128906 13.359375 -3.742188 13.359375 -3.546875 C 13.359375 -3.347656 13.347656 -3.035156 13.328125 -2.609375 C 13.328125 -2.367188 13.328125 -2.1875 13.328125 -2.0625 C 13.328125 -1.132812 13.503906 -0.445312 13.859375 0 Z M 9.3125 -5.875 L 7.390625 -5.453125 C 6.378906 -5.222656 5.707031 -4.988281 5.375 -4.75 C 5.039062 -4.519531 4.875 -4.175781 4.875 -3.71875 C 4.875 -2.707031 5.445312 -2.203125 6.59375 -2.203125 C 7.550781 -2.203125 8.296875 -2.539062 8.828125 -3.21875 C 9.117188 -3.582031 9.273438 -4.160156 9.296875 -4.953125 Z M 9.3125 -5.875 "/></g></g></g><g fill="#ffffff" fill-opacity="1"><g transform="translate(92.270928, 158.904417)"><g><path d="M 10.65625 -12.9375 L 10.625 -9.46875 C 10.019531 -9.644531 9.441406 -9.734375 8.890625 -9.734375 C 6.742188 -9.734375 5.671875 -8.351562 5.671875 -5.59375 L 5.671875 0 L 1.46875 0 L 1.46875 -12.859375 L 5.53125 -12.859375 L 5.53125 -10.65625 C 6.019531 -12.351562 7.398438 -13.203125 9.671875 -13.203125 C 9.929688 -13.203125 10.257812 -13.113281 10.65625 -12.9375 Z M 10.65625 -12.9375 "/></g></g></g><g fill="#ffffff" fill-opacity="1"><g transform="translate(102.407795, 158.904417)"><g><path d="M 4.6875 -17.75 L 4.6875 -5.578125 L 3.078125 -4.265625 L 1.515625 -4.265625 L 1.515625 -17.75 Z M 3.203125 -3.734375 C 3.742188 -3.734375 4.195312 -3.546875 4.5625 -3.171875 C 4.9375 -2.804688 5.125 -2.359375 5.125 -1.828125 C 5.125 -1.285156 4.9375 -0.820312 4.5625 -0.4375 C 4.195312 -0.0625 3.742188 0.125 3.203125 0.125 C 2.671875 0.125 2.210938 -0.0625 1.828125 -0.4375 C 1.453125 -0.820312 1.265625 -1.285156 1.265625 -1.828125 C 1.265625 -2.359375 1.453125 -2.804688 1.828125 -3.171875 C 2.210938 -3.546875 2.671875 -3.734375 3.203125 -3.734375 Z M 3.203125 -3.734375 "/></g></g></g></svg>