<svg xmlns="http://www.w3.org/2000/svg" xmlns:xlink="http://www.w3.org/1999/xlink" width="200" zoomAndPan="magnify" viewBox="0 0 150 56.249996" height="75" preserveAspectRatio="xMidYMid meet" version="1.0"><defs><g/><clipPath id="5d68cce52d"><path d="M 41 14 L 58.394531 14 L 58.394531 47 L 41 47 Z M 41 14 " clip-rule="nonzero"/></clipPath><clipPath id="6900ef5aee"><path d="M 20 8.472656 L 39 8.472656 L 39 51.53125 L 20 51.53125 Z M 20 8.472656 " clip-rule="nonzero"/></clipPath></defs><g clip-path="url(#5d68cce52d)"><path fill="#ff6b00" d="M 42.523438 46.011719 C 42.183594 46.011719 41.839844 45.878906 41.582031 45.621094 C 41.0625 45.101562 41.0625 44.257812 41.582031 43.734375 L 55.234375 30.082031 L 41.582031 16.429688 C 41.0625 15.910156 41.0625 15.066406 41.582031 14.546875 C 42.101562 14.027344 42.945312 14.027344 43.464844 14.546875 L 58.0625 29.140625 C 58.308594 29.390625 58.449219 29.730469 58.449219 30.082031 C 58.449219 30.4375 58.308594 30.777344 58.0625 31.027344 L 43.464844 45.621094 C 43.207031 45.878906 42.863281 46.011719 42.523438 46.011719 Z M 42.523438 46.011719 " fill-opacity="1" fill-rule="nonzero"/></g><path fill="#ff6b00" d="M 16.933594 46.011719 C 16.59375 46.011719 16.253906 45.878906 15.992188 45.621094 L 1.398438 31.027344 C 1.148438 30.777344 1.007812 30.4375 1.007812 30.082031 C 1.007812 29.730469 1.148438 29.390625 1.398438 29.140625 L 15.992188 14.546875 C 16.511719 14.027344 17.355469 14.027344 17.875 14.546875 C 18.398438 15.066406 18.398438 15.910156 17.875 16.429688 L 4.222656 30.082031 L 17.875 43.734375 C 18.398438 44.257812 18.398438 45.101562 17.875 45.621094 C 17.617188 45.878906 17.273438 46.011719 16.933594 46.011719 Z M 16.933594 46.011719 " fill-opacity="1" fill-rule="nonzero"/><g clip-path="url(#6900ef5aee)"><path fill="#ff6b00" d="M 21.796875 51.511719 C 21.636719 51.511719 21.46875 51.484375 21.308594 51.421875 C 20.625 51.148438 20.289062 50.375 20.558594 49.691406 L 36.417969 9.496094 C 36.691406 8.8125 37.464844 8.476562 38.148438 8.746094 C 38.832031 9.015625 39.167969 9.789062 38.898438 10.476562 L 23.039062 50.667969 C 22.832031 51.195312 22.328125 51.511719 21.796875 51.511719 Z M 21.796875 51.511719 " fill-opacity="1" fill-rule="nonzero"/></g><g fill="#ff6b00" fill-opacity="1"><g transform="translate(60.18517, 22.459121)"><g><path d="M 14.015625 0 L 10.875 0 L 10.875 -6.390625 L 5.015625 -6.390625 L 5.015625 0 L 1.859375 0 L 1.859375 -14.828125 L 5.015625 -14.828125 L 5.015625 -9.015625 L 10.875 -9.015625 L 10.875 -14.828125 L 14.015625 -14.828125 Z M 14.015625 0 "/></g></g></g><g fill="#ff6b00" fill-opacity="1"><g transform="translate(76.066412, 22.459121)"><g><path d="M 9.65625 0 L 9.234375 -1.453125 L 9.078125 -1.453125 C 8.742188 -0.921875 8.269531 -0.507812 7.65625 -0.21875 C 7.050781 0.0625 6.363281 0.203125 5.59375 0.203125 C 4.257812 0.203125 3.253906 -0.148438 2.578125 -0.859375 C 1.898438 -1.578125 1.5625 -2.601562 1.5625 -3.9375 L 1.5625 -11.328125 L 4.65625 -11.328125 L 4.65625 -4.71875 C 4.65625 -3.894531 4.800781 -3.28125 5.09375 -2.875 C 5.382812 -2.46875 5.847656 -2.265625 6.484375 -2.265625 C 7.347656 -2.265625 7.972656 -2.550781 8.359375 -3.125 C 8.742188 -3.707031 8.9375 -4.664062 8.9375 -6 L 8.9375 -11.328125 L 12.03125 -11.328125 L 12.03125 0 Z M 9.65625 0 "/></g></g></g><g fill="#ff6b00" fill-opacity="1"><g transform="translate(89.707853, 22.459121)"><g><path d="M 11.484375 -11.328125 L 11.484375 -9.765625 L 9.71875 -9.3125 C 10.039062 -8.800781 10.203125 -8.234375 10.203125 -7.609375 C 10.203125 -6.390625 9.773438 -5.4375 8.921875 -4.75 C 8.078125 -4.070312 6.898438 -3.734375 5.390625 -3.734375 L 4.84375 -3.765625 L 4.375 -3.828125 C 4.0625 -3.578125 3.90625 -3.304688 3.90625 -3.015625 C 3.90625 -2.566406 4.472656 -2.34375 5.609375 -2.34375 L 7.53125 -2.34375 C 8.78125 -2.34375 9.726562 -2.070312 10.375 -1.53125 C 11.03125 -1 11.359375 -0.21875 11.359375 0.8125 C 11.359375 2.132812 10.804688 3.160156 9.703125 3.890625 C 8.597656 4.617188 7.007812 4.984375 4.9375 4.984375 C 3.351562 4.984375 2.144531 4.707031 1.3125 4.15625 C 0.476562 3.601562 0.0625 2.832031 0.0625 1.84375 C 0.0625 1.164062 0.273438 0.59375 0.703125 0.125 C 1.128906 -0.332031 1.753906 -0.660156 2.578125 -0.859375 C 2.253906 -0.984375 1.972656 -1.203125 1.734375 -1.515625 C 1.503906 -1.828125 1.390625 -2.15625 1.390625 -2.5 C 1.390625 -2.925781 1.515625 -3.28125 1.765625 -3.5625 C 2.015625 -3.851562 2.375 -4.140625 2.84375 -4.421875 C 2.25 -4.679688 1.773438 -5.09375 1.421875 -5.65625 C 1.078125 -6.226562 0.90625 -6.898438 0.90625 -7.671875 C 0.90625 -8.898438 1.304688 -9.851562 2.109375 -10.53125 C 2.921875 -11.207031 4.070312 -11.546875 5.5625 -11.546875 C 5.882812 -11.546875 6.257812 -11.515625 6.6875 -11.453125 C 7.125 -11.398438 7.40625 -11.359375 7.53125 -11.328125 Z M 2.734375 1.609375 C 2.734375 2.023438 2.9375 2.351562 3.34375 2.59375 C 3.757812 2.84375 4.332031 2.96875 5.0625 2.96875 C 6.175781 2.96875 7.046875 2.816406 7.671875 2.515625 C 8.304688 2.210938 8.625 1.796875 8.625 1.265625 C 8.625 0.835938 8.4375 0.539062 8.0625 0.375 C 7.6875 0.21875 7.113281 0.140625 6.34375 0.140625 L 4.734375 0.140625 C 4.171875 0.140625 3.695312 0.269531 3.3125 0.53125 C 2.925781 0.800781 2.734375 1.160156 2.734375 1.609375 Z M 3.859375 -7.625 C 3.859375 -7.007812 4 -6.519531 4.28125 -6.15625 C 4.5625 -5.800781 4.988281 -5.625 5.5625 -5.625 C 6.144531 -5.625 6.570312 -5.800781 6.84375 -6.15625 C 7.113281 -6.519531 7.25 -7.007812 7.25 -7.625 C 7.25 -8.988281 6.6875 -9.671875 5.5625 -9.671875 C 4.425781 -9.671875 3.859375 -8.988281 3.859375 -7.625 Z M 3.859375 -7.625 "/></g></g></g><g fill="#ff6b00" fill-opacity="1"><g transform="translate(101.433827, 22.459121)"><g><path d="M 4.09375 -5.6875 C 4.09375 -4.5625 4.273438 -3.710938 4.640625 -3.140625 C 5.003906 -2.566406 5.601562 -2.28125 6.4375 -2.28125 C 7.257812 -2.28125 7.851562 -2.566406 8.21875 -3.140625 C 8.582031 -3.710938 8.765625 -4.5625 8.765625 -5.6875 C 8.765625 -6.8125 8.582031 -7.648438 8.21875 -8.203125 C 7.851562 -8.765625 7.253906 -9.046875 6.421875 -9.046875 C 5.597656 -9.046875 5.003906 -8.765625 4.640625 -8.203125 C 4.273438 -7.648438 4.09375 -6.8125 4.09375 -5.6875 Z M 11.921875 -5.6875 C 11.921875 -3.84375 11.429688 -2.398438 10.453125 -1.359375 C 9.484375 -0.316406 8.128906 0.203125 6.390625 0.203125 C 5.304688 0.203125 4.347656 -0.0351562 3.515625 -0.515625 C 2.679688 -0.992188 2.039062 -1.675781 1.59375 -2.5625 C 1.15625 -3.457031 0.9375 -4.5 0.9375 -5.6875 C 0.9375 -7.539062 1.414062 -8.976562 2.375 -10 C 3.34375 -11.03125 4.703125 -11.546875 6.453125 -11.546875 C 7.546875 -11.546875 8.503906 -11.304688 9.328125 -10.828125 C 10.160156 -10.359375 10.800781 -9.679688 11.25 -8.796875 C 11.695312 -7.910156 11.921875 -6.875 11.921875 -5.6875 Z M 11.921875 -5.6875 "/></g></g></g><g fill="#ff6b00" fill-opacity="1"><g transform="translate(114.288561, 22.459121)"><g/></g></g><g fill="#ff6b00" fill-opacity="1"><g transform="translate(60.18517, 47.412275)"><g><path d="M 11.890625 0 L 9.21875 0 L 9.21875 -5.421875 L 4.25 -5.421875 L 4.25 0 L 1.578125 0 L 1.578125 -12.578125 L 4.25 -12.578125 L 4.25 -7.640625 L 9.21875 -7.640625 L 9.21875 -12.578125 L 11.890625 -12.578125 Z M 11.890625 0 "/></g></g><g transform="translate(73.662281, 47.412275)"><g><path d="M 5.359375 -7.921875 C 4.796875 -7.921875 4.359375 -7.742188 4.046875 -7.390625 C 3.734375 -7.046875 3.554688 -6.550781 3.515625 -5.90625 L 7.1875 -5.90625 C 7.175781 -6.550781 7.003906 -7.046875 6.671875 -7.390625 C 6.347656 -7.742188 5.910156 -7.921875 5.359375 -7.921875 Z M 5.71875 0.171875 C 4.175781 0.171875 2.96875 -0.253906 2.09375 -1.109375 C 1.226562 -1.960938 0.796875 -3.171875 0.796875 -4.734375 C 0.796875 -6.347656 1.195312 -7.59375 2 -8.46875 C 2.800781 -9.351562 3.914062 -9.796875 5.34375 -9.796875 C 6.695312 -9.796875 7.75 -9.40625 8.5 -8.625 C 9.257812 -7.851562 9.640625 -6.785156 9.640625 -5.421875 L 9.640625 -4.15625 L 3.453125 -4.15625 C 3.472656 -3.40625 3.691406 -2.820312 4.109375 -2.40625 C 4.523438 -1.988281 5.101562 -1.78125 5.84375 -1.78125 C 6.425781 -1.78125 6.972656 -1.835938 7.484375 -1.953125 C 8.003906 -2.078125 8.546875 -2.269531 9.109375 -2.53125 L 9.109375 -0.5 C 8.648438 -0.269531 8.160156 -0.101562 7.640625 0 C 7.117188 0.113281 6.476562 0.171875 5.71875 0.171875 Z M 5.71875 0.171875 "/></g></g><g transform="translate(84.068984, 47.412275)"><g><path d="M 10.25 0 L 7.625 0 L 7.625 -5.609375 C 7.625 -6.304688 7.5 -6.828125 7.25 -7.171875 C 7.007812 -7.523438 6.617188 -7.703125 6.078125 -7.703125 C 5.347656 -7.703125 4.816406 -7.453125 4.484375 -6.953125 C 4.160156 -6.460938 4 -5.648438 4 -4.515625 L 4 0 L 1.375 0 L 1.375 -9.609375 L 3.375 -9.609375 L 3.734375 -8.390625 L 3.875 -8.390625 C 4.164062 -8.847656 4.566406 -9.195312 5.078125 -9.4375 C 5.597656 -9.675781 6.179688 -9.796875 6.828125 -9.796875 C 7.953125 -9.796875 8.800781 -9.492188 9.375 -8.890625 C 9.957031 -8.285156 10.25 -7.410156 10.25 -6.265625 Z M 10.25 0 "/></g></g><g transform="translate(95.645367, 47.412275)"><g><path d="M 4.421875 0.171875 C 3.285156 0.171875 2.394531 -0.265625 1.75 -1.140625 C 1.113281 -2.015625 0.796875 -3.234375 0.796875 -4.796875 C 0.796875 -6.367188 1.125 -7.59375 1.78125 -8.46875 C 2.4375 -9.351562 3.335938 -9.796875 4.484375 -9.796875 C 5.691406 -9.796875 6.613281 -9.328125 7.25 -8.390625 L 7.34375 -8.390625 C 7.207031 -9.097656 7.140625 -9.734375 7.140625 -10.296875 L 7.140625 -13.375 L 9.78125 -13.375 L 9.78125 0 L 7.765625 0 L 7.25 -1.25 L 7.140625 -1.25 C 6.546875 -0.300781 5.640625 0.171875 4.421875 0.171875 Z M 5.34375 -1.921875 C 6.007812 -1.921875 6.5 -2.113281 6.8125 -2.5 C 7.125 -2.894531 7.296875 -3.554688 7.328125 -4.484375 L 7.328125 -4.765625 C 7.328125 -5.796875 7.164062 -6.535156 6.84375 -6.984375 C 6.53125 -7.429688 6.015625 -7.65625 5.296875 -7.65625 C 4.710938 -7.65625 4.257812 -7.40625 3.9375 -6.90625 C 3.613281 -6.414062 3.453125 -5.695312 3.453125 -4.75 C 3.453125 -3.8125 3.613281 -3.101562 3.9375 -2.625 C 4.257812 -2.15625 4.726562 -1.921875 5.34375 -1.921875 Z M 5.34375 -1.921875 "/></g></g><g transform="translate(106.791721, 47.412275)"><g><path d="M 6.734375 -9.796875 C 7.097656 -9.796875 7.394531 -9.769531 7.625 -9.71875 L 7.421875 -7.25 C 7.210938 -7.3125 6.957031 -7.34375 6.65625 -7.34375 C 5.820312 -7.34375 5.171875 -7.125 4.703125 -6.6875 C 4.234375 -6.257812 4 -5.660156 4 -4.890625 L 4 0 L 1.375 0 L 1.375 -9.609375 L 3.359375 -9.609375 L 3.75 -8 L 3.875 -8 C 4.175781 -8.539062 4.578125 -8.972656 5.078125 -9.296875 C 5.585938 -9.628906 6.140625 -9.796875 6.734375 -9.796875 Z M 6.734375 -9.796875 "/></g></g><g transform="translate(114.790262, 47.412275)"><g><path d="M 1.265625 -12.09375 C 1.265625 -12.945312 1.738281 -13.375 2.6875 -13.375 C 3.644531 -13.375 4.125 -12.945312 4.125 -12.09375 C 4.125 -11.6875 4.003906 -11.367188 3.765625 -11.140625 C 3.523438 -10.921875 3.164062 -10.8125 2.6875 -10.8125 C 1.738281 -10.8125 1.265625 -11.238281 1.265625 -12.09375 Z M 4 0 L 1.375 0 L 1.375 -9.609375 L 4 -9.609375 Z M 4 0 "/></g></g><g transform="translate(120.165625, 47.412275)"><g><path d="M 3.34375 -4.90625 L 0.25 -9.609375 L 3.21875 -9.609375 L 5.09375 -6.546875 L 6.96875 -9.609375 L 9.953125 -9.609375 L 6.8125 -4.90625 L 10.09375 0 L 7.109375 0 L 5.09375 -3.296875 L 3.0625 0 L 0.09375 0 Z M 3.34375 -4.90625 "/></g></g></g></svg>